<svg width="90" height="40" viewBox="0 0 90 40" fill="none" xmlns="http://www.w3.org/2000/svg">
<g clip-path="url(#clip0_36_12917)">
<path d="M23.7689 2.66003L26.3589 2.66003L26.3589 7.93003L23.7689 7.93003L23.7689 2.66003Z" fill="white"/>
<path d="M18.6289 -4.49353e-07L23.7689 0L23.7689 2.66L18.6289 2.66L18.6289 -4.49353e-07Z" fill="white"/>
<path d="M18.6289 7.93005L23.7689 7.93005L23.7689 10.5501L18.6289 10.5501L18.6289 7.93005Z" fill="white"/>
<path d="M15.9289 2.66003L18.6289 2.66003L18.6289 7.93003L15.9289 7.93003L15.9289 2.66003Z" fill="white"/>
<path d="M31.5889 10.45L34.2389 10.45L34.2389 15.74L31.5889 15.74L31.5889 10.45Z" fill="white"/>
<path d="M39.4089 18.41L34.2389 18.41L34.2389 15.74L39.4089 15.8L39.4089 18.41Z" fill="white"/>
<path d="M39.4089 10.45L42.0189 10.45L42.0189 15.8L39.4089 15.8L39.4089 10.45Z" fill="white"/>
<path d="M34.2289 7.82996L39.4089 7.82996L39.4089 10.45L34.2289 10.45L34.2289 7.82996Z" fill="white"/>
<path d="M18.6289 13.1L23.7689 13.1L23.7689 15.72L18.6289 15.72L18.6289 13.1Z" fill="white"/>
<path d="M18.6289 20.95L23.7689 20.95L23.7689 23.5599L18.6289 23.5599L18.6289 20.95Z" fill="white"/>
<path d="M23.7689 15.71L26.3589 15.71L26.3589 20.95L23.7689 20.95L23.7689 15.71Z" fill="white"/>
<path d="M15.8889 15.71L18.6289 15.71L18.6289 20.95L15.8889 20.95L15.8889 15.71Z" fill="white"/>
<path d="M18.6289 36.83L23.7689 36.83L23.7689 39.44L18.6289 39.44L18.6289 36.83Z" fill="white"/>
<path d="M15.9289 31.48L18.6289 31.48L18.6289 36.68L15.9289 36.68L15.9289 31.48Z" fill="white"/>
<path d="M23.7689 31.48L26.3589 31.48L26.3589 36.83L23.7689 36.83L23.7689 31.48Z" fill="white"/>
<path d="M18.6289 28.87L23.7689 28.87L23.7689 31.48L18.6289 31.48L18.6289 28.87Z" fill="white"/>
<path d="M29.1189 2.45996L31.7289 2.45996L31.7289 10.44L29.1189 10.44L29.1189 2.45996Z" fill="white"/>
<path d="M15.8889 23.5599L23.7689 23.5599L23.7689 26.1599L15.8889 26.1599L15.8889 23.5599Z" fill="white"/>
<path d="M44.5789 10.34L52.5089 10.34L52.5089 13.12L44.5789 13.12L44.5789 10.34Z" fill="white"/>
<path d="M36.7989 2.60998L44.6289 2.60999L44.6289 5.35999L36.7989 5.35998L36.7989 2.60998Z" fill="white"/>
<path d="M39.4089 5.21997L47.2389 5.21997L47.2389 7.92997L39.4089 7.92997L39.4089 5.21997Z" fill="white"/>
<path d="M13.3189 20.95L15.8889 20.95L15.8889 23.5599L13.3189 23.5599L13.3189 20.95Z" fill="white"/>
<path d="M5.45891 13.13L8.00891 13.13L8.00891 15.71L5.45891 15.71L5.45891 13.13Z" fill="white"/>
<path d="M23.7689 10.55L26.3589 10.55L26.3589 13.1L23.7689 13.1L23.7689 10.55Z" fill="white"/>
<path d="M26.3589 15.71L28.9689 15.74L28.9689 13.1L26.3589 13.1L26.3589 15.71Z" fill="white"/>
<path d="M28.9689 15.74L31.5789 15.74L31.5789 18.34L28.9689 18.34L28.9689 15.74Z" fill="white"/>
<path d="M31.5889 18.34L34.2389 18.34L34.2389 20.95L31.5889 20.95L31.5889 18.34Z" fill="white"/>
<path d="M34.2289 20.95L36.7989 20.95L36.7989 23.41L34.2289 23.41L34.2289 20.95Z" fill="white"/>
<path d="M47.3389 23.44L47.3589 26.22L44.6289 26.22L44.6289 28.83L41.9289 28.83L41.9289 31.53L39.4089 31.53L39.4089 34.05L41.9289 34.05L41.9289 31.53L44.6289 31.53L44.6289 28.83L47.3889 28.83L47.4289 34.17L44.6089 34.22L44.6089 39.29L42.0689 39.29L41.9689 34.07L36.7989 34.07L36.7089 23.42L47.3389 23.44Z" fill="white"/>
<path d="M8.01891 18.36L13.3189 18.36L13.3189 20.95L8.01891 20.95L8.01891 18.36Z" fill="white"/>
<path d="M5.45889 15.71L10.7989 15.71L10.7989 18.36L5.45888 18.36L5.45889 15.71Z" fill="white"/>
<path d="M5.42891 2.70996L8.00891 2.70996L8.00891 8.16996L5.42891 8.16996L5.42891 2.70996Z" fill="white"/>
<path d="M0.00889587 2.68005L5.42889 2.68005L5.42889 5.29005L0.00889565 5.29005L0.00889587 2.68005Z" fill="white"/>
<path d="M10.7089 5.41003L13.3189 5.41003L13.3189 10.87L10.7089 10.87L10.7089 5.41003Z" fill="white"/>
<path d="M23.7789 26.16L34.3389 26.16L34.3389 28.87L23.7789 28.87L23.7789 26.16Z" fill="white"/>
<path d="M8.09892 26.16L15.8889 26.16L15.8889 28.87L8.09892 28.87L8.09892 26.16Z" fill="white"/>
<path d="M5.40889 28.87L13.2389 28.87L13.2389 31.48L5.40889 31.48L5.40889 28.87Z" fill="white"/>
<path d="M2.7989 31.48L10.6289 31.48L10.6289 33.98L2.7989 33.98L2.7989 31.48Z" fill="white"/>
<path d="M8.00893 2.70996L10.7089 2.70996L10.7089 13.14L8.00893 13.14L8.00893 2.70996Z" fill="white"/>
<path d="M28.8289 36.6801L39.4089 36.6801L39.4089 39.2901L28.8289 39.2901L28.8289 36.6801Z" fill="white"/>
<path d="M31.4389 34.0699L42.0189 34.0699L42.0189 36.6799L31.4389 36.6799L31.4389 34.0699Z" fill="white"/>
<path d="M49.9489 23.6201L49.9489 18.41L52.5389 18.46L52.5389 15.9L55.0489 15.9201L55.0689 13.1201L52.4589 13.1201L52.4589 7.97005L55.1389 8.00005L55.1589 5.46005L62.9389 5.46005L62.9589 7.95005L65.4489 7.97005L65.4989 5.31005L68.1089 5.26005L68.1589 2.75005L73.2889 2.68005L73.3189 5.39005L76.0489 5.39005L76.0489 7.98005L78.7589 7.98005L78.7589 5.34005L81.1189 5.32005L81.0689 2.76005L83.8489 2.71005L83.8689 5.29005L89.1889 5.27005L89.1889 7.98005L86.4789 7.98005L86.4789 13.1301L81.2589 13.1301L81.2589 15.9101L83.9689 15.9101L83.9689 18.2301L86.4789 18.2301L86.4789 21.1301L83.9689 21.1301L83.9689 23.4501L86.4789 23.4501L86.4789 26.1601L83.9389 26.1801L83.9189 28.8901L81.2089 28.9101L81.2089 34.0001L75.8489 34.0701L75.8489 36.5801L73.5289 36.5801L73.5289 39.2901L65.6489 39.2901L65.6289 36.6801L62.9889 36.7001L62.9689 34.0401L60.3789 34.0601L60.2389 34.0601L60.2589 36.5701L57.6689 36.5701L57.6689 39.0801L52.5689 39.1L52.5489 34.0801L49.9589 34.0801L49.9389 26.32L52.4989 26.32L52.4989 23.6001L49.9489 23.6001L49.9489 23.6201ZM60.3889 13.1201L60.3889 15.8701L62.9989 15.8701L62.9989 13.1201L60.3889 13.1201ZM73.1489 13.1201L70.8289 13.1201L70.8289 10.4401L62.9989 10.4401L62.9989 13.1201L70.5389 13.1201L70.5389 15.5801L73.1489 15.5801L73.1489 13.1201ZM75.8989 23.4901L75.8989 15.5201L73.2889 15.5201L73.2889 23.4901L75.8989 23.4901ZM70.8289 26.4101L73.4389 26.4101L73.4389 23.8001L70.8289 23.8001L70.8289 26.4101ZM70.8289 18.2701L68.2189 18.2701L68.2189 15.5201L65.6089 15.5201L65.4589 18.1301L62.8489 18.1301L62.8489 21.0301L65.4589 21.0301L65.4589 23.6401L68.2089 23.6401L68.2089 21.0301L70.8189 21.0301L70.8189 18.2701L70.8289 18.2701ZM57.6789 29.1201L60.2389 29.1201L60.2389 31.8501L68.1189 31.8501L68.1189 29.1201L70.7289 29.1201L70.7289 26.5101L68.1189 26.5101L68.1189 29.1001L60.2889 29.1001L60.2889 26.5101L57.6789 26.5101L57.6789 29.1201ZM55.0189 26.39L57.6289 26.3901L57.6289 18.4901L60.0989 18.4901L60.0989 15.8801L57.4889 15.8801L57.4889 18.4201L55.0289 18.4201L55.0289 26.39L55.0189 26.39Z" fill="white"/>
</g>
<defs>
<clipPath id="clip0_36_12917">
<rect width="89.19" height="39.44" fill="white" transform="matrix(-1 -8.74228e-08 -8.74228e-08 1 89.1889 0)"/>
</clipPath>
</defs>
</svg>
