<svg width="168" height="68" viewBox="0 0 168 68" fill="none" xmlns="http://www.w3.org/2000/svg">
<path d="M160.879 34.0135V34V33.9865C163.494 32.9885 166.05 31.0869 167.916 28.6053C166.359 28.1333 164.699 27.9175 163.2 27.8231C161.761 27.7691 160.468 27.8231 159.117 27.9984C159.043 27.877 158.97 27.7557 158.882 27.6343C159.543 26.5823 160.13 25.4494 160.6 24.2626C161.159 22.9139 161.57 21.5248 161.908 20.0682C159.131 20.5672 156.517 21.3899 154.049 22.3745C153.784 22.1587 153.52 21.9294 153.226 21.7136C153.623 19.286 153.814 16.7775 153.814 14.242C151.419 15.3209 149.172 16.5347 146.998 17.8294C146.572 17.6002 146.146 17.3844 145.705 17.1551C145.602 14.7949 145.367 12.4213 145.044 10.0071C142.929 11.3558 140.916 12.7854 138.963 14.2689C138.449 14.0801 137.905 13.8778 137.376 13.689C136.98 11.4098 136.51 9.11702 135.951 6.82428C134.042 8.33479 132.206 9.89925 130.413 11.5042C129.84 11.3423 129.253 11.194 128.665 11.0321C128.063 8.82031 127.402 6.60849 126.668 4.38318C124.905 6.02856 123.216 7.68743 121.57 9.37326C120.953 9.25188 120.336 9.1305 119.719 9.00912C118.956 6.85125 118.148 4.70686 117.266 2.56248C115.636 4.27529 114.079 6.04205 112.536 7.79532C111.905 7.70091 111.273 7.60651 110.627 7.5121C109.731 5.42166 108.79 3.31773 107.792 1.24078C106.279 3.048 104.824 4.85522 103.414 6.67592C102.768 6.60849 102.107 6.56803 101.46 6.5006C100.447 4.45062 99.3892 2.41412 98.2874 0.391115C96.8773 2.23879 95.5258 4.12693 94.2038 6.01507C93.5427 5.9881 92.8964 5.94764 92.2207 5.92067C91.0749 3.96509 89.9291 1.98255 88.7246 0C87.4172 1.91511 86.1686 3.8572 84.9494 5.79929C84.6262 5.79929 84.303 5.7858 83.9799 5.7858C83.642 5.7858 83.3042 5.79929 82.981 5.79929C81.7618 3.8572 80.4985 1.91511 79.2058 0C78.0012 1.99603 76.8555 3.96509 75.7244 5.94764C75.0633 5.97461 74.4023 6.00159 73.756 6.04205C72.4339 4.15391 71.0825 2.26577 69.6723 0.418088C68.5706 2.44109 67.5129 4.47759 66.4994 6.52757C65.853 6.58152 65.192 6.63546 64.5457 6.7029C63.1208 4.8687 61.6665 3.06148 60.1535 1.25426C59.1546 3.33122 58.2292 5.43514 57.3184 7.52559C56.6721 7.60651 56.0404 7.7144 55.4088 7.79532C53.8811 6.02856 52.3093 4.2618 50.6788 2.54899C49.7974 4.69338 48.9895 6.85125 48.2256 9.00912C47.6087 9.1305 46.9917 9.25188 46.3748 9.37326C44.7148 7.68743 43.0255 6.02856 41.2628 4.36969C40.5283 6.595 39.8673 8.80682 39.265 11.0321C38.6775 11.1805 38.0899 11.3423 37.517 11.5042C35.7249 9.91273 33.8887 8.33479 31.979 6.82428C31.4062 9.11702 30.9508 11.4098 30.5395 13.7025C30.0106 13.8913 29.4818 14.0801 28.9677 14.2689C26.9993 12.7989 24.9868 11.3558 22.8716 10.0071C22.5337 12.4213 22.2987 14.7949 22.1958 17.1686C21.7551 17.3844 21.3438 17.6002 20.9178 17.8294C18.7291 16.5347 16.4816 15.3074 14.0872 14.2285C14.0872 16.7775 14.2782 19.286 14.6748 21.7271C14.3957 21.9429 14.146 22.1587 13.8816 22.3745C11.3991 21.3899 8.78432 20.5672 5.99332 20.0547C6.33117 21.4978 6.74248 22.8869 7.30068 24.2491C7.77075 25.4359 8.35833 26.5823 9.03404 27.6478C8.9606 27.7557 8.88715 27.877 8.8137 27.9849C7.46227 27.8096 6.1549 27.7557 4.70064 27.8096C3.217 27.904 1.55709 28.1198 0 28.5918C1.86557 31.0869 4.43623 33.002 7.06565 34C4.43623 34.998 1.86557 36.8996 0 39.3947C1.55709 39.8667 3.217 40.0825 4.71533 40.1769C6.16959 40.2309 7.47696 40.1769 8.82839 40.0016C8.90184 40.1095 8.97528 40.2309 9.04873 40.3388C8.3877 41.4042 7.78543 42.5506 7.31537 43.7374C6.75717 45.0861 6.34586 46.4752 6.00801 47.9318C8.79901 47.4193 11.4137 46.5966 13.8963 45.6121C14.1607 45.8278 14.4104 46.0436 14.6895 46.2594C14.2929 48.687 14.1019 51.209 14.1019 53.758C16.511 52.6791 18.7585 51.4518 20.9325 50.1571C21.3585 50.3729 21.7698 50.6021 22.2105 50.8179C22.3134 53.1916 22.5484 55.5653 22.8862 57.9794C25.0015 56.6172 27.0287 55.1876 28.9824 53.7176C29.4965 53.9064 30.0253 54.0952 30.5542 54.284C30.9508 56.5768 31.4208 58.8695 31.9937 61.1622C33.9034 59.6382 35.7396 58.0738 37.5317 56.4823C38.1046 56.6442 38.6921 56.7925 39.2797 56.9544C39.882 59.1797 40.543 61.378 41.2775 63.6168C43.0402 61.9714 44.7295 60.3126 46.3894 58.6133C47.0064 58.7346 47.6087 58.856 48.2403 58.9774C49.0042 61.1353 49.8121 63.2797 50.6935 65.4375C52.324 63.7247 53.8958 61.958 55.4235 60.1912C56.0551 60.2856 56.6868 60.38 57.3331 60.4609C58.2292 62.5514 59.1693 64.6553 60.1682 66.7323C61.6812 64.925 63.1355 63.1178 64.5603 61.2836C65.2067 61.3511 65.8677 61.3915 66.5141 61.4589C67.5276 63.5089 68.5853 65.5454 69.687 67.5684C71.0972 65.7207 72.4486 63.8326 73.7707 61.9445C74.4317 61.9714 75.078 62.0119 75.7391 62.0389C76.8702 64.0349 78.0159 66.004 79.2205 68C80.5278 66.0849 81.7765 64.1428 82.9957 62.2007C83.3335 62.2007 83.6714 62.2142 83.9946 62.2142C84.3177 62.2142 84.6409 62.2007 84.9641 62.2007C86.1833 64.1428 87.4466 66.0849 88.7393 68C89.9438 66.0175 91.0896 64.0349 92.2207 62.0524C92.8817 62.0254 93.5427 61.9984 94.2038 61.958C95.5258 63.8461 96.8773 65.7342 98.2874 67.5819C99.3892 65.5589 100.432 63.5224 101.46 61.4724C102.121 61.4185 102.768 61.3645 103.414 61.2971C104.839 63.1313 106.293 64.9385 107.806 66.7323C108.805 64.6553 109.731 62.5514 110.641 60.4609C111.288 60.38 111.919 60.2721 112.551 60.1777C114.079 61.9445 115.65 63.6977 117.281 65.4106C118.148 63.2662 118.956 61.1218 119.734 58.9639C120.351 58.8425 120.968 58.7211 121.585 58.5998C123.245 60.2856 124.92 61.9445 126.682 63.5898C127.417 61.3645 128.078 59.1527 128.68 56.9409C129.268 56.7925 129.855 56.6307 130.428 56.4689C132.22 58.0603 134.056 59.6248 135.966 61.1488C136.539 58.856 136.994 56.5633 137.391 54.284C137.92 54.0952 138.463 53.9064 138.977 53.7041C140.931 55.1741 142.944 56.6037 145.059 57.9659C145.397 55.5518 145.632 53.1916 145.72 50.8179C146.161 50.6021 146.587 50.3729 147.013 50.1436C149.187 51.4383 151.434 52.6521 153.828 53.7311C153.828 51.1956 153.637 48.687 153.241 46.2594C153.52 46.0436 153.784 45.8279 154.063 45.5986C156.531 46.5831 159.146 47.4058 161.922 47.9048C161.585 46.4617 161.173 45.0726 160.615 43.7104C160.16 42.5371 159.557 41.4042 158.896 40.3388C158.97 40.2174 159.058 40.096 159.131 39.9746C160.468 40.1499 161.775 40.2039 163.215 40.1499C164.728 40.0555 166.373 39.8263 167.93 39.3677C166.05 36.9131 163.494 35.0115 160.879 34.0135Z" fill="#0D1351"/>
</svg>
