<svg width="19" height="19" viewBox="0 0 19 19" fill="none" xmlns="http://www.w3.org/2000/svg">
<path fill-rule="evenodd" clip-rule="evenodd" d="M17.3259 10.6666C16.5298 15.0126 12.3614 17.8904 8.0154 17.0943C3.66943 16.2983 0.791641 12.1298 1.58768 7.78387C2.38373 3.43789 6.55216 0.560104 10.8981 1.35615C15.2441 2.15219 18.1219 6.32062 17.3259 10.6666ZM18.3095 10.8468C17.4139 15.736 12.7245 18.9735 7.83523 18.0779C2.94601 17.1824 -0.2915 12.4929 0.60405 7.60369C1.4996 2.71447 6.18908 -0.523037 11.0783 0.372513C15.9675 1.26806 19.205 5.95755 18.3095 10.8468ZM11.0296 3.41367C11.0793 3.14205 10.8995 2.88152 10.6278 2.83177C10.3562 2.78202 10.0957 2.96188 10.0459 3.2335L8.96492 9.13532L8.92349 9.36152L9.06827 9.54019L12.5509 13.838C12.7248 14.0525 13.0396 14.0855 13.2542 13.9117C13.4687 13.7378 13.5017 13.423 13.3279 13.2084L9.98999 9.08928L11.0296 3.41367Z" fill="white"/>
</svg>
