<svg width="768" height="46" viewBox="0 0 768 46" fill="none" xmlns="http://www.w3.org/2000/svg">
<mask id="mask0_60_6661" style="mask-type:alpha" maskUnits="userSpaceOnUse" x="-203" y="0" width="344" height="46">
<rect x="-203" width="344" height="46" fill="#D9D9D9"/>
</mask>
<g mask="url(#mask0_60_6661)">
<path d="M12.1103 4.71973H-18.0225V41.9397H12.1103V4.71973Z" fill="#FAB710"/>
<path d="M25.5968 42.2497H29.2342V38.6597H32.6132V35.3897H35.8631V31.9797H39.3713V28.5797H42.6211V25.0597H46.0001V21.5897H42.7205V18.3197H39.3414V14.7897H36.0022V11.5197H32.7027V8.11973H29.3237V4.71973H25.8453V8.04973H22.347V11.4597H18.968V14.6697H15.7083V18.3797H12.21V21.6597H8.82104V25.1197H12.2994V28.5197H15.6784V31.7897H19.0574V35.1997H22.4365V38.5997L25.5869 38.6297L25.5968 42.2497Z" fill="#FAB710"/>
<path d="M15.6783 25.1898H12.2993V21.6598H15.5491V18.3798H19.1865V14.9798H22.5655V11.4598H25.9445V8.0498H29.3236V11.3298H32.7026L32.7622 14.9798H36.0021V18.1498L39.3413 18.1298V21.7798H42.7203V25.0598H39.3413V28.5798H35.8331V31.9798H32.7026V35.3898H29.1944V38.6598H25.8154V35.2598H22.4363V31.8598H19.0573V28.4598H15.6783V25.1898Z" fill="#000055"/>
<path d="M25.9445 14.8604H22.4363V18.3904H25.9445V14.8604Z" fill="#FAB710"/>
<path d="M25.8551 28.3604H22.3469V31.8904H25.8551V28.3604Z" fill="#FAB710"/>
<path d="M19.276 35.1699H15.7678V38.6999H19.276V35.1699Z" fill="#FAB710"/>
<path d="M15.7182 38.3799H12.21V41.9099H15.7182V38.3799Z" fill="#FAB710"/>
<path d="M15.7182 4.75H12.21V8.28H15.7182V4.75Z" fill="#FAB710"/>
<path d="M19.276 7.95996H15.7678V11.49H19.276V7.95996Z" fill="#FAB710"/>
<path d="M32.6032 28.46H29.105V31.99H32.6032V28.46Z" fill="#FAB710"/>
<path d="M32.7025 14.9805H29.1943V18.5105H32.7025V14.9805Z" fill="#FAB710"/>
<path d="M-1.31616 18.2198V7.98984H1.94359V4.58984H12.2098V8.11984H8.95006V11.3898H5.44186V14.7898L2.02309 14.7298V18.2198H-1.31616Z" fill="#000055"/>
<path d="M2.19218 18.4401H5.57119V15.0401H8.9502V11.6401H12.21V8.37012H15.7082V11.5201H18.968V14.9201H15.579V18.3201H12.21V21.7201H2.06299L2.19218 18.4401Z" fill="#000055"/>
<path d="M-1.31616 28.4902V38.7302H1.94359V42.1202H12.2098V38.6002H8.95006V35.3202H5.44186V31.9202L2.02309 31.9902V28.4902H-1.31616Z" fill="#000055"/>
<path d="M2.19218 28.27H5.57119V31.67H8.9502V35.07H12.21V38.35H15.7082V35.2H18.968V31.8H15.579V28.4H12.21V25H2.06299L2.19218 28.27Z" fill="#000055"/>
<path d="M-4.69497 21.5297V18.2197H-1.31596V21.5297H2.06305V24.9297H-1.21658V28.4297H-4.69497V24.9297H-8.07397V21.6297L-4.69497 21.5297Z" fill="#000055"/>
<path d="M39.2021 1H-82.2534V4.53H39.2021V1Z" fill="#000055"/>
<path d="M39.0778 42H-82V45.78H39.0778V42Z" fill="#000055"/>
<path d="M29.4429 21.5303H25.9446V25.0503H29.4429V21.5303Z" fill="#FAB710"/>
<path d="M72.2686 4.53027H42.1357V41.7503H72.2686V4.53027Z" fill="#FAB710"/>
<path d="M58.8817 4.12012H55.3735V7.65012H58.8817V4.12012Z" fill="#000055"/>
<path d="M58.8817 38.4102H55.3735V41.9302H58.8817V38.4102Z" fill="#000055"/>
<path d="M85.7646 42.0603H89.392V38.4703H92.771V35.2003H96.0308V31.7903H99.529V28.4003H102.789V24.8703H106.168V21.4103H102.878V18.1303H99.4992V14.6003H96.1699V11.3303H92.8605V7.93027H89.4914V4.53027H86.013V7.86027H82.5048V11.2703H79.1258V14.4803H75.876V18.1903H72.3678V21.4703H68.9888V24.9303H72.4572V28.3303H75.8362V31.6103H79.2252V35.0103H82.6042V38.4103L85.7447 38.4403L85.7646 42.0603Z" fill="#FAB710"/>
<path d="M75.8363 25.0004H72.4573V21.4704H75.717V18.1904H79.3445V14.7904H82.7235V11.2704H86.1025V7.86035H89.4915V11.1404H92.8605L92.9301 14.7904H96.17V17.9604L99.4993 17.9404V21.5904H102.878V24.8704H99.4993V28.4004H95.9911V31.7904H92.8605V35.2004H89.3623V38.4704H85.9833V35.0704H82.6042V31.6704H79.2252V28.2704H75.8363V25.0004Z" fill="#000055"/>
<path d="M86.1125 14.6699H82.6042V18.1999H86.1125V14.6699Z" fill="#FAB710"/>
<path d="M86.0131 28.1699H82.5049V31.6999H86.0131V28.1699Z" fill="#FAB710"/>
<path d="M79.4438 34.9805H75.9355V38.5105H79.4438V34.9805Z" fill="#FAB710"/>
<path d="M75.8761 38.1895H72.3679V41.7195H75.8761V38.1895Z" fill="#FAB710"/>
<path d="M42.0761 4.56055H38.5679V8.09055H42.0761V4.56055Z" fill="#FAB710"/>
<path d="M38.5082 7.76953H35V11.2995H38.5082V7.76953Z" fill="#FAB710"/>
<path d="M75.8761 4.56055H72.3679V8.09055H75.8761V4.56055Z" fill="#FAB710"/>
<path d="M79.4438 7.76953H75.9355V11.2995H79.4438V7.76953Z" fill="#FAB710"/>
<path d="M35 38.6903L38.5082 38.8804V35.3604H35V38.6903Z" fill="#FAB710"/>
<path d="M42.0761 38.3799H38.5679V41.9099H42.0761V38.3799Z" fill="#FAB710"/>
<path d="M92.7711 28.2695H89.2629V31.7995H92.7711V28.2695Z" fill="#FAB710"/>
<path d="M92.8705 14.79H89.3623V18.32H92.8705V14.79Z" fill="#FAB710"/>
<path d="M58.8518 28.2998V38.5398H62.1016V41.9398H72.3678V38.4098H69.118V35.1298H65.6098V31.7298L62.1811 31.7998V28.2998H58.8518Z" fill="#000055"/>
<path d="M55.5922 28.2998V38.5398H52.3424V41.9398H42.0762V38.4098H45.326V35.1298H48.8342V31.7298L52.2629 31.7998V28.2998H55.5922Z" fill="#000055"/>
<path d="M52.0839 28.3305H48.7049V31.7305H45.3259V35.1405H42.0761V38.4105H38.5679V35.2605H35.3081V31.8605H38.6971V28.4605H42.0761V25.0605H52.2131L52.0839 28.3305Z" fill="#000055"/>
<path d="M62.3502 18.2497H65.7292V14.8597H69.1182V11.4597H72.368V8.17969H75.8762V11.3297H79.126V14.7297H75.747V18.1297H72.368V21.5297H62.231L62.3502 18.2497Z" fill="#000055"/>
<path d="M58.8518 18.0404V7.80039H62.1016V4.40039H72.3678V7.93039H69.118V11.2004H65.6098V14.6004L62.1811 14.5404V18.0404H58.8518Z" fill="#000055"/>
<path d="M55.5922 18.0404V7.80039H52.3424V4.40039H42.0762V7.93039H45.326V11.2004H48.8342V14.6004L52.2629 14.5404V18.0404H55.5922Z" fill="#000055"/>
<path d="M52.0839 17.9997H48.7049V14.5997H45.3259V11.1997H42.0761V7.92969H38.5679V11.0797H35.3081V14.4797H38.6971V17.8797H42.0761V21.2797H52.2131L52.0839 17.9997Z" fill="#000055"/>
<path d="M62.3502 28.0805H65.7292V31.4805H69.1182V34.8805H72.368V38.1605H75.8762V35.0105H79.126V31.6105H75.747V28.2105H72.368V24.8105H62.231L62.3502 28.0805Z" fill="#000055"/>
<path d="M55.4729 21.34V18.04H58.8519V21.34H62.2309V24.74H58.9414V28.24H55.4729V24.74H52.084V21.44L55.4729 21.34Z" fill="#000055"/>
<path d="M133.11 4.71973H102.978V41.9397H133.11V4.71973Z" fill="#FAB710"/>
<path d="M119.724 4.31055H116.216V7.84055H119.724V4.31055Z" fill="#22244B"/>
<path d="M119.724 38.5996H116.216V42.1296H119.724V38.5996Z" fill="#000055"/>
<path d="M146.597 42.2497H150.234V38.6597H153.613V35.3897H156.863V31.9797H160.371V28.5797H163.621V25.0597H167V21.5897H163.72V18.3197H160.341V14.7897H157.002V11.5197H153.703V8.11973H150.324V4.71973H146.845V8.04973H143.347V11.4597H139.968V14.6697H136.708V18.3797H133.21V21.6597H129.821V25.1197H133.299V28.5197H136.678V31.7897H140.057V35.1997H143.436V38.5997L146.587 38.6297L146.597 42.2497Z" fill="#FAB710"/>
<path d="M136.678 25.1898H133.299V21.6598H136.549V18.3798H140.187V14.9798H143.566V11.4598H146.945V8.0498H150.324V11.3298H153.703L153.762 14.9798H157.002V18.1498L160.341 18.1298V21.7798H163.72V25.0598H160.341V28.5798H156.833V31.9798H153.703V35.3898H150.194V38.6598H146.815V35.2598H143.436V31.8598H140.057V28.4598H136.678V25.1898Z" fill="#000055"/>
<path d="M140.276 35.1699H136.768V38.6999H140.276V35.1699Z" fill="#FAB710"/>
<path d="M136.718 38.3799H133.21V41.9099H136.718V38.3799Z" fill="#FAB710"/>
<path d="M102.908 4.75H99.3999V8.28H102.908V4.75Z" fill="#FAB710"/>
<path d="M99.3502 7.95996H95.842V11.49H99.3502V7.95996Z" fill="#FAB710"/>
<path d="M136.718 4.75H133.21V8.28H136.718V4.75Z" fill="#FAB710"/>
<path d="M140.276 7.95996H136.768V11.49H140.276V7.95996Z" fill="#FAB710"/>
<path d="M95.842 38.88L99.3403 39.07V35.54H95.842V38.88Z" fill="#FAB710"/>
<path d="M102.908 38.5703H99.3999V42.1003H102.908V38.5703Z" fill="#FAB710"/>
<path d="M119.684 18.2198V7.98984H122.944V4.58984H133.21V8.11984H129.95V11.3898H126.442V14.7898L123.023 14.7298V18.2198H119.684Z" fill="#000055"/>
<path d="M116.434 18.2198V7.98984H113.174V4.58984H102.908V8.11984H106.168V11.3898H109.666V14.7898L113.095 14.7298V18.2198H116.434Z" fill="#000055"/>
<path d="M123.192 18.4401H126.571V15.0401H129.95V11.6401H133.21V8.37012H136.708V11.5201H139.968V14.9201H136.579V18.3201H133.21V21.7201H123.063L123.192 18.4401Z" fill="#000055"/>
<path d="M112.926 18.1901H109.547V14.7901H106.168V11.3901H102.908V8.12012H99.4V11.2701H96.1501V14.6701H99.5292V18.0701H102.908V21.4701H113.045L112.926 18.1901Z" fill="#000055"/>
<path d="M119.684 28.4902V38.7302H122.944V42.1202H133.21V38.6002H129.95V35.3202H126.442V31.9202L123.023 31.9902V28.4902H119.684Z" fill="#000055"/>
<path d="M116.434 28.4902V38.7302H113.174V42.1202H102.908V38.6002H106.168V35.3202H109.666V31.9202L113.095 31.9902V28.4902H116.434Z" fill="#000055"/>
<path d="M123.192 28.27H126.571V31.67H129.95V35.07H133.21V38.35H136.708V35.2H139.968V31.8H136.579V28.4H133.21V25H123.063L123.192 28.27Z" fill="#000055"/>
<path d="M112.926 28.52H109.547V31.92H106.168V35.33H102.908V38.6H99.4V35.45H96.1501V32.05H99.5292V28.65H102.908V25.25H113.045L112.926 28.52Z" fill="#000055"/>
<path d="M116.305 21.5297V18.2197H119.684V21.5297H123.063V24.9297H119.783V28.4297H116.305V24.9297H112.926V21.6297L116.305 21.5297Z" fill="#000055"/>
<path d="M160.202 1H38.7466V4.53H160.202V1Z" fill="#000055"/>
<path d="M160.078 42H39V45.78H160.078V42Z" fill="#000055"/>
<path d="M89.3225 21.5303H85.8242V25.0503H89.3225V21.5303Z" fill="#FAB710"/>
</g>
<mask id="mask1_60_6661" style="mask-type:alpha" maskUnits="userSpaceOnUse" x="135" y="0" width="344" height="46">
<rect x="135" width="344" height="46" fill="#D9D9D9"/>
</mask>
<g mask="url(#mask1_60_6661)">
<path d="M168.269 4.53027H138.136V41.7503H168.269V4.53027Z" fill="#FAB710"/>
<path d="M154.882 4.12012H151.374V7.65012H154.882V4.12012Z" fill="#000055"/>
<path d="M154.882 38.4102H151.374V41.9302H154.882V38.4102Z" fill="#000055"/>
<path d="M181.765 42.0603H185.392V38.4703H188.771V35.2003H192.031V31.7903H195.529V28.4003H198.789V24.8703H202.168V21.4103H198.878V18.1303H195.499V14.6003H192.17V11.3303H188.86V7.93027H185.491V4.53027H182.013V7.86027H178.505V11.2703H175.126V14.4803H171.876V18.1903H168.368V21.4703H164.989V24.9303H168.457V28.3303H171.836V31.6103H175.225V35.0103H178.604V38.4103L181.745 38.4403L181.765 42.0603Z" fill="#FAB710"/>
<path d="M171.836 25.0004H168.457V21.4704H171.717V18.1904H175.344V14.7904H178.724V11.2704H182.103V7.86035H185.491V11.1404H188.861L188.93 14.7904H192.17V17.9604L195.499 17.9404V21.5904H198.878V24.8704H195.499V28.4004H191.991V31.7904H188.861V35.2004H185.362V38.4704H181.983V35.0704H178.604V31.6704H175.225V28.2704H171.836V25.0004Z" fill="#000055"/>
<path d="M182.112 14.6699H178.604V18.1999H182.112V14.6699Z" fill="#FAB710"/>
<path d="M182.013 28.1699H178.505V31.6999H182.013V28.1699Z" fill="#FAB710"/>
<path d="M175.444 34.9805H171.936V38.5105H175.444V34.9805Z" fill="#FAB710"/>
<path d="M171.876 38.1895H168.368V41.7195H171.876V38.1895Z" fill="#FAB710"/>
<path d="M138.076 4.56055H134.568V8.09055H138.076V4.56055Z" fill="#FAB710"/>
<path d="M171.876 4.56055H168.368V8.09055H171.876V4.56055Z" fill="#FAB710"/>
<path d="M175.444 7.76953H171.936V11.2995H175.444V7.76953Z" fill="#FAB710"/>
<path d="M138.076 38.3799H134.568V41.9099H138.076V38.3799Z" fill="#FAB710"/>
<path d="M188.771 28.2695H185.263V31.7995H188.771V28.2695Z" fill="#FAB710"/>
<path d="M188.871 14.79H185.362V18.32H188.871V14.79Z" fill="#FAB710"/>
<path d="M154.852 28.2998V38.5398H158.102V41.9398H168.368V38.4098H165.118V35.1298H161.61V31.7298L158.181 31.7998V28.2998H154.852Z" fill="#000055"/>
<path d="M151.592 28.2998V38.5398H148.342V41.9398H138.076V38.4098H141.326V35.1298H144.834V31.7298L148.263 31.7998V28.2998H151.592Z" fill="#000055"/>
<path d="M148.084 28.3305H144.705V31.7305H141.326V35.1405H138.076V38.4105H134.568V35.2605H131.308V31.8605H134.697V28.4605H138.076V25.0605H148.213L148.084 28.3305Z" fill="#000055"/>
<path d="M158.35 18.2497H161.729V14.8597H165.118V11.4597H168.368V8.17969H171.876V11.3297H175.126V14.7297H171.747V18.1297H168.368V21.5297H158.231L158.35 18.2497Z" fill="#000055"/>
<path d="M154.852 18.0404V7.80039H158.102V4.40039H168.368V7.93039H165.118V11.2004H161.61V14.6004L158.181 14.5404V18.0404H154.852Z" fill="#000055"/>
<path d="M151.592 18.0404V7.80039H148.342V4.40039H138.076V7.93039H141.326V11.2004H144.834V14.6004L148.263 14.5404V18.0404H151.592Z" fill="#000055"/>
<path d="M148.084 17.9997H144.705V14.5997H141.326V11.1997H138.076V7.92969H134.568V11.0797H131.308V14.4797H134.697V17.8797H138.076V21.2797H148.213L148.084 17.9997Z" fill="#000055"/>
<path d="M158.35 28.0805H161.729V31.4805H165.118V34.8805H168.368V38.1605H171.876V35.0105H175.126V31.6105H171.747V28.2105H168.368V24.8105H158.231L158.35 28.0805Z" fill="#000055"/>
<path d="M151.473 21.34V18.04H154.852V21.34H158.231V24.74H154.941V28.24H151.473V24.74H148.084V21.44L151.473 21.34Z" fill="#000055"/>
<path d="M229.11 4.71973H198.978V41.9397H229.11V4.71973Z" fill="#FAB710"/>
<path d="M215.724 4.31055H212.216V7.84055H215.724V4.31055Z" fill="#22244B"/>
<path d="M215.724 38.5996H212.216V42.1296H215.724V38.5996Z" fill="#000055"/>
<path d="M242.597 42.2497H246.234V38.6597H249.613V35.3897H252.863V31.9797H256.371V28.5797H259.621V25.0597H263V21.5897H259.72V18.3197H256.341V14.7897H253.002V11.5197H249.703V8.11973H246.324V4.71973H242.845V8.04973H239.347V11.4597H235.968V14.6697H232.708V18.3797H229.21V21.6597H225.821V25.1197H229.299V28.5197H232.678V31.7897H236.057V35.1997H239.436V38.5997L242.587 38.6297L242.597 42.2497Z" fill="#FAB710"/>
<path d="M232.678 25.1898H229.299V21.6598H232.549V18.3798H236.187V14.9798H239.566V11.4598H242.945V8.0498H246.324V11.3298H249.703L249.762 14.9798H253.002V18.1498L256.341 18.1298V21.7798H259.72V25.0598H256.341V28.5798H252.833V31.9798H249.703V35.3898H246.194V38.6598H242.815V35.2598H239.436V31.8598H236.057V28.4598H232.678V25.1898Z" fill="#000055"/>
<path d="M242.944 14.8604H239.436V18.3904H242.944V14.8604Z" fill="#FAB710"/>
<path d="M242.855 28.3604H239.347V31.8904H242.855V28.3604Z" fill="#FAB710"/>
<path d="M236.276 35.1699H232.768V38.6999H236.276V35.1699Z" fill="#FAB710"/>
<path d="M232.718 38.3799H229.21V41.9099H232.718V38.3799Z" fill="#FAB710"/>
<path d="M198.908 4.75H195.4V8.28H198.908V4.75Z" fill="#FAB710"/>
<path d="M195.35 7.95996H191.842V11.49H195.35V7.95996Z" fill="#FAB710"/>
<path d="M232.718 4.75H229.21V8.28H232.718V4.75Z" fill="#FAB710"/>
<path d="M236.276 7.95996H232.768V11.49H236.276V7.95996Z" fill="#FAB710"/>
<path d="M191.842 38.88L195.34 39.07V35.54H191.842V38.88Z" fill="#FAB710"/>
<path d="M198.908 38.5703H195.4V42.1003H198.908V38.5703Z" fill="#FAB710"/>
<path d="M249.603 28.46H246.105V31.99H249.603V28.46Z" fill="#FAB710"/>
<path d="M249.703 14.9805H246.194V18.5105H249.703V14.9805Z" fill="#FAB710"/>
<path d="M215.684 18.2198V7.98984H218.944V4.58984H229.21V8.11984H225.95V11.3898H222.442V14.7898L219.023 14.7298V18.2198H215.684Z" fill="#000055"/>
<path d="M212.434 18.2198V7.98984H209.174V4.58984H198.908V8.11984H202.168V11.3898H205.666V14.7898L209.095 14.7298V18.2198H212.434Z" fill="#000055"/>
<path d="M219.192 18.4401H222.571V15.0401H225.95V11.6401H229.21V8.37012H232.708V11.5201H235.968V14.9201H232.579V18.3201H229.21V21.7201H219.063L219.192 18.4401Z" fill="#000055"/>
<path d="M208.926 18.1901H205.547V14.7901H202.168V11.3901H198.908V8.12012H195.4V11.2701H192.15V14.6701H195.529V18.0701H198.908V21.4701H209.045L208.926 18.1901Z" fill="#000055"/>
<path d="M215.684 28.4902V38.7302H218.944V42.1202H229.21V38.6002H225.95V35.3202H222.442V31.9202L219.023 31.9902V28.4902H215.684Z" fill="#000055"/>
<path d="M212.434 28.4902V38.7302H209.174V42.1202H198.908V38.6002H202.168V35.3202H205.666V31.9202L209.095 31.9902V28.4902H212.434Z" fill="#000055"/>
<path d="M219.192 28.27H222.571V31.67H225.95V35.07H229.21V38.35H232.708V35.2H235.968V31.8H232.579V28.4H229.21V25H219.063L219.192 28.27Z" fill="#000055"/>
<path d="M208.926 28.52H205.547V31.92H202.168V35.33H198.908V38.6H195.4V35.45H192.15V32.05H195.529V28.65H198.908V25.25H209.045L208.926 28.52Z" fill="#000055"/>
<path d="M212.305 21.5297V18.2197H215.684V21.5297H219.063V24.9297H215.783V28.4297H212.305V24.9297H208.926V21.6297L212.305 21.5297Z" fill="#000055"/>
<path d="M256.202 1H134.747V4.53H256.202V1Z" fill="#000055"/>
<path d="M256.078 42H135V45.78H256.078V42Z" fill="#000055"/>
<path d="M185.322 21.5303H181.824V25.0503H185.322V21.5303Z" fill="#FAB710"/>
<path d="M246.443 21.5303H242.945V25.0503H246.443V21.5303Z" fill="#FAB710"/>
<path d="M289.269 4.53027H259.136V41.7503H289.269V4.53027Z" fill="#FAB710"/>
<path d="M275.882 4.12012H272.374V7.65012H275.882V4.12012Z" fill="#000055"/>
<path d="M275.882 38.4102H272.374V41.9302H275.882V38.4102Z" fill="#000055"/>
<path d="M302.765 42.0603H306.392V38.4703H309.771V35.2003H313.031V31.7903H316.529V28.4003H319.789V24.8703H323.168V21.4103H319.878V18.1303H316.499V14.6003H313.17V11.3303H309.86V7.93027H306.491V4.53027H303.013V7.86027H299.505V11.2703H296.126V14.4803H292.876V18.1903H289.368V21.4703H285.989V24.9303H289.457V28.3303H292.836V31.6103H296.225V35.0103H299.604V38.4103L302.745 38.4403L302.765 42.0603Z" fill="#FAB710"/>
<path d="M292.836 25.0004H289.457V21.4704H292.717V18.1904H296.344V14.7904H299.724V11.2704H303.103V7.86035H306.491V11.1404H309.861L309.93 14.7904H313.17V17.9604L316.499 17.9404V21.5904H319.878V24.8704H316.499V28.4004H312.991V31.7904H309.861V35.2004H306.362V38.4704H302.983V35.0704H299.604V31.6704H296.225V28.2704H292.836V25.0004Z" fill="#000055"/>
<path d="M303.112 14.6699H299.604V18.1999H303.112V14.6699Z" fill="#FAB710"/>
<path d="M303.013 28.1699H299.505V31.6999H303.013V28.1699Z" fill="#FAB710"/>
<path d="M296.444 34.9805H292.936V38.5105H296.444V34.9805Z" fill="#FAB710"/>
<path d="M292.876 38.1895H289.368V41.7195H292.876V38.1895Z" fill="#FAB710"/>
<path d="M259.076 4.56055H255.568V8.09055H259.076V4.56055Z" fill="#FAB710"/>
<path d="M255.508 7.76953H252V11.2995H255.508V7.76953Z" fill="#FAB710"/>
<path d="M292.876 4.56055H289.368V8.09055H292.876V4.56055Z" fill="#FAB710"/>
<path d="M296.444 7.76953H292.936V11.2995H296.444V7.76953Z" fill="#FAB710"/>
<path d="M252 38.6903L255.508 38.8804V35.3604H252V38.6903Z" fill="#FAB710"/>
<path d="M259.076 38.3799H255.568V41.9099H259.076V38.3799Z" fill="#FAB710"/>
<path d="M309.771 28.2695H306.263V31.7995H309.771V28.2695Z" fill="#FAB710"/>
<path d="M309.871 14.79H306.362V18.32H309.871V14.79Z" fill="#FAB710"/>
<path d="M275.852 28.2998V38.5398H279.102V41.9398H289.368V38.4098H286.118V35.1298H282.61V31.7298L279.181 31.7998V28.2998H275.852Z" fill="#000055"/>
<path d="M272.592 28.2998V38.5398H269.342V41.9398H259.076V38.4098H262.326V35.1298H265.834V31.7298L269.263 31.7998V28.2998H272.592Z" fill="#000055"/>
<path d="M269.084 28.3305H265.705V31.7305H262.326V35.1405H259.076V38.4105H255.568V35.2605H252.308V31.8605H255.697V28.4605H259.076V25.0605H269.213L269.084 28.3305Z" fill="#000055"/>
<path d="M279.35 18.2497H282.729V14.8597H286.118V11.4597H289.368V8.17969H292.876V11.3297H296.126V14.7297H292.747V18.1297H289.368V21.5297H279.231L279.35 18.2497Z" fill="#000055"/>
<path d="M275.852 18.0404V7.80039H279.102V4.40039H289.368V7.93039H286.118V11.2004H282.61V14.6004L279.181 14.5404V18.0404H275.852Z" fill="#000055"/>
<path d="M272.592 18.0404V7.80039H269.342V4.40039H259.076V7.93039H262.326V11.2004H265.834V14.6004L269.263 14.5404V18.0404H272.592Z" fill="#000055"/>
<path d="M269.084 17.9997H265.705V14.5997H262.326V11.1997H259.076V7.92969H255.568V11.0797H252.308V14.4797H255.697V17.8797H259.076V21.2797H269.213L269.084 17.9997Z" fill="#000055"/>
<path d="M279.35 28.0805H282.729V31.4805H286.118V34.8805H289.368V38.1605H292.876V35.0105H296.126V31.6105H292.747V28.2105H289.368V24.8105H279.231L279.35 28.0805Z" fill="#000055"/>
<path d="M272.473 21.34V18.04H275.852V21.34H279.231V24.74H275.941V28.24H272.473V24.74H269.084V21.44L272.473 21.34Z" fill="#000055"/>
<path d="M350.11 4.71973H319.978V41.9397H350.11V4.71973Z" fill="#FAB710"/>
<path d="M336.724 4.31055H333.216V7.84055H336.724V4.31055Z" fill="#22244B"/>
<path d="M336.724 38.5996H333.216V42.1296H336.724V38.5996Z" fill="#000055"/>
<path d="M363.597 42.2497H367.234V38.6597H370.613V35.3897H373.863V31.9797H377.371V28.5797H380.621V25.0597H384V21.5897H380.72V18.3197H377.341V14.7897H374.002V11.5197H370.703V8.11973H367.324V4.71973H363.845V8.04973H360.347V11.4597H356.968V14.6697H353.708V18.3797H350.21V21.6597H346.821V25.1197H350.299V28.5197H353.678V31.7897H357.057V35.1997H360.436V38.5997L363.587 38.6297L363.597 42.2497Z" fill="#FAB710"/>
<path d="M353.678 25.1898H350.299V21.6598H353.549V18.3798H357.187V14.9798H360.566V11.4598H363.945V8.0498H367.324V11.3298H370.703L370.762 14.9798H374.002V18.1498L377.341 18.1298V21.7798H380.72V25.0598H377.341V28.5798H373.833V31.9798H370.703V35.3898H367.194V38.6598H363.815V35.2598H360.436V31.8598H357.057V28.4598H353.678V25.1898Z" fill="#000055"/>
<path d="M363.944 14.8604H360.436V18.3904H363.944V14.8604Z" fill="#FAB710"/>
<path d="M363.855 28.3604H360.347V31.8904H363.855V28.3604Z" fill="#FAB710"/>
<path d="M357.276 35.1699H353.768V38.6999H357.276V35.1699Z" fill="#FAB710"/>
<path d="M353.718 38.3799H350.21V41.9099H353.718V38.3799Z" fill="#FAB710"/>
<path d="M319.908 4.75H316.4V8.28H319.908V4.75Z" fill="#FAB710"/>
<path d="M316.35 7.95996H312.842V11.49H316.35V7.95996Z" fill="#FAB710"/>
<path d="M353.718 4.75H350.21V8.28H353.718V4.75Z" fill="#FAB710"/>
<path d="M357.276 7.95996H353.768V11.49H357.276V7.95996Z" fill="#FAB710"/>
<path d="M312.842 38.88L316.34 39.07V35.54H312.842V38.88Z" fill="#FAB710"/>
<path d="M319.908 38.5703H316.4V42.1003H319.908V38.5703Z" fill="#FAB710"/>
<path d="M370.603 28.46H367.105V31.99H370.603V28.46Z" fill="#FAB710"/>
<path d="M370.703 14.9805H367.194V18.5105H370.703V14.9805Z" fill="#FAB710"/>
<path d="M336.684 18.2198V7.98984H339.944V4.58984H350.21V8.11984H346.95V11.3898H343.442V14.7898L340.023 14.7298V18.2198H336.684Z" fill="#000055"/>
<path d="M333.434 18.2198V7.98984H330.174V4.58984H319.908V8.11984H323.168V11.3898H326.666V14.7898L330.095 14.7298V18.2198H333.434Z" fill="#000055"/>
<path d="M340.192 18.4401H343.571V15.0401H346.95V11.6401H350.21V8.37012H353.708V11.5201H356.968V14.9201H353.579V18.3201H350.21V21.7201H340.063L340.192 18.4401Z" fill="#000055"/>
<path d="M329.926 18.1901H326.547V14.7901H323.168V11.3901H319.908V8.12012H316.4V11.2701H313.15V14.6701H316.529V18.0701H319.908V21.4701H330.045L329.926 18.1901Z" fill="#000055"/>
<path d="M336.684 28.4902V38.7302H339.944V42.1202H350.21V38.6002H346.95V35.3202H343.442V31.9202L340.023 31.9902V28.4902H336.684Z" fill="#000055"/>
<path d="M333.434 28.4902V38.7302H330.174V42.1202H319.908V38.6002H323.168V35.3202H326.666V31.9202L330.095 31.9902V28.4902H333.434Z" fill="#000055"/>
<path d="M340.192 28.27H343.571V31.67H346.95V35.07H350.21V38.35H353.708V35.2H356.968V31.8H353.579V28.4H350.21V25H340.063L340.192 28.27Z" fill="#000055"/>
<path d="M329.926 28.52H326.547V31.92H323.168V35.33H319.908V38.6H316.4V35.45H313.15V32.05H316.529V28.65H319.908V25.25H330.045L329.926 28.52Z" fill="#000055"/>
<path d="M333.305 21.5297V18.2197H336.684V21.5297H340.063V24.9297H336.783V28.4297H333.305V24.9297H329.926V21.6297L333.305 21.5297Z" fill="#000055"/>
<path d="M377.202 1H255.747V4.53H377.202V1Z" fill="#000055"/>
<path d="M377.078 42H256V45.78H377.078V42Z" fill="#000055"/>
<path d="M306.322 21.5303H302.824V25.0503H306.322V21.5303Z" fill="#FAB710"/>
<path d="M367.443 21.5303H363.945V25.0503H367.443V21.5303Z" fill="#FAB710"/>
<path d="M410.269 4.53027H380.136V41.7503H410.269V4.53027Z" fill="#FAB710"/>
<path d="M396.882 4.12012H393.374V7.65012H396.882V4.12012Z" fill="#000055"/>
<path d="M396.882 38.4102H393.374V41.9302H396.882V38.4102Z" fill="#000055"/>
<path d="M423.765 42.0603H427.392V38.4703H430.771V35.2003H434.031V31.7903H437.529V28.4003H440.789V24.8703H444.168V21.4103H440.878V18.1303H437.499V14.6003H434.17V11.3303H430.86V7.93027H427.491V4.53027H424.013V7.86027H420.505V11.2703H417.126V14.4803H413.876V18.1903H410.368V21.4703H406.989V24.9303H410.457V28.3303H413.836V31.6103H417.225V35.0103H420.604V38.4103L423.745 38.4403L423.765 42.0603Z" fill="#FAB710"/>
<path d="M413.836 25.0004H410.457V21.4704H413.717V18.1904H417.344V14.7904H420.724V11.2704H424.103V7.86035H427.491V11.1404H430.861L430.93 14.7904H434.17V17.9604L437.499 17.9404V21.5904H440.878V24.8704H437.499V28.4004H433.991V31.7904H430.861V35.2004H427.362V38.4704H423.983V35.0704H420.604V31.6704H417.225V28.2704H413.836V25.0004Z" fill="#000055"/>
<path d="M424.112 14.6699H420.604V18.1999H424.112V14.6699Z" fill="#FAB710"/>
<path d="M424.013 28.1699H420.505V31.6999H424.013V28.1699Z" fill="#FAB710"/>
<path d="M417.444 34.9805H413.936V38.5105H417.444V34.9805Z" fill="#FAB710"/>
<path d="M413.876 38.1895H410.368V41.7195H413.876V38.1895Z" fill="#FAB710"/>
<path d="M380.076 4.56055H376.568V8.09055H380.076V4.56055Z" fill="#FAB710"/>
<path d="M376.508 7.76953H373V11.2995H376.508V7.76953Z" fill="#FAB710"/>
<path d="M413.876 4.56055H410.368V8.09055H413.876V4.56055Z" fill="#FAB710"/>
<path d="M417.444 7.76953H413.936V11.2995H417.444V7.76953Z" fill="#FAB710"/>
<path d="M373 38.6903L376.508 38.8804V35.3604H373V38.6903Z" fill="#FAB710"/>
<path d="M380.076 38.3799H376.568V41.9099H380.076V38.3799Z" fill="#FAB710"/>
<path d="M430.771 28.2695H427.263V31.7995H430.771V28.2695Z" fill="#FAB710"/>
<path d="M430.871 14.79H427.362V18.32H430.871V14.79Z" fill="#FAB710"/>
<path d="M396.852 28.2998V38.5398H400.102V41.9398H410.368V38.4098H407.118V35.1298H403.61V31.7298L400.181 31.7998V28.2998H396.852Z" fill="#000055"/>
<path d="M393.592 28.2998V38.5398H390.342V41.9398H380.076V38.4098H383.326V35.1298H386.834V31.7298L390.263 31.7998V28.2998H393.592Z" fill="#000055"/>
<path d="M390.084 28.3305H386.705V31.7305H383.326V35.1405H380.076V38.4105H376.568V35.2605H373.308V31.8605H376.697V28.4605H380.076V25.0605H390.213L390.084 28.3305Z" fill="#000055"/>
<path d="M400.35 18.2497H403.729V14.8597H407.118V11.4597H410.368V8.17969H413.876V11.3297H417.126V14.7297H413.747V18.1297H410.368V21.5297H400.231L400.35 18.2497Z" fill="#000055"/>
<path d="M396.852 18.0404V7.80039H400.102V4.40039H410.368V7.93039H407.118V11.2004H403.61V14.6004L400.181 14.5404V18.0404H396.852Z" fill="#000055"/>
<path d="M393.592 18.0404V7.80039H390.342V4.40039H380.076V7.93039H383.326V11.2004H386.834V14.6004L390.263 14.5404V18.0404H393.592Z" fill="#000055"/>
<path d="M390.084 17.9997H386.705V14.5997H383.326V11.1997H380.076V7.92969H376.568V11.0797H373.308V14.4797H376.697V17.8797H380.076V21.2797H390.213L390.084 17.9997Z" fill="#000055"/>
<path d="M400.35 28.0805H403.729V31.4805H407.118V34.8805H410.368V38.1605H413.876V35.0105H417.126V31.6105H413.747V28.2105H410.368V24.8105H400.231L400.35 28.0805Z" fill="#000055"/>
<path d="M393.473 21.34V18.04H396.852V21.34H400.231V24.74H396.941V28.24H393.473V24.74H390.084V21.44L393.473 21.34Z" fill="#000055"/>
<path d="M471.11 4.71973H440.978V41.9397H471.11V4.71973Z" fill="#FAB710"/>
<path d="M457.724 4.31055H454.216V7.84055H457.724V4.31055Z" fill="#22244B"/>
<path d="M457.724 38.5996H454.216V42.1296H457.724V38.5996Z" fill="#000055"/>
<path d="M484.597 42.2497H488.234V38.6597H491.613V35.3897H494.863V31.9797H498.371V28.5797H501.621V25.0597H505V21.5897H501.72V18.3197H498.341V14.7897H495.002V11.5197H491.703V8.11973H488.324V4.71973H484.845V8.04973H481.347V11.4597H477.968V14.6697H474.708V18.3797H471.21V21.6597H467.821V25.1197H471.299V28.5197H474.678V31.7897H478.057V35.1997H481.436V38.5997L484.587 38.6297L484.597 42.2497Z" fill="#FAB710"/>
<path d="M474.678 25.1898H471.299V21.6598H474.549V18.3798H478.187V14.9798H481.566V11.4598H484.945V8.0498H488.324V11.3298H491.703L491.762 14.9798H495.002V18.1498L498.341 18.1298V21.7798H501.72V25.0598H498.341V28.5798H494.833V31.9798H491.703V35.3898H488.194V38.6598H484.815V35.2598H481.436V31.8598H478.057V28.4598H474.678V25.1898Z" fill="#000055"/>
<path d="M478.276 35.1699H474.768V38.6999H478.276V35.1699Z" fill="#FAB710"/>
<path d="M474.718 38.3799H471.21V41.9099H474.718V38.3799Z" fill="#FAB710"/>
<path d="M440.908 4.75H437.4V8.28H440.908V4.75Z" fill="#FAB710"/>
<path d="M437.35 7.95996H433.842V11.49H437.35V7.95996Z" fill="#FAB710"/>
<path d="M474.718 4.75H471.21V8.28H474.718V4.75Z" fill="#FAB710"/>
<path d="M478.276 7.95996H474.768V11.49H478.276V7.95996Z" fill="#FAB710"/>
<path d="M433.842 38.88L437.34 39.07V35.54H433.842V38.88Z" fill="#FAB710"/>
<path d="M440.908 38.5703H437.4V42.1003H440.908V38.5703Z" fill="#FAB710"/>
<path d="M457.684 18.2198V7.98984H460.944V4.58984H471.21V8.11984H467.95V11.3898H464.442V14.7898L461.023 14.7298V18.2198H457.684Z" fill="#000055"/>
<path d="M454.434 18.2198V7.98984H451.174V4.58984H440.908V8.11984H444.168V11.3898H447.666V14.7898L451.095 14.7298V18.2198H454.434Z" fill="#000055"/>
<path d="M461.192 18.4401H464.571V15.0401H467.95V11.6401H471.21V8.37012H474.708V11.5201H477.968V14.9201H474.579V18.3201H471.21V21.7201H461.063L461.192 18.4401Z" fill="#000055"/>
<path d="M450.926 18.1901H447.547V14.7901H444.168V11.3901H440.908V8.12012H437.4V11.2701H434.15V14.6701H437.529V18.0701H440.908V21.4701H451.045L450.926 18.1901Z" fill="#000055"/>
<path d="M457.684 28.4902V38.7302H460.944V42.1202H471.21V38.6002H467.95V35.3202H464.442V31.9202L461.023 31.9902V28.4902H457.684Z" fill="#000055"/>
<path d="M454.434 28.4902V38.7302H451.174V42.1202H440.908V38.6002H444.168V35.3202H447.666V31.9202L451.095 31.9902V28.4902H454.434Z" fill="#000055"/>
<path d="M461.192 28.27H464.571V31.67H467.95V35.07H471.21V38.35H474.708V35.2H477.968V31.8H474.579V28.4H471.21V25H461.063L461.192 28.27Z" fill="#000055"/>
<path d="M450.926 28.52H447.547V31.92H444.168V35.33H440.908V38.6H437.4V35.45H434.15V32.05H437.529V28.65H440.908V25.25H451.045L450.926 28.52Z" fill="#000055"/>
<path d="M454.305 21.5297V18.2197H457.684V21.5297H461.063V24.9297H457.783V28.4297H454.305V24.9297H450.926V21.6297L454.305 21.5297Z" fill="#000055"/>
<path d="M498.202 1H376.747V4.53H498.202V1Z" fill="#000055"/>
<path d="M498.078 42H377V45.78H498.078V42Z" fill="#000055"/>
<path d="M427.322 21.5303H423.824V25.0503H427.322V21.5303Z" fill="#FAB710"/>
</g>
<mask id="mask2_60_6661" style="mask-type:alpha" maskUnits="userSpaceOnUse" x="473" y="0" width="344" height="46">
<rect x="473" width="344" height="46" fill="#D9D9D9"/>
</mask>
<g mask="url(#mask2_60_6661)">
<path d="M506.269 4.53027H476.136V41.7503H506.269V4.53027Z" fill="#FAB710"/>
<path d="M492.882 4.12012H489.374V7.65012H492.882V4.12012Z" fill="#000055"/>
<path d="M492.882 38.4102H489.374V41.9302H492.882V38.4102Z" fill="#000055"/>
<path d="M519.765 42.0603H523.392V38.4703H526.771V35.2003H530.031V31.7903H533.529V28.4003H536.789V24.8703H540.168V21.4103H536.878V18.1303H533.499V14.6003H530.17V11.3303H526.86V7.93027H523.491V4.53027H520.013V7.86027H516.505V11.2703H513.126V14.4803H509.876V18.1903H506.368V21.4703H502.989V24.9303H506.457V28.3303H509.836V31.6103H513.225V35.0103H516.604V38.4103L519.745 38.4403L519.765 42.0603Z" fill="#FAB710"/>
<path d="M509.836 25.0004H506.457V21.4704H509.717V18.1904H513.344V14.7904H516.724V11.2704H520.103V7.86035H523.491V11.1404H526.861L526.93 14.7904H530.17V17.9604L533.499 17.9404V21.5904H536.878V24.8704H533.499V28.4004H529.991V31.7904H526.861V35.2004H523.362V38.4704H519.983V35.0704H516.604V31.6704H513.225V28.2704H509.836V25.0004Z" fill="#000055"/>
<path d="M520.112 14.6699H516.604V18.1999H520.112V14.6699Z" fill="#FAB710"/>
<path d="M520.013 28.1699H516.505V31.6999H520.013V28.1699Z" fill="#FAB710"/>
<path d="M513.444 34.9805H509.936V38.5105H513.444V34.9805Z" fill="#FAB710"/>
<path d="M509.876 38.1895H506.368V41.7195H509.876V38.1895Z" fill="#FAB710"/>
<path d="M476.076 4.56055H472.568V8.09055H476.076V4.56055Z" fill="#FAB710"/>
<path d="M509.876 4.56055H506.368V8.09055H509.876V4.56055Z" fill="#FAB710"/>
<path d="M513.444 7.76953H509.936V11.2995H513.444V7.76953Z" fill="#FAB710"/>
<path d="M476.076 38.3799H472.568V41.9099H476.076V38.3799Z" fill="#FAB710"/>
<path d="M526.771 28.2695H523.263V31.7995H526.771V28.2695Z" fill="#FAB710"/>
<path d="M526.871 14.79H523.362V18.32H526.871V14.79Z" fill="#FAB710"/>
<path d="M492.852 28.2998V38.5398H496.102V41.9398H506.368V38.4098H503.118V35.1298H499.61V31.7298L496.181 31.7998V28.2998H492.852Z" fill="#000055"/>
<path d="M489.592 28.2998V38.5398H486.342V41.9398H476.076V38.4098H479.326V35.1298H482.834V31.7298L486.263 31.7998V28.2998H489.592Z" fill="#000055"/>
<path d="M486.084 28.3305H482.705V31.7305H479.326V35.1405H476.076V38.4105H472.568V35.2605H469.308V31.8605H472.697V28.4605H476.076V25.0605H486.213L486.084 28.3305Z" fill="#000055"/>
<path d="M496.35 18.2497H499.729V14.8597H503.118V11.4597H506.368V8.17969H509.876V11.3297H513.126V14.7297H509.747V18.1297H506.368V21.5297H496.231L496.35 18.2497Z" fill="#000055"/>
<path d="M492.852 18.0404V7.80039H496.102V4.40039H506.368V7.93039H503.118V11.2004H499.61V14.6004L496.181 14.5404V18.0404H492.852Z" fill="#000055"/>
<path d="M489.592 18.0404V7.80039H486.342V4.40039H476.076V7.93039H479.326V11.2004H482.834V14.6004L486.263 14.5404V18.0404H489.592Z" fill="#000055"/>
<path d="M486.084 17.9997H482.705V14.5997H479.326V11.1997H476.076V7.92969H472.568V11.0797H469.308V14.4797H472.697V17.8797H476.076V21.2797H486.213L486.084 17.9997Z" fill="#000055"/>
<path d="M496.35 28.0805H499.729V31.4805H503.118V34.8805H506.368V38.1605H509.876V35.0105H513.126V31.6105H509.747V28.2105H506.368V24.8105H496.231L496.35 28.0805Z" fill="#000055"/>
<path d="M489.473 21.34V18.04H492.852V21.34H496.231V24.74H492.941V28.24H489.473V24.74H486.084V21.44L489.473 21.34Z" fill="#000055"/>
<path d="M567.11 4.71973H536.978V41.9397H567.11V4.71973Z" fill="#FAB710"/>
<path d="M553.724 4.31055H550.216V7.84055H553.724V4.31055Z" fill="#22244B"/>
<path d="M553.724 38.5996H550.216V42.1296H553.724V38.5996Z" fill="#000055"/>
<path d="M580.597 42.2497H584.234V38.6597H587.613V35.3897H590.863V31.9797H594.371V28.5797H597.621V25.0597H601V21.5897H597.72V18.3197H594.341V14.7897H591.002V11.5197H587.703V8.11973H584.324V4.71973H580.845V8.04973H577.347V11.4597H573.968V14.6697H570.708V18.3797H567.21V21.6597H563.821V25.1197H567.299V28.5197H570.678V31.7897H574.057V35.1997H577.436V38.5997L580.587 38.6297L580.597 42.2497Z" fill="#FAB710"/>
<path d="M570.678 25.1898H567.299V21.6598H570.549V18.3798H574.187V14.9798H577.566V11.4598H580.945V8.0498H584.324V11.3298H587.703L587.762 14.9798H591.002V18.1498L594.341 18.1298V21.7798H597.72V25.0598H594.341V28.5798H590.833V31.9798H587.703V35.3898H584.194V38.6598H580.815V35.2598H577.436V31.8598H574.057V28.4598H570.678V25.1898Z" fill="#000055"/>
<path d="M580.944 14.8604H577.436V18.3904H580.944V14.8604Z" fill="#FAB710"/>
<path d="M580.855 28.3604H577.347V31.8904H580.855V28.3604Z" fill="#FAB710"/>
<path d="M574.276 35.1699H570.768V38.6999H574.276V35.1699Z" fill="#FAB710"/>
<path d="M570.718 38.3799H567.21V41.9099H570.718V38.3799Z" fill="#FAB710"/>
<path d="M536.908 4.75H533.4V8.28H536.908V4.75Z" fill="#FAB710"/>
<path d="M533.35 7.95996H529.842V11.49H533.35V7.95996Z" fill="#FAB710"/>
<path d="M570.718 4.75H567.21V8.28H570.718V4.75Z" fill="#FAB710"/>
<path d="M574.276 7.95996H570.768V11.49H574.276V7.95996Z" fill="#FAB710"/>
<path d="M529.842 38.88L533.34 39.07V35.54H529.842V38.88Z" fill="#FAB710"/>
<path d="M536.908 38.5703H533.4V42.1003H536.908V38.5703Z" fill="#FAB710"/>
<path d="M587.603 28.46H584.105V31.99H587.603V28.46Z" fill="#FAB710"/>
<path d="M587.703 14.9805H584.194V18.5105H587.703V14.9805Z" fill="#FAB710"/>
<path d="M553.684 18.2198V7.98984H556.944V4.58984H567.21V8.11984H563.95V11.3898H560.442V14.7898L557.023 14.7298V18.2198H553.684Z" fill="#000055"/>
<path d="M550.434 18.2198V7.98984H547.174V4.58984H536.908V8.11984H540.168V11.3898H543.666V14.7898L547.095 14.7298V18.2198H550.434Z" fill="#000055"/>
<path d="M557.192 18.4401H560.571V15.0401H563.95V11.6401H567.21V8.37012H570.708V11.5201H573.968V14.9201H570.579V18.3201H567.21V21.7201H557.063L557.192 18.4401Z" fill="#000055"/>
<path d="M546.926 18.1901H543.547V14.7901H540.168V11.3901H536.908V8.12012H533.4V11.2701H530.15V14.6701H533.529V18.0701H536.908V21.4701H547.045L546.926 18.1901Z" fill="#000055"/>
<path d="M553.684 28.4902V38.7302H556.944V42.1202H567.21V38.6002H563.95V35.3202H560.442V31.9202L557.023 31.9902V28.4902H553.684Z" fill="#000055"/>
<path d="M550.434 28.4902V38.7302H547.174V42.1202H536.908V38.6002H540.168V35.3202H543.666V31.9202L547.095 31.9902V28.4902H550.434Z" fill="#000055"/>
<path d="M557.192 28.27H560.571V31.67H563.95V35.07H567.21V38.35H570.708V35.2H573.968V31.8H570.579V28.4H567.21V25H557.063L557.192 28.27Z" fill="#000055"/>
<path d="M546.926 28.52H543.547V31.92H540.168V35.33H536.908V38.6H533.4V35.45H530.15V32.05H533.529V28.65H536.908V25.25H547.045L546.926 28.52Z" fill="#000055"/>
<path d="M550.305 21.5297V18.2197H553.684V21.5297H557.063V24.9297H553.783V28.4297H550.305V24.9297H546.926V21.6297L550.305 21.5297Z" fill="#000055"/>
<path d="M594.202 1H472.747V4.53H594.202V1Z" fill="#000055"/>
<path d="M594.078 42H473V45.78H594.078V42Z" fill="#000055"/>
<path d="M523.322 21.5303H519.824V25.0503H523.322V21.5303Z" fill="#FAB710"/>
<path d="M584.443 21.5303H580.945V25.0503H584.443V21.5303Z" fill="#FAB710"/>
<path d="M627.269 4.53027H597.136V41.7503H627.269V4.53027Z" fill="#FAB710"/>
<path d="M613.882 4.12012H610.374V7.65012H613.882V4.12012Z" fill="#000055"/>
<path d="M613.882 38.4102H610.374V41.9302H613.882V38.4102Z" fill="#000055"/>
<path d="M640.765 42.0603H644.392V38.4703H647.771V35.2003H651.031V31.7903H654.529V28.4003H657.789V24.8703H661.168V21.4103H657.878V18.1303H654.499V14.6003H651.17V11.3303H647.86V7.93027H644.491V4.53027H641.013V7.86027H637.505V11.2703H634.126V14.4803H630.876V18.1903H627.368V21.4703H623.989V24.9303H627.457V28.3303H630.836V31.6103H634.225V35.0103H637.604V38.4103L640.745 38.4403L640.765 42.0603Z" fill="#FAB710"/>
<path d="M630.836 25.0004H627.457V21.4704H630.717V18.1904H634.344V14.7904H637.724V11.2704H641.103V7.86035H644.491V11.1404H647.861L647.93 14.7904H651.17V17.9604L654.499 17.9404V21.5904H657.878V24.8704H654.499V28.4004H650.991V31.7904H647.861V35.2004H644.362V38.4704H640.983V35.0704H637.604V31.6704H634.225V28.2704H630.836V25.0004Z" fill="#000055"/>
<path d="M641.112 14.6699H637.604V18.1999H641.112V14.6699Z" fill="#FAB710"/>
<path d="M641.013 28.1699H637.505V31.6999H641.013V28.1699Z" fill="#FAB710"/>
<path d="M634.444 34.9805H630.936V38.5105H634.444V34.9805Z" fill="#FAB710"/>
<path d="M630.876 38.1895H627.368V41.7195H630.876V38.1895Z" fill="#FAB710"/>
<path d="M597.076 4.56055H593.568V8.09055H597.076V4.56055Z" fill="#FAB710"/>
<path d="M593.508 7.76953H590V11.2995H593.508V7.76953Z" fill="#FAB710"/>
<path d="M630.876 4.56055H627.368V8.09055H630.876V4.56055Z" fill="#FAB710"/>
<path d="M634.444 7.76953H630.936V11.2995H634.444V7.76953Z" fill="#FAB710"/>
<path d="M590 38.6903L593.508 38.8804V35.3604H590V38.6903Z" fill="#FAB710"/>
<path d="M597.076 38.3799H593.568V41.9099H597.076V38.3799Z" fill="#FAB710"/>
<path d="M647.771 28.2695H644.263V31.7995H647.771V28.2695Z" fill="#FAB710"/>
<path d="M647.871 14.79H644.362V18.32H647.871V14.79Z" fill="#FAB710"/>
<path d="M613.852 28.2998V38.5398H617.102V41.9398H627.368V38.4098H624.118V35.1298H620.61V31.7298L617.181 31.7998V28.2998H613.852Z" fill="#000055"/>
<path d="M610.592 28.2998V38.5398H607.342V41.9398H597.076V38.4098H600.326V35.1298H603.834V31.7298L607.263 31.7998V28.2998H610.592Z" fill="#000055"/>
<path d="M607.084 28.3305H603.705V31.7305H600.326V35.1405H597.076V38.4105H593.568V35.2605H590.308V31.8605H593.697V28.4605H597.076V25.0605H607.213L607.084 28.3305Z" fill="#000055"/>
<path d="M617.35 18.2497H620.729V14.8597H624.118V11.4597H627.368V8.17969H630.876V11.3297H634.126V14.7297H630.747V18.1297H627.368V21.5297H617.231L617.35 18.2497Z" fill="#000055"/>
<path d="M613.852 18.0404V7.80039H617.102V4.40039H627.368V7.93039H624.118V11.2004H620.61V14.6004L617.181 14.5404V18.0404H613.852Z" fill="#000055"/>
<path d="M610.592 18.0404V7.80039H607.342V4.40039H597.076V7.93039H600.326V11.2004H603.834V14.6004L607.263 14.5404V18.0404H610.592Z" fill="#000055"/>
<path d="M607.084 17.9997H603.705V14.5997H600.326V11.1997H597.076V7.92969H593.568V11.0797H590.308V14.4797H593.697V17.8797H597.076V21.2797H607.213L607.084 17.9997Z" fill="#000055"/>
<path d="M617.35 28.0805H620.729V31.4805H624.118V34.8805H627.368V38.1605H630.876V35.0105H634.126V31.6105H630.747V28.2105H627.368V24.8105H617.231L617.35 28.0805Z" fill="#000055"/>
<path d="M610.473 21.34V18.04H613.852V21.34H617.231V24.74H613.941V28.24H610.473V24.74H607.084V21.44L610.473 21.34Z" fill="#000055"/>
<path d="M688.11 4.71973H657.978V41.9397H688.11V4.71973Z" fill="#FAB710"/>
<path d="M674.724 4.31055H671.216V7.84055H674.724V4.31055Z" fill="#22244B"/>
<path d="M674.724 38.5996H671.216V42.1296H674.724V38.5996Z" fill="#000055"/>
<path d="M701.597 42.2497H705.234V38.6597H708.613V35.3897H711.863V31.9797H715.371V28.5797H718.621V25.0597H722V21.5897H718.72V18.3197H715.341V14.7897H712.002V11.5197H708.703V8.11973H705.324V4.71973H701.845V8.04973H698.347V11.4597H694.968V14.6697H691.708V18.3797H688.21V21.6597H684.821V25.1197H688.299V28.5197H691.678V31.7897H695.057V35.1997H698.436V38.5997L701.587 38.6297L701.597 42.2497Z" fill="#FAB710"/>
<path d="M691.678 25.1898H688.299V21.6598H691.549V18.3798H695.187V14.9798H698.566V11.4598H701.945V8.0498H705.324V11.3298H708.703L708.762 14.9798H712.002V18.1498L715.341 18.1298V21.7798H718.72V25.0598H715.341V28.5798H711.833V31.9798H708.703V35.3898H705.194V38.6598H701.815V35.2598H698.436V31.8598H695.057V28.4598H691.678V25.1898Z" fill="#000055"/>
<path d="M701.944 14.8604H698.436V18.3904H701.944V14.8604Z" fill="#FAB710"/>
<path d="M701.855 28.3604H698.347V31.8904H701.855V28.3604Z" fill="#FAB710"/>
<path d="M695.276 35.1699H691.768V38.6999H695.276V35.1699Z" fill="#FAB710"/>
<path d="M691.718 38.3799H688.21V41.9099H691.718V38.3799Z" fill="#FAB710"/>
<path d="M657.908 4.75H654.4V8.28H657.908V4.75Z" fill="#FAB710"/>
<path d="M654.35 7.95996H650.842V11.49H654.35V7.95996Z" fill="#FAB710"/>
<path d="M691.718 4.75H688.21V8.28H691.718V4.75Z" fill="#FAB710"/>
<path d="M695.276 7.95996H691.768V11.49H695.276V7.95996Z" fill="#FAB710"/>
<path d="M650.842 38.88L654.34 39.07V35.54H650.842V38.88Z" fill="#FAB710"/>
<path d="M657.908 38.5703H654.4V42.1003H657.908V38.5703Z" fill="#FAB710"/>
<path d="M708.603 28.46H705.105V31.99H708.603V28.46Z" fill="#FAB710"/>
<path d="M708.703 14.9805H705.194V18.5105H708.703V14.9805Z" fill="#FAB710"/>
<path d="M674.684 18.2198V7.98984H677.944V4.58984H688.21V8.11984H684.95V11.3898H681.442V14.7898L678.023 14.7298V18.2198H674.684Z" fill="#000055"/>
<path d="M671.434 18.2198V7.98984H668.174V4.58984H657.908V8.11984H661.168V11.3898H664.666V14.7898L668.095 14.7298V18.2198H671.434Z" fill="#000055"/>
<path d="M678.192 18.4401H681.571V15.0401H684.95V11.6401H688.21V8.37012H691.708V11.5201H694.968V14.9201H691.579V18.3201H688.21V21.7201H678.063L678.192 18.4401Z" fill="#000055"/>
<path d="M667.926 18.1901H664.547V14.7901H661.168V11.3901H657.908V8.12012H654.4V11.2701H651.15V14.6701H654.529V18.0701H657.908V21.4701H668.045L667.926 18.1901Z" fill="#000055"/>
<path d="M674.684 28.4902V38.7302H677.944V42.1202H688.21V38.6002H684.95V35.3202H681.442V31.9202L678.023 31.9902V28.4902H674.684Z" fill="#000055"/>
<path d="M671.434 28.4902V38.7302H668.174V42.1202H657.908V38.6002H661.168V35.3202H664.666V31.9202L668.095 31.9902V28.4902H671.434Z" fill="#000055"/>
<path d="M678.192 28.27H681.571V31.67H684.95V35.07H688.21V38.35H691.708V35.2H694.968V31.8H691.579V28.4H688.21V25H678.063L678.192 28.27Z" fill="#000055"/>
<path d="M667.926 28.52H664.547V31.92H661.168V35.33H657.908V38.6H654.4V35.45H651.15V32.05H654.529V28.65H657.908V25.25H668.045L667.926 28.52Z" fill="#000055"/>
<path d="M671.305 21.5297V18.2197H674.684V21.5297H678.063V24.9297H674.783V28.4297H671.305V24.9297H667.926V21.6297L671.305 21.5297Z" fill="#000055"/>
<path d="M715.202 1H593.747V4.53H715.202V1Z" fill="#000055"/>
<path d="M715.078 42H594V45.78H715.078V42Z" fill="#000055"/>
<path d="M644.322 21.5303H640.824V25.0503H644.322V21.5303Z" fill="#FAB710"/>
<path d="M705.443 21.5303H701.945V25.0503H705.443V21.5303Z" fill="#FAB710"/>
<path d="M748.269 4.53027H718.136V41.7503H748.269V4.53027Z" fill="#FAB710"/>
<path d="M734.882 4.12012H731.374V7.65012H734.882V4.12012Z" fill="#000055"/>
<path d="M734.882 38.4102H731.374V41.9302H734.882V38.4102Z" fill="#000055"/>
<path d="M761.765 42.0603H765.392V38.4703H768.771V35.2003H772.031V31.7903H775.529V28.4003H778.789V24.8703H782.168V21.4103H778.878V18.1303H775.499V14.6003H772.17V11.3303H768.86V7.93027H765.491V4.53027H762.013V7.86027H758.505V11.2703H755.126V14.4803H751.876V18.1903H748.368V21.4703H744.989V24.9303H748.457V28.3303H751.836V31.6103H755.225V35.0103H758.604V38.4103L761.745 38.4403L761.765 42.0603Z" fill="#FAB710"/>
<path d="M751.836 25.0004H748.457V21.4704H751.717V18.1904H755.344V14.7904H758.724V11.2704H762.103V7.86035H765.491V11.1404H768.861L768.93 14.7904H772.17V17.9604L775.499 17.9404V21.5904H778.878V24.8704H775.499V28.4004H771.991V31.7904H768.861V35.2004H765.362V38.4704H761.983V35.0704H758.604V31.6704H755.225V28.2704H751.836V25.0004Z" fill="#000055"/>
<path d="M762.112 14.6699H758.604V18.1999H762.112V14.6699Z" fill="#FAB710"/>
<path d="M762.013 28.1699H758.505V31.6999H762.013V28.1699Z" fill="#FAB710"/>
<path d="M755.444 34.9805H751.936V38.5105H755.444V34.9805Z" fill="#FAB710"/>
<path d="M751.876 38.1895H748.368V41.7195H751.876V38.1895Z" fill="#FAB710"/>
<path d="M718.076 4.56055H714.568V8.09055H718.076V4.56055Z" fill="#FAB710"/>
<path d="M714.508 7.76953H711V11.2995H714.508V7.76953Z" fill="#FAB710"/>
<path d="M751.876 4.56055H748.368V8.09055H751.876V4.56055Z" fill="#FAB710"/>
<path d="M755.444 7.76953H751.936V11.2995H755.444V7.76953Z" fill="#FAB710"/>
<path d="M711 38.6903L714.508 38.8804V35.3604H711V38.6903Z" fill="#FAB710"/>
<path d="M718.076 38.3799H714.568V41.9099H718.076V38.3799Z" fill="#FAB710"/>
<path d="M768.771 28.2695H765.263V31.7995H768.771V28.2695Z" fill="#FAB710"/>
<path d="M768.871 14.79H765.362V18.32H768.871V14.79Z" fill="#FAB710"/>
<path d="M734.852 28.2998V38.5398H738.102V41.9398H748.368V38.4098H745.118V35.1298H741.61V31.7298L738.181 31.7998V28.2998H734.852Z" fill="#000055"/>
<path d="M731.592 28.2998V38.5398H728.342V41.9398H718.076V38.4098H721.326V35.1298H724.834V31.7298L728.263 31.7998V28.2998H731.592Z" fill="#000055"/>
<path d="M728.084 28.3305H724.705V31.7305H721.326V35.1405H718.076V38.4105H714.568V35.2605H711.308V31.8605H714.697V28.4605H718.076V25.0605H728.213L728.084 28.3305Z" fill="#000055"/>
<path d="M738.35 18.2497H741.729V14.8597H745.118V11.4597H748.368V8.17969H751.876V11.3297H755.126V14.7297H751.747V18.1297H748.368V21.5297H738.231L738.35 18.2497Z" fill="#000055"/>
<path d="M734.852 18.0404V7.80039H738.102V4.40039H748.368V7.93039H745.118V11.2004H741.61V14.6004L738.181 14.5404V18.0404H734.852Z" fill="#000055"/>
<path d="M731.592 18.0404V7.80039H728.342V4.40039H718.076V7.93039H721.326V11.2004H724.834V14.6004L728.263 14.5404V18.0404H731.592Z" fill="#000055"/>
<path d="M728.084 17.9997H724.705V14.5997H721.326V11.1997H718.076V7.92969H714.568V11.0797H711.308V14.4797H714.697V17.8797H718.076V21.2797H728.213L728.084 17.9997Z" fill="#000055"/>
<path d="M738.35 28.0805H741.729V31.4805H745.118V34.8805H748.368V38.1605H751.876V35.0105H755.126V31.6105H751.747V28.2105H748.368V24.8105H738.231L738.35 28.0805Z" fill="#000055"/>
<path d="M731.473 21.34V18.04H734.852V21.34H738.231V24.74H734.941V28.24H731.473V24.74H728.084V21.44L731.473 21.34Z" fill="#000055"/>
<path d="M836.202 1H714.747V4.53H836.202V1Z" fill="#000055"/>
<path d="M836.078 42H715V45.78H836.078V42Z" fill="#000055"/>
<path d="M765.322 21.5303H761.824V25.0503H765.322V21.5303Z" fill="#FAB710"/>
</g>
</svg>
