<svg width="380" height="380" viewBox="0 0 380 380" fill="none" xmlns="http://www.w3.org/2000/svg">
<ellipse cx="190" cy="190" rx="190" ry="190" transform="rotate(-180 190 190)" fill="#FAB710" fill-opacity="0.1"/>
<g filter="url(#filter0_d_197_1773)">
<ellipse cx="190" cy="190" rx="180" ry="180" transform="rotate(-180 190 190)" fill="#FAB710" fill-opacity="0.15" shape-rendering="crispEdges"/>
</g>
<g filter="url(#filter1_d_197_1773)">
<ellipse cx="190" cy="190" rx="168" ry="168" transform="rotate(-180 190 190)" fill="#FAB710" fill-opacity="0.25" shape-rendering="crispEdges"/>
</g>
<g filter="url(#filter2_d_197_1773)">
<ellipse cx="190" cy="190" rx="149" ry="149" transform="rotate(-180 190 190)" fill="#0D1351"/>
</g>
<g clip-path="url(#clip0_197_1773)">
<path d="M291.359 220.512C293.535 212.341 295.406 204.039 295.667 195.52L329.606 197.432C329.214 208.603 326.865 219.643 323.906 230.379L291.359 220.512Z" fill="#0D1351"/>
<path d="M324.646 215.384L325.211 211.602L328.387 212.08L327.778 215.949L324.646 215.384Z" fill="#22244B"/>
<path d="M293.84 209.516L294.275 206.604L297.451 207.082L297.016 210.124L293.84 209.516Z" fill="#22244B"/>
<path d="M287.226 231.074L285.877 233.813L288.836 235.204L287.574 237.855L290.272 239.159L289.01 241.767L291.751 243.201C291.316 244.201 290.794 245.114 290.228 246.026L292.926 247.548L291.316 250.156L294.101 251.807L292.404 254.589L295.058 256.284L296.755 253.502L299.322 255.024L301.106 252.112L303.934 253.676C304.543 252.677 305.152 251.72 305.588 250.634L308.242 252.025L309.765 248.852L312.549 250.243L314.159 246.939L316.987 248.243L318.641 244.766L315.856 243.549C316.422 242.419 316.77 241.158 317.249 239.985L314.377 238.855L315.639 235.464L312.897 234.465L314.072 231.292L310.852 230.205C311.244 229.075 311.723 227.988 312.027 226.858L309.155 225.989L309.982 222.729L306.936 221.903L306.11 225.163L303.151 224.25C302.89 225.294 302.455 226.25 302.107 227.25L299.278 226.293L298.191 229.205L295.275 228.119L294.231 230.944L291.359 229.814C291.011 230.64 290.75 231.509 290.359 232.335L287.226 231.074Z" fill="#0D1351"/>
<path d="M304.891 228.206C305.239 227.162 305.674 226.163 305.979 225.12L309.068 226.076C308.807 227.119 308.372 228.119 308.024 229.118L310.852 230.075L309.59 233.552L312.505 234.638L311.287 237.942L314.289 239.115C313.854 240.245 313.506 241.376 312.984 242.462L315.856 243.679L314.246 246.983L311.548 245.722L309.982 248.982L306.98 247.548L305.5 250.59L302.933 249.243C302.498 250.286 301.889 251.242 301.323 252.198L298.364 250.547L296.624 253.415L294.057 251.894L295.754 249.112L292.925 247.548C293.535 246.635 294.057 245.679 294.492 244.679L291.751 243.245L293.012 240.68L290.228 239.289L291.577 236.464L288.879 235.204L290.141 232.552L293.012 233.769C293.448 232.856 293.709 231.9 294.1 230.944L296.972 232.074L298.016 229.162L300.932 230.249L302.019 227.249L304.891 228.206Z" fill="#FAB60F"/>
<path d="M307.11 239.941C307.632 238.898 307.981 237.725 308.416 236.638L311.418 237.811C310.983 238.942 310.635 240.115 310.113 241.202L307.11 239.941Z" fill="#0D1351"/>
<path d="M295.797 234.986C296.275 234.03 296.537 232.987 296.928 231.987L299.93 233.161C299.539 234.204 299.234 235.247 298.756 236.247L295.797 234.986Z" fill="#0D1351"/>
<path d="M292.099 227.206L293.143 224.337L296.189 225.38L295.144 228.292L292.099 227.206Z" fill="#FAB60F"/>
<path d="M290.401 223.381C290.706 222.468 291.141 221.556 291.359 220.599L294.448 221.556C294.23 222.555 293.752 223.468 293.447 224.424L290.401 223.381Z" fill="#FAB60F"/>
<path d="M326.342 197.172L326.559 193.347L329.779 193.434L329.562 197.345L326.342 197.172Z" fill="#FAB60F"/>
<path d="M323.601 193.216L323.818 189.478H327.038L326.82 193.303L323.601 193.216Z" fill="#FAB60F"/>
<path d="M320.729 229.553C320.424 230.77 319.902 231.944 319.511 233.161L322.557 234.204C322.992 232.987 323.514 231.77 323.818 230.509L320.729 229.553Z" fill="#FAB60F"/>
<path d="M316.726 232.248L315.421 235.769L318.467 236.899L319.772 233.291L316.726 232.248Z" fill="#FAB60F"/>
<path d="M298.756 189.478L298.408 192.521L301.628 192.608L301.802 189.478H298.756Z" fill="#FAB60F"/>
<path d="M295.666 192.521L295.492 195.433L298.712 195.65L298.886 192.608L295.666 192.521Z" fill="#FAB60F"/>
<path d="M293.056 240.506L294.448 237.638L297.363 238.985L295.927 241.941L293.056 240.506Z" fill="#0D1351"/>
<path d="M304.021 246.07L305.587 242.854L308.502 244.201L306.936 247.461L304.021 246.07Z" fill="#0D1351"/>
<path d="M315.29 213.558L324.471 215.296C324.297 216.47 324.08 217.644 323.775 218.774L326.821 219.426L323.949 230.509L320.86 229.553L321.774 226.119L318.902 225.337L319.816 221.729L316.813 220.99L317.77 217.557L314.638 216.861C314.942 215.775 315.16 214.688 315.29 213.558Z" fill="#FAB60F"/>
<path d="M315.812 210.298L325.037 211.819L325.559 208.299L328.648 208.733C328.909 206.864 329.301 204.952 329.432 203.083L329.736 197.389L326.516 197.215L326.342 200.736L323.34 200.475C323.253 201.692 323.296 202.952 323.035 204.169L319.946 203.822L319.467 207.342L316.291 206.908L315.812 210.298Z" fill="#FAB60F"/>
<path d="M314.376 216.992L313.506 220.295L316.508 221.034L315.638 224.424L318.64 225.25L317.77 228.597L320.642 229.466C320.337 230.683 319.815 231.857 319.424 233.074L316.682 232.161L315.508 235.421L312.592 234.334L313.811 231.031L310.852 230.031C311.2 228.945 311.679 227.901 311.983 226.771L309.024 225.859L311.548 216.122L314.376 216.992Z" fill="#FAB60F"/>
<path d="M316.379 206.777L316.901 203.387L319.99 203.735C320.208 202.561 320.164 201.388 320.251 200.258L323.34 200.518L323.515 197.041L326.517 197.215L326.691 193.39L323.819 193.303L323.993 189.826H320.904L320.73 193.347L317.641 193.26L317.466 196.693L314.377 196.52L314.116 201.562C314.029 203.213 313.637 204.865 313.42 206.56L316.379 206.777Z" fill="#FAB60F"/>
<path d="M306.11 211.819L296.929 210.081C296.798 211.037 296.668 211.95 296.363 212.863L293.318 212.211L291.186 220.556L294.275 221.512L294.971 218.774L297.843 219.556L298.626 216.514L301.628 217.253L302.368 214.21L305.501 214.905C305.762 213.862 305.979 212.863 306.11 211.819Z" fill="#FAB60F"/>
<path d="M306.545 208.777L297.32 207.256L297.755 204.474L294.666 204.039C294.84 202.605 295.188 201.214 295.275 199.78L295.493 195.433L298.713 195.607L298.582 198.432L301.584 198.693C301.497 199.736 301.584 200.779 301.367 201.822L304.456 202.17L303.934 205.256L307.11 205.691L306.545 208.777Z" fill="#FAB60F"/>
<path d="M305.631 215.079L304.848 218.165L301.845 217.426L301.062 220.426L298.06 219.6L297.364 222.425L294.492 221.556C294.274 222.555 293.796 223.468 293.491 224.424L296.232 225.337L295.232 228.075L298.147 229.119L299.235 226.206L302.193 227.206C302.542 226.206 302.977 225.25 303.238 224.207L306.196 225.12L308.633 215.644L305.631 215.079Z" fill="#FAB60F"/>
<path d="M307.023 205.517L307.502 202.387L304.412 202.04C304.63 201.04 304.543 199.997 304.63 198.954L301.541 198.693L301.671 195.781L298.669 195.607L298.843 192.564L301.715 192.651L301.889 189.739H304.978L304.804 192.825L307.893 192.912L307.719 196.085L310.809 196.259L310.548 201.127C310.46 202.735 310.112 204.343 309.895 205.951L307.023 205.517Z" fill="#FAB60F"/>
<path d="M312.854 209.69L315.856 210.168L315.334 213.558L312.375 212.993C312.244 214.123 312.027 215.21 311.722 216.253L308.676 215.601C308.981 214.601 309.199 213.558 309.329 212.471L306.196 211.863L306.675 208.646L309.851 209.168L310.33 205.952L313.332 206.343L312.854 209.69Z" fill="#FAB60F"/>
<path d="M265.166 264.021L269.43 259.327L271.562 256.979L273.433 254.415L277.262 249.33C278.48 247.591 279.481 245.722 280.612 243.94L309.765 261.413C308.286 263.803 306.893 266.238 305.327 268.498L300.323 275.191L297.799 278.538L295.015 281.668L289.358 287.84L265.166 264.021Z" fill="#0D1351"/>
<path d="M297.016 274.931L299.278 271.888L301.889 273.844L299.539 276.93L297.016 274.931Z" fill="#FAB60F"/>
<path d="M272.476 255.458L274.26 253.068L276.827 255.024L274.999 257.458L272.476 255.458Z" fill="#FAB60F"/>
<path d="M256.594 271.453L254.158 273.279L256.159 275.887L253.809 277.625L255.593 280.059L253.287 281.798L255.071 284.363C254.245 285.058 253.331 285.58 252.374 286.145L254.071 288.752L251.46 290.317L253.157 293.056L250.372 294.751L251.938 297.489L254.723 295.794L256.29 298.358L259.205 296.576L260.945 299.271C261.946 298.663 262.947 298.097 263.861 297.359L265.557 299.836L268.386 297.75L270.213 300.271L273.172 298.054L275.086 300.532L278.176 298.228L276.261 295.881C277.306 295.142 278.176 294.229 279.133 293.403L277.088 291.056L279.742 288.666L277.784 286.492L280.308 284.232L277.958 281.798C278.828 280.972 279.742 280.277 280.525 279.364L278.393 277.278L280.656 274.8L278.35 272.627L276.087 275.104L273.868 272.931C273.172 273.714 272.302 274.366 271.562 275.104L269.473 272.931L267.167 275.018L265.079 272.714L262.86 274.757L260.815 272.41C260.119 273.018 259.509 273.67 258.77 274.192L256.594 271.453Z" fill="#0D1351"/>
<path d="M273.564 277.104C274.347 276.365 275.217 275.669 275.913 274.887L278.219 277.147C277.523 277.973 276.653 278.625 275.87 279.364L277.958 281.537L275.217 284.015L277.306 286.318L274.695 288.666L276.784 291.1C275.87 291.882 275.043 292.751 274.086 293.447L276.044 295.837L273.085 298.054L271.258 295.707L268.386 297.88L266.384 295.229L263.687 297.228L262.033 294.838C261.163 295.533 260.162 296.098 259.205 296.707L257.378 293.925L254.506 295.663L252.939 293.099L255.724 291.404L253.984 288.709C254.941 288.144 255.855 287.579 256.725 286.883L254.941 284.319L257.247 282.624L255.42 280.103L257.9 278.234L256.072 275.887L258.422 274.148L260.38 276.539C261.207 275.974 261.903 275.191 262.642 274.539L264.687 276.886L266.994 274.8L269.082 277.104L271.432 274.974L273.564 277.104Z" fill="#FAB60F"/>
<path d="M270.126 288.535C271.083 287.883 271.91 286.97 272.824 286.231L274.912 288.665C273.998 289.448 273.172 290.361 272.171 291.056L270.126 288.535Z" fill="#0D1351"/>
<path d="M262.425 278.929C263.295 278.321 264.035 277.495 264.861 276.8L266.95 279.234C266.123 279.929 265.384 280.755 264.47 281.407L262.425 278.929Z" fill="#0D1351"/>
<path d="M262.729 270.323L264.992 268.28L267.211 270.584L264.905 272.714L262.729 270.323Z" fill="#FAB60F"/>
<path d="M262.99 266.107C263.686 265.412 264.513 264.847 265.122 264.064L267.428 266.324C266.776 267.107 265.949 267.715 265.209 268.411L262.99 266.107Z" fill="#FAB60F"/>
<path d="M307.023 259.674L309.025 256.414L311.81 257.979L309.808 261.326L307.023 259.674Z" fill="#FAB60F"/>
<path d="M306.502 254.937C307.198 253.893 307.764 252.807 308.286 251.677L311.158 253.155C310.636 254.328 310.026 255.415 309.33 256.501L306.502 254.937Z" fill="#FAB60F"/>
<path d="M287.009 285.667C286.182 286.623 285.181 287.405 284.268 288.274L286.487 290.578C287.4 289.665 288.445 288.883 289.315 287.883L287.009 285.667Z" fill="#FAB60F"/>
<path d="M282.179 286.231L279.395 288.709L281.57 291.1L284.398 288.535L282.179 286.231Z" fill="#FAB60F"/>
<path d="M286.095 240.028C285.66 240.941 285.095 241.81 284.485 242.593L287.314 244.157C287.879 243.288 288.358 242.375 288.793 241.419L286.095 240.028Z" fill="#FAB60F"/>
<path d="M282.048 241.289L280.525 243.81L283.31 245.461L284.877 242.897L282.048 241.289Z" fill="#FAB60F"/>
<path d="M257.378 282.537L259.945 280.625L261.947 283.189L259.292 285.145L257.378 282.537Z" fill="#0D1351"/>
<path d="M264.557 292.534L267.428 290.404L269.386 292.968L266.471 295.142L264.557 292.534Z" fill="#0D1351"/>
<path d="M289.575 269.02L296.885 274.844C296.146 275.757 295.493 276.756 294.666 277.626L297.059 279.625L289.358 288.057L287.052 285.797L289.445 283.189L287.269 281.146L289.793 278.408L287.487 276.365L289.923 273.757L287.487 271.714C288.27 270.845 288.923 269.889 289.575 269.02Z" fill="#FAB60F"/>
<path d="M291.577 266.368L299.061 272.018L301.193 269.193L303.717 271.019C306.11 268.063 307.937 264.716 309.939 261.456L307.154 259.805L305.327 262.847L302.803 261.239L300.845 264.412L298.278 262.673L296.189 265.499L293.579 263.63L291.577 266.368Z" fill="#FAB60F"/>
<path d="M287.225 271.627L284.919 274.148L287.225 276.191L284.876 278.799L287.138 280.929L284.789 283.493L286.921 285.58C286.094 286.536 285.093 287.318 284.18 288.188L282.178 286.101L279.611 288.448L277.522 286.145L280.133 283.798L278.001 281.537C278.828 280.755 279.742 280.06 280.481 279.19L278.262 277.017L285.006 269.584L287.225 271.627Z" fill="#FAB60F"/>
<path d="M293.709 263.543C294.405 262.63 295.101 261.717 295.754 260.804L298.321 262.543L300.148 259.544L302.759 261.196L304.543 258.24L307.11 259.761L309.068 256.501L306.631 255.067C307.241 254.111 307.806 253.111 308.285 252.024L305.544 250.59C305.065 251.677 304.456 252.676 303.847 253.676L301.149 252.155L299.365 255.11L296.711 253.502C294.927 256.327 293.361 259.327 291.229 261.891L293.709 263.543Z" fill="#FAB60F"/>
<path d="M282.265 263.152L274.955 257.327C274.39 258.066 273.867 258.849 273.215 259.544L270.822 257.545L264.991 263.934L267.297 266.194L269.212 264.108L271.387 266.151L273.476 263.847L275.782 265.89L277.871 263.543L280.307 265.586C281.047 264.89 281.612 264.021 282.265 263.152Z" fill="#FAB60F"/>
<path d="M284.093 260.718L276.609 255.111L278.306 252.85L275.782 251.025C277.653 248.808 278.959 246.244 280.481 243.81L283.266 245.461L281.787 247.852L284.31 249.46L282.701 252.111L285.268 253.85L283.353 256.328L285.964 258.197L284.093 260.718Z" fill="#FAB60F"/>
<path d="M280.351 265.846L278.219 268.194L275.913 266.151L273.824 268.454L271.562 266.325L269.604 268.498L267.472 266.368C266.819 267.15 265.992 267.759 265.253 268.454L267.254 270.541L265.122 272.497L267.211 274.8L269.517 272.714L271.649 274.974C272.432 274.235 273.259 273.583 273.955 272.801L276.174 274.974L282.744 267.715L280.351 265.846Z" fill="#FAB60F"/>
<path d="M286.051 258.066C286.66 257.197 287.356 256.371 287.922 255.502L285.355 253.763L286.965 251.112L284.354 249.46L285.877 246.983L283.31 245.461L284.876 242.853L287.4 244.244C287.922 243.419 288.4 242.593 288.792 241.723L291.533 243.158C291.142 244.114 290.576 244.983 290.054 245.853L292.751 247.374L291.098 250.069L293.752 251.677C292.012 254.415 290.489 257.327 288.444 259.848L286.051 258.066Z" fill="#FAB60F"/>
<path d="M289.227 264.456L291.621 266.281L289.576 269.02L287.226 267.151C286.53 268.02 285.921 268.976 285.137 269.758L282.744 267.759C283.484 267.02 284.093 266.151 284.746 265.282L282.266 263.282L284.224 260.674L286.791 262.587L288.749 259.979L291.229 261.717L289.227 264.456Z" fill="#FAB60F"/>
<path d="M266.21 307.008C285.181 294.794 300.758 277.669 311.984 258.153C323.166 238.55 329.084 216.079 329.823 193.651L333.043 193.738C332.26 216.687 326.255 239.68 314.812 259.718C303.369 279.668 287.4 297.185 267.994 309.659L266.21 307.008Z" fill="#0D1351"/>
<path d="M245.542 275.409C259.379 266.542 270.735 253.981 278.959 239.811C287.182 225.554 291.403 209.255 292.012 192.869L295.449 192.999C294.797 209.95 290.446 226.815 281.917 241.55C273.433 256.197 261.685 269.193 247.369 278.364L245.542 275.409Z" fill="#0D1351"/>
<path d="M300.018 240.245L301.497 237.203L304.456 238.463L302.933 241.593L300.018 240.245Z" fill="#0D1351"/>
<path d="M263.556 285.84L266.297 283.798L268.298 286.319L265.557 288.361L263.556 285.84Z" fill="#0D1351"/>
<path d="M213.562 293.012C217.652 291.969 221.829 291.056 225.745 289.404C227.703 288.622 229.748 288.057 231.706 287.144L237.449 284.363L252.765 314.701L245.194 318.352C242.627 319.482 239.973 320.352 237.362 321.351C232.141 323.481 226.702 324.785 221.263 326.132L213.562 293.012Z" fill="#0D1351"/>
<path d="M234.621 319.265L238.189 317.961L239.364 320.96L235.665 322.308L234.621 319.265Z" fill="#22244B"/>
<path d="M224.353 289.709L227.094 288.709L228.269 291.708L225.397 292.751L224.353 289.709Z" fill="#22244B"/>
<path d="M202.336 294.707C201.335 294.881 200.334 295.055 199.29 295.055L199.595 298.315L196.679 298.445L196.853 301.444L193.938 301.575L194.069 304.661L190.849 304.835L190.892 307.921C189.892 308.008 188.847 307.964 187.847 307.921L187.803 311.137L184.54 310.963L184.409 314.136L187.673 314.31L187.629 317.309C188.76 317.396 189.892 317.44 191.066 317.309L191.11 320.526L194.591 320.352L194.721 323.351L198.246 323.177L198.463 326.263L202.118 326.089L202.379 329.175C203.685 329.132 204.946 328.958 206.208 328.74L205.86 325.698L209.646 325.133L209.211 322.047L212.779 321.482L212.256 318.613L215.607 318.091L214.954 314.745C216.129 314.527 217.26 314.18 218.391 313.919L217.739 311.007L221.002 310.181L220.219 307.138L216.956 307.964L216.259 304.922C215.215 305.182 214.214 305.487 213.17 305.66L212.561 302.748L209.472 303.226L208.95 300.184L205.947 300.619L205.512 297.532L202.814 297.924L202.336 294.707Z" fill="#0D1351"/>
<path d="M213.649 308.746C214.736 308.573 215.781 308.225 216.825 307.964L217.565 311.094C216.52 311.354 215.476 311.659 214.432 311.876L215.041 314.788L211.386 315.353L211.908 318.396L208.427 318.917L208.906 322.09L205.338 322.612L205.686 325.698C204.468 325.872 203.249 326.089 202.031 326.089L201.77 323.133L198.159 323.307L197.898 320.004L194.547 320.178L194.417 317.309L191.023 317.483L190.979 314.136C189.848 314.223 188.76 314.18 187.629 314.136L187.672 311.137C188.76 311.224 189.848 311.267 190.936 311.137L190.892 307.921L194.199 307.747L194.069 304.661L196.94 304.53L196.723 301.444L199.856 301.314L199.594 298.315C200.595 298.315 201.553 298.141 202.51 297.967L202.858 301.053L205.86 300.575L206.295 303.661L209.341 303.183L209.863 306.225L212.996 305.747L213.649 308.746Z" fill="#FAB60F"/>
<path d="M204.599 316.396L208.123 315.875L208.558 319.048L204.947 319.569L204.599 316.396Z" fill="#0D1351"/>
<path d="M203.249 304.139L206.382 303.661L206.86 306.834L203.597 307.312L203.249 304.139Z" fill="#0D1351"/>
<path d="M208.123 297.098L211.125 296.663L211.778 299.793L208.689 300.271L208.123 297.098Z" fill="#FAB60F"/>
<path d="M210.603 293.751C211.56 293.577 212.517 293.273 213.474 293.056L214.214 296.185C213.213 296.402 212.256 296.75 211.255 296.924L210.603 293.751Z" fill="#FAB60F"/>
<path d="M251.329 311.789L254.723 310.094L256.289 312.963L252.765 314.658L251.329 311.789Z" fill="#FAB60F"/>
<path d="M253.418 307.486L256.594 305.573L258.204 308.355L254.941 310.355L253.418 307.486Z" fill="#FAB60F"/>
<path d="M220.393 322.959C219.174 323.264 217.913 323.611 216.694 323.872L217.347 327.045C218.609 326.828 219.871 326.437 221.132 326.132L220.393 322.959Z" fill="#FAB60F"/>
<path d="M216.042 321.004L212.344 321.569L212.866 324.742L216.651 324.177L216.042 321.004Z" fill="#FAB60F"/>
<path d="M244.063 283.928L241.409 285.362L242.932 288.188L245.586 286.579L244.063 283.928Z" fill="#FAB60F"/>
<path d="M240.016 282.972L237.362 284.232L238.842 287.101L241.583 285.797L240.016 282.972Z" fill="#FAB60F"/>
<path d="M197.027 304.53L200.247 304.4L200.552 307.573L197.245 307.747L197.027 304.53Z" fill="#0D1351"/>
<path d="M197.724 316.831L201.292 316.657L201.596 319.83L197.941 320.047L197.724 316.831Z" fill="#0D1351"/>
<path d="M231.532 310.311L234.621 319.135L231.271 320.352L232.228 323.307C228.573 324.437 224.875 325.263 221.176 326.263L220.437 323.133L223.874 322.264L223.134 319.352L226.746 318.396L225.875 315.397C227.007 315.092 228.225 314.919 229.313 314.484L228.356 311.441L231.532 310.311Z" fill="#FAB60F"/>
<path d="M234.621 309.181L237.928 317.918L241.278 316.701L242.453 319.569C246.021 318.265 249.371 316.396 252.852 314.788L251.416 311.919L248.24 313.441L246.978 310.746L243.628 312.354L242.366 309.529C241.322 310.094 240.234 310.572 239.103 310.963L237.884 308.008L234.621 309.181Z" fill="#FAB60F"/>
<path d="M228.138 311.355C227.05 311.746 225.918 311.963 224.831 312.267L225.701 315.266L222.307 316.136L223.09 319.135L219.74 320.004L220.393 322.916C219.174 323.221 217.956 323.568 216.694 323.829L216.128 321.004L212.691 321.525L212.169 318.483L215.65 317.961L215.041 314.919C216.172 314.701 217.26 314.354 218.391 314.093L217.695 311.05C220.915 310.181 224.222 309.442 227.398 308.486L228.138 311.355Z" fill="#FAB60F"/>
<path d="M237.971 307.964C239.059 307.616 240.103 307.138 241.104 306.617L242.366 309.442L245.542 307.921L246.891 310.746L250.024 309.225L251.373 311.876L254.81 310.224L253.461 307.703L256.464 305.921L254.897 303.226C253.896 303.835 252.896 304.487 251.851 305.009L250.372 302.27L247.283 303.748L245.89 300.966C242.844 302.357 239.886 304.009 236.753 305.182L237.971 307.964Z" fill="#FAB60F"/>
<path d="M228.443 301.444L225.353 292.621L222.699 293.621L221.742 290.665C219.001 291.534 216.172 292.099 213.388 292.882L214.127 296.011L216.869 295.316L217.608 298.228L220.654 297.446L221.524 300.445C222.525 300.14 223.569 299.967 224.527 299.532L225.484 302.574L228.443 301.444Z" fill="#FAB60F"/>
<path d="M231.315 300.401L228.008 291.665L230.662 290.708L229.487 287.84C232.185 286.884 234.709 285.406 237.319 284.232L238.755 287.101L236.188 288.318L237.45 291.013L234.622 292.36L235.883 295.185C234.926 295.663 233.969 296.055 232.968 296.359L234.186 299.315L231.315 300.401Z" fill="#FAB60F"/>
<path d="M225.397 302.792C224.396 303.183 223.352 303.357 222.308 303.618L221.437 300.618L218.435 301.401L217.652 298.402L214.824 299.141L214.171 296.229C213.17 296.446 212.213 296.794 211.212 296.967L211.778 299.793L208.906 300.227L209.428 303.27L212.474 302.792L213.083 305.834C214.128 305.617 215.128 305.313 216.173 305.052L216.869 308.094C220.045 307.269 223.221 306.53 226.354 305.574L225.397 302.792Z" fill="#FAB60F"/>
<path d="M234.403 299.271C235.404 298.967 236.361 298.489 237.319 298.011L236.057 295.185L238.841 293.838L237.493 291.013L240.103 289.752L238.754 287.101L241.496 285.797L242.845 288.318L245.325 286.84L246.891 289.535C246.021 290.056 245.151 290.622 244.237 291.143L245.716 293.881L242.845 295.272L244.237 298.054C241.278 299.401 238.406 301.01 235.361 302.14L234.403 299.271Z" fill="#FAB60F"/>
<path d="M233.664 306.312L234.752 309.138L231.532 310.311L230.531 307.442L227.399 308.616L226.441 305.66L229.444 304.574L228.399 301.531L231.445 300.401L232.576 303.4L235.666 302.27L236.797 305.095L233.664 306.312Z" fill="#FAB60F"/>
<path d="M162.741 292.143C164.786 292.621 166.831 293.316 168.919 293.664L175.185 294.62C179.318 295.49 183.626 295.229 187.847 295.62L187.324 329.61C181.755 329.219 176.142 329.392 170.66 328.306L162.392 327.045C159.651 326.567 156.954 325.741 154.256 325.089L162.741 292.143Z" fill="#0D1351"/>
<path d="M169.224 325.176L172.966 325.741L172.618 328.914L168.745 328.349L169.224 325.176Z" fill="#FAB60F"/>
<path d="M173.793 294.186L176.708 294.664L176.36 297.837L173.357 297.402L173.793 294.186Z" fill="#FAB60F"/>
<path d="M152.037 288.448L149.165 287.405L147.903 290.448C146.946 290.144 146.119 289.665 145.249 289.274L144.031 292.013L141.42 290.752L140.071 293.577L137.2 292.186L135.807 294.968L133.022 293.577L131.5 296.403L128.715 294.707L127.148 297.446L129.933 299.141L128.497 301.749L131.587 303.227L130.107 306.095L133.24 307.617L131.935 310.311L135.111 311.833L133.849 314.658C134.98 315.179 136.025 315.745 137.2 316.136L136.025 319.004L139.636 320.352L140.724 317.483L144.292 318.787L145.336 315.875L148.73 317.092L149.6 314.31C150.644 314.745 151.776 314.919 152.864 315.266L153.821 312.007L157.258 312.876L157.998 309.964L161.261 310.789L161.957 307.703L158.694 306.878L159.477 303.879L156.388 303.096L157.215 300.227C156.214 299.967 155.213 299.793 154.256 299.358L155.213 296.403L152.385 295.359L153.429 292.447L150.862 291.491L152.037 288.448Z" fill="#0D1351"/>
<path d="M155.561 306.095L158.737 306.921L157.911 310.051L154.778 309.181L153.951 312.05C152.776 311.746 151.558 311.485 150.427 311.007L149.47 313.962L146.163 312.745L145.075 315.788L141.725 314.614L140.637 317.527L137.199 316.266L138.331 313.484C137.199 313.093 136.112 312.528 135.024 312.05L136.329 308.964L133.283 307.53L134.545 304.922L131.499 303.444L133.022 300.488L129.977 298.967L131.412 296.359L134.328 297.793L135.807 294.925L138.766 296.359L140.115 293.577L142.682 294.838L143.944 292.012C144.901 292.447 145.815 292.969 146.815 293.273L147.947 290.491L150.688 291.491L149.6 294.403L152.428 295.446L151.384 298.358L154.299 299.445L153.342 302.401C154.299 302.835 155.387 303.009 156.388 303.27L155.561 306.095Z" fill="#FAB60F"/>
<path d="M143.987 308.703L147.338 309.92L146.25 312.963L142.812 311.702L143.987 308.703Z" fill="#0D1351"/>
<path d="M148.469 297.185L151.471 298.315L150.427 301.357L147.338 300.227L148.469 297.185Z" fill="#0D1351"/>
<path d="M155.996 293.36C156.91 293.751 157.91 293.968 158.911 294.229L157.997 297.315C156.997 297.054 155.952 296.837 154.995 296.446L155.996 293.36Z" fill="#FAB60F"/>
<path d="M159.781 291.404L162.653 292.143L161.826 295.272L158.911 294.49L159.781 291.404Z" fill="#FAB60F"/>
<path d="M187.455 326.306C188.716 326.393 189.978 326.437 191.24 326.306L191.284 329.523C189.978 329.61 188.673 329.61 187.411 329.523L187.455 326.306Z" fill="#FAB60F"/>
<path d="M191.284 323.394L194.983 323.22L195.113 326.437L191.328 326.611L191.284 323.394Z" fill="#FAB60F"/>
<path d="M154.909 321.83L151.21 320.873L150.34 323.959L154.082 324.959L154.909 321.83Z" fill="#FAB60F"/>
<path d="M151.993 318.048C150.775 317.744 149.557 317.483 148.426 317.005L147.425 320.091C148.6 320.569 149.861 320.83 151.08 321.178L151.993 318.048Z" fill="#FAB60F"/>
<path d="M193.981 298.228H190.936L190.979 301.444L194.112 301.271L193.981 298.228Z" fill="#FAB60F"/>
<path d="M190.849 295.446C189.848 295.533 188.891 295.533 187.89 295.446L187.847 298.663C188.847 298.75 189.892 298.793 190.892 298.663L190.849 295.446Z" fill="#FAB60F"/>
<path d="M142.769 294.838C143.726 295.316 144.684 295.794 145.684 296.142L144.466 299.097C143.422 298.75 142.421 298.271 141.464 297.793L142.769 294.838Z" fill="#0D1351"/>
<path d="M137.678 306.008C138.766 306.53 139.81 307.095 140.941 307.443L139.723 310.442C138.548 310.051 137.504 309.486 136.416 308.964L137.678 306.008Z" fill="#0D1351"/>
<path d="M170.616 315.788L169.224 325.046L165.7 324.524L165.177 327.567C161.392 327.132 157.694 326.046 153.995 325.133L154.822 322.003L158.259 322.873L158.955 319.961L162.567 320.873L163.176 317.831L166.7 318.439L167.266 315.31L170.616 315.788Z" fill="#FAB60F"/>
<path d="M173.879 316.266L172.748 325.524C173.923 325.655 175.098 325.959 176.272 325.959L175.968 329.045L187.368 329.61L187.411 326.393L183.887 326.22L184.017 323.221L180.275 323.047L180.493 319.961L176.925 319.83L177.23 316.657C176.142 316.701 175.011 316.397 173.879 316.266Z" fill="#FAB60F"/>
<path d="M167.135 315.049L163.741 314.527L163.132 317.57L159.738 316.701L159.042 319.743L155.691 318.874L154.952 321.786L151.253 320.83L152.036 318.048C150.905 317.744 149.774 317.527 148.729 317.092L149.687 314.136C150.775 314.571 151.949 314.788 153.081 315.093L153.951 312.093L157.258 312.963L158.041 309.964C161.304 310.789 164.481 311.746 167.831 312.137L167.135 315.049Z" fill="#FAB60F"/>
<path d="M177.403 316.744L180.841 316.918L180.623 320.004L184.148 320.178L184.017 323.264L187.454 323.438L187.411 326.437C188.673 326.524 189.935 326.567 191.196 326.437L191.153 323.568L194.59 323.394L194.46 320.308L190.935 320.482L190.892 317.396C189.76 317.483 188.586 317.44 187.454 317.353L187.498 314.267L177.447 313.745L177.403 316.744Z" fill="#FAB60F"/>
<path d="M172.008 306.53L173.401 297.272L170.616 296.837L171.138 293.795C168.266 293.49 165.525 292.621 162.697 291.926L161.87 295.055L164.611 295.75L163.915 298.663L166.917 299.445L166.308 302.488L169.441 302.879L168.875 306.008L172.008 306.53Z" fill="#FAB60F"/>
<path d="M175.054 306.964L176.185 297.706C177.099 297.837 178.012 298.054 178.97 298.054L179.274 294.968L187.933 295.403L187.89 298.619L185.061 298.489L184.931 301.488L181.798 301.314L181.58 304.4L178.448 304.183L178.143 307.356C177.099 307.356 176.054 307.095 175.054 306.964Z" fill="#FAB60F"/>
<path d="M168.702 306.226L165.569 305.747L166.178 302.705L163.176 301.923L163.872 298.88L161.044 298.141L161.784 295.229L158.825 294.49L158.042 297.272C157.128 297.011 156.127 296.881 155.257 296.489L154.3 299.445C155.257 299.836 156.301 300.01 157.259 300.271L156.388 303.27L159.478 304.052L158.694 307.051C161.871 307.834 165.004 308.79 168.267 309.138L168.702 306.226Z" fill="#FAB60F"/>
<path d="M178.317 307.356L181.494 307.529L181.711 304.443L184.801 304.617L184.931 301.531L187.846 301.705L187.89 298.706C188.891 298.793 189.935 298.836 190.936 298.706L190.979 301.575L193.894 301.401L193.938 304.487L190.849 304.661L190.892 307.747C189.848 307.834 188.76 307.79 187.716 307.747L187.672 310.833L177.926 310.355L178.317 307.356Z" fill="#FAB60F"/>
<path d="M174.402 313.31L174.054 316.309L170.66 315.788L171.095 312.789L167.788 312.267L168.31 309.225L171.443 309.703L171.922 306.53L175.141 307.008L174.75 310.181C175.838 310.311 176.882 310.572 177.97 310.572L177.709 313.571C176.577 313.658 175.49 313.397 174.402 313.31Z" fill="#FAB60F"/>
<path d="M125.974 314.527C146.119 324.611 168.702 330.175 191.197 329.74C213.692 329.392 236.187 323.612 256.116 313.05L257.638 315.875C237.275 326.698 214.258 332.609 191.24 332.957C168.223 333.391 145.075 327.741 124.494 317.396L125.974 314.527Z" fill="#0D1351"/>
<path d="M143.074 280.929C157.737 288.231 174.097 292.317 190.588 292.056C207.079 291.795 223.352 287.623 237.885 280.016L239.495 283.059C224.44 290.926 207.644 295.272 190.588 295.533C173.532 295.837 156.606 291.621 141.464 284.058L143.074 280.929Z" fill="#0D1351"/>
<path d="M200.77 310.529C201.901 310.529 202.989 310.311 204.12 310.137L204.511 313.31C203.38 313.484 202.249 313.702 201.074 313.702L200.77 310.529Z" fill="#0D1351"/>
<path d="M142.987 301.836L146.163 303.009L144.988 306.008L141.769 304.835L142.987 301.836Z" fill="#0D1351"/>
<path d="M111.789 262.021C114.486 265.325 117.924 267.889 120.97 270.845C122.536 272.279 124.363 273.409 126.017 274.713C127.757 275.93 129.324 277.408 131.195 278.408L112.528 306.791C110.092 305.4 108.003 303.531 105.697 301.922C103.478 300.227 101.128 298.663 99.0834 296.794C94.9934 292.969 90.5987 289.491 86.9873 285.188L111.789 262.021Z" fill="#0D1351"/>
<path d="M99.5617 293.403C100.519 294.229 101.433 295.142 102.433 295.924L100.388 298.402C99.3442 297.619 98.4304 296.663 97.4297 295.837L99.5617 293.403Z" fill="#22244B"/>
<path d="M120.055 269.758C120.795 270.41 121.491 271.149 122.274 271.714L120.229 274.192C119.403 273.583 118.706 272.844 117.967 272.192L120.055 269.758Z" fill="#22244B"/>
<path d="M104.74 253.111L102.912 250.677L100.258 252.59C99.6926 251.807 99.0399 251.068 98.5178 250.199L96.0376 251.851L94.5582 249.373L91.9476 251.025L90.2941 248.287L87.64 249.851L86.03 247.243L83.2018 248.808C82.5927 247.895 82.114 246.939 81.6354 245.939L78.8507 247.417C79.2858 248.417 79.8079 249.373 80.3736 250.286L77.7629 251.764L79.5469 254.676L76.7186 256.371L78.5026 259.327L75.9789 260.935L77.8064 263.934L75.2393 265.673C75.8484 266.716 76.6751 267.672 77.3713 268.672L74.8477 270.454L77.1537 273.54L79.5904 271.714L81.8965 274.757L84.3331 272.844C85.0728 273.801 85.7255 274.8 86.5522 275.67L88.8148 273.801L91.0773 276.322L93.6445 274.061L96.0376 276.713L98.2132 274.67L100.476 277.147L102.738 274.931L100.476 272.453L102.738 270.323L100.606 267.976L102.869 265.977L100.78 263.673L103.173 261.674C102.434 260.978 101.955 260.109 101.302 259.283L103.739 257.371L102.129 255.154L104.74 253.111Z" fill="#0D1351"/>
<path d="M98.3005 269.932L100.476 272.323L98.1265 274.539L95.9509 272.149L93.7319 274.148L91.2517 271.41L88.8586 273.409C88.0319 272.584 87.4227 271.584 86.683 270.671L84.1594 272.67L81.9838 269.802L79.5472 271.584L77.3281 268.628L79.7648 266.89C79.0686 265.933 78.2854 265.021 77.6762 263.977L80.4174 262.065L78.677 259.196L81.1136 257.675L79.3296 254.806L82.2014 253.111L80.4609 250.242L83.0716 248.765L84.7685 251.546L87.5533 249.895L89.2502 252.72L91.8609 251.068L93.3403 253.502L95.9074 251.764C96.4296 252.677 97.1257 253.459 97.7349 254.285L100.172 252.546L101.912 254.893L99.5188 256.806L101.303 259.24L98.8662 261.152C99.5188 261.978 100.041 262.847 100.781 263.586L98.3876 265.586L100.52 267.933L98.3005 269.932Z" fill="#FAB60F"/>
<path d="M87.075 265.933L89.207 268.802L86.6834 270.801L84.5078 267.889L87.075 265.933Z" fill="#0D1351"/>
<path d="M97.0384 258.631L98.9529 261.196L96.4293 263.195L94.4277 260.544L97.0384 258.631Z" fill="#0D1351"/>
<path d="M105.436 259.457L107.481 261.674L105.088 263.804L102.956 261.5L105.436 259.457Z" fill="#FAB60F"/>
<path d="M109.744 259.805L111.746 261.978L109.396 264.195L107.308 261.934L109.744 259.805Z" fill="#FAB60F"/>
<path d="M114.356 304.139L117.62 306.095L115.923 308.833L112.572 306.834L114.356 304.139Z" fill="#FAB60F"/>
<path d="M119.229 303.661L122.405 305.574L120.796 308.355L117.532 306.399L119.229 303.661Z" fill="#FAB60F"/>
<path d="M89.2503 282.928L86.6832 280.103L84.29 282.233L86.9007 285.102L89.2503 282.928Z" fill="#FAB60F"/>
<path d="M88.8587 278.104L86.3786 275.365L83.8984 277.408L86.4656 280.233L88.8587 278.104Z" fill="#FAB60F"/>
<path d="M134.937 283.928L132.413 282.233L130.76 284.971L133.414 286.579L134.937 283.928Z" fill="#FAB60F"/>
<path d="M133.85 279.842L131.326 278.321L129.542 281.016L132.153 282.58L133.85 279.842Z" fill="#FAB60F"/>
<path d="M93.4272 253.589C93.9928 254.502 94.689 255.328 95.2982 256.197L92.6875 258.066C92.0348 257.154 91.3386 256.328 90.7295 255.415L93.4272 253.589Z" fill="#0D1351"/>
<path d="M83.1151 260.37C83.7243 261.37 84.5075 262.282 85.2037 263.239L82.593 265.108C81.8968 264.108 81.0701 263.195 80.4609 262.152L83.1151 260.37Z" fill="#0D1351"/>
<path d="M105.784 286.275L99.6493 293.36L97.0386 290.969L94.9501 293.273C92.0783 290.752 89.2936 288.144 86.8135 285.275L89.1631 283.059L91.5562 285.666L93.6882 283.58C94.515 284.536 95.4722 285.319 96.3859 286.188L98.5615 283.971L101.172 286.405L103.304 284.058L105.784 286.275Z" fill="#FAB60F"/>
<path d="M108.264 288.448L102.347 295.663L105.175 297.793L103.26 300.227C106.35 302.444 109.265 304.922 112.528 306.921L114.312 304.226C113.268 303.618 112.311 302.966 111.354 302.27L113.05 299.836L110.048 297.619L111.876 295.098L109.004 293.012L110.962 290.491L108.264 288.448Z" fill="#FAB60F"/>
<path d="M103.26 283.711L100.736 281.407L98.5607 283.624C97.6905 282.841 96.7768 282.102 96.0371 281.19L93.8615 283.363L91.5119 280.798L89.3364 282.841L86.7692 280.016L88.9448 278.104L86.6387 275.539L89.0318 273.54L91.3814 276.148L93.731 274.105L96.0371 276.626L98.2997 274.496C99.431 275.713 100.519 277.017 101.737 278.147L105.436 281.537L103.26 283.711Z" fill="#FAB60F"/>
<path d="M111.093 290.622L113.834 292.664L112.007 295.185L114.835 297.272L113.051 299.836C113.965 300.575 114.922 301.184 115.923 301.749L114.269 304.226L117.532 306.226L119.055 303.791L122.014 305.574L123.58 302.879L120.578 301.053L122.232 298.402L119.316 296.62L121.013 294.012C118.142 292.273 115.574 290.057 112.877 288.144L111.093 290.622Z" fill="#FAB60F"/>
<path d="M111.919 279.147L118.054 272.062L115.966 270.15L118.054 267.846C115.879 265.933 113.747 264.021 111.876 261.761L109.526 263.977L111.441 266.064L109.309 268.15C109.961 268.976 110.788 269.628 111.571 270.323L109.396 272.54L111.745 274.626L109.613 276.974L111.919 279.147Z" fill="#FAB60F"/>
<path d="M114.182 281.19L120.099 273.975L122.362 275.67L124.32 273.236C126.669 274.887 128.845 276.8 131.325 278.321L129.541 281.016C128.714 280.538 127.931 280.06 127.191 279.451L125.495 281.929L122.971 280.06L121.143 282.581L118.663 280.668L116.705 283.189L114.182 281.19Z" fill="#FAB60F"/>
<path d="M109.352 277.104L107.003 274.974L109.178 272.757C108.439 272.062 107.612 271.41 106.959 270.584L109.178 268.411L107.22 266.238L109.396 264.195L107.351 261.935L105.175 263.847L103.217 261.717L100.824 263.717L102.913 266.02L100.563 268.063L102.695 270.41L100.433 272.54C101.564 273.714 102.565 275.018 103.783 276.104L107.394 279.408L109.352 277.104Z" fill="#FAB60F"/>
<path d="M116.88 283.146L119.404 285.058L121.231 282.537L123.711 284.406L125.495 281.842C126.235 282.45 127.062 282.972 127.888 283.45L129.542 280.972L132.152 282.537L130.629 284.971L133.11 286.492L131.543 289.187L128.889 287.579L127.236 290.23L124.538 288.579L122.841 291.187C120.056 289.492 117.576 287.362 114.922 285.449L116.88 283.146Z" fill="#FAB60F"/>
<path d="M110.266 286.188L108.351 288.535C107.437 287.84 106.654 287.014 105.784 286.275L107.742 283.971L105.262 281.711L107.35 279.408L109.7 281.537L111.788 279.103C112.615 279.842 113.355 280.581 114.225 281.277L112.18 283.754L114.791 285.71L112.92 288.101L110.266 286.188Z" fill="#FAB60F"/>
<path d="M87.1175 217.687C87.9442 221.86 89.8152 225.685 91.1205 229.683C91.8167 231.683 92.9045 233.508 93.7747 235.421C94.7319 237.29 95.4716 239.289 96.6029 241.071L66.9718 257.675C65.4924 255.284 64.4481 252.676 63.1863 250.199C62.0115 247.678 60.6626 245.2 59.7054 242.593C57.8779 237.333 55.5283 232.204 54.3535 226.728L87.1175 217.687Z" fill="#0D1351"/>
<path d="M61.6634 239.767C62.142 240.941 62.4901 242.158 63.0123 243.331L60.0535 244.592C59.5314 243.418 59.1398 242.158 58.6611 240.941L61.6634 239.767Z" fill="#FAB60F"/>
<path d="M90.8162 228.292C91.1643 229.205 91.4253 230.161 91.8605 231.031L88.9017 232.291C88.5101 231.379 88.2055 230.379 87.8574 229.466L90.8162 228.292Z" fill="#FAB60F"/>
<path d="M85.0294 206.56L84.5507 203.561L81.2874 203.996L80.8523 201.127L77.8935 201.431C77.763 200.475 77.763 199.519 77.7195 198.562L74.6302 198.823L74.4561 195.607L71.3668 195.781L71.1928 192.738L67.973 192.825L67.7989 189.565H64.6226L64.7966 192.825L61.7944 192.912L61.9684 196.346L58.7486 196.389L58.9226 199.866L55.9203 200.084C56.0074 201.257 56.0074 202.431 56.1379 203.561L53.0486 203.865L53.5707 207.516L50.4814 207.907L51.0471 211.732L54.0494 211.254L54.702 215.079L57.7478 214.514C57.9219 215.688 58.0959 216.861 58.444 218.035L61.3157 217.426L62.1425 220.686L65.4928 219.86L66.363 223.294L69.2348 222.512L70.0615 225.772L73.1073 224.859L72.2806 221.599L75.2828 220.773L74.4996 217.687L77.4149 216.992L76.6317 213.993L79.6775 213.341C79.3729 212.384 79.2424 211.385 79.1118 210.385L82.1576 209.82L81.766 207.125L85.0294 206.56Z" fill="#0D1351"/>
<path d="M71.4975 218.426L72.3242 221.599L69.2349 222.468L68.4517 219.339L65.5364 220.034L64.6227 216.47L61.5769 217.122C61.2288 215.992 61.0983 214.818 60.9243 213.688L57.7479 214.253L57.1823 210.689L54.093 211.167L53.5273 207.516L56.4861 207.125L56.0075 203.604L59.3143 203.213C59.1838 202.083 59.1838 200.996 59.0968 199.866L61.9685 199.649L61.7945 196.259L65.1448 196.085L64.9708 192.738L67.9731 192.651L68.1471 195.911L71.3669 195.737L71.541 199.04L74.6303 198.78C74.6738 199.736 74.6738 200.692 74.8043 201.648L77.8936 201.344L78.3722 204.43L81.331 204.039L81.7661 206.908L78.6768 207.386L79.1119 210.341L76.0662 210.906C76.1967 211.95 76.3707 212.949 76.6753 213.949L73.6295 214.601L74.4127 217.687L71.4975 218.426Z" fill="#FAB60F"/>
<path d="M63.4478 209.689L63.9699 213.21L60.7936 213.819L60.2715 210.211L63.4478 209.689Z" fill="#0D1351"/>
<path d="M75.6314 207.864L76.11 211.037L72.9337 211.602L72.4551 208.342L75.6314 207.864Z" fill="#0D1351"/>
<path d="M82.7236 212.471L83.5068 215.383L80.374 216.166L79.5908 213.123L82.7236 212.471Z" fill="#FAB60F"/>
<path d="M86.335 214.775L87.0746 217.6L83.9853 218.469L83.2021 215.514L86.335 214.775Z" fill="#FAB60F"/>
<path d="M69.8439 256.154L71.8019 259.413L69.0171 261.022L67.0156 257.718L69.8439 256.154Z" fill="#FAB60F"/>
<path d="M74.3697 257.936L76.2842 261.109L73.5865 262.847L71.585 259.587L74.3697 257.936Z" fill="#FAB60F"/>
<path d="M57.4436 225.728L56.4863 222.033L53.3535 222.816L54.3543 226.597L57.4436 225.728Z" fill="#FAB60F"/>
<path d="M59.3141 221.295L58.4004 217.687L55.2676 218.339L56.2248 222.034L59.3141 221.295Z" fill="#FAB60F"/>
<path d="M97.43 247.721L95.9941 245.07L93.2529 246.722L94.8628 249.373L97.43 247.721Z" fill="#FAB60F"/>
<path d="M98.3443 243.592L96.8214 241.071L93.9932 242.636L95.6031 245.244L98.3443 243.592Z" fill="#FAB60F"/>
<path d="M74.7613 201.735L75.2834 204.908L72.0636 205.299L71.585 202.083L74.7613 201.735Z" fill="#0D1351"/>
<path d="M62.5343 202.909L63.0564 206.43L59.8801 206.864L59.3145 203.257L62.5343 202.909Z" fill="#0D1351"/>
<path d="M70.5403 236.334L61.8381 239.767L60.6198 236.464L57.7045 237.507C56.3557 233.943 55.0503 230.379 54.2236 226.641L57.3129 225.772L58.2267 229.205L61.0984 228.336C61.3595 229.553 61.8816 230.683 62.2732 231.857L65.232 230.857L66.4068 234.204L69.409 233.117L70.5403 236.334Z" fill="#FAB60F"/>
<path d="M71.6715 239.42L63.0563 243.071L64.5792 246.287L61.751 247.591C63.4479 250.981 64.9273 254.502 66.8418 257.805L69.67 256.241C69.0174 255.241 68.4952 254.198 67.9731 253.111L70.6273 251.72L69.0609 248.33L71.8456 246.983L70.2357 243.81L73.1509 242.506L71.6715 239.42Z" fill="#FAB60F"/>
<path d="M69.4961 232.943L68.3213 229.727L65.3625 230.683C64.9709 229.597 64.4923 228.51 64.2747 227.38L61.316 228.293L60.4457 224.946L57.574 225.728L56.5732 222.034L59.358 221.338L58.4877 217.991L61.5335 217.339L62.4037 220.73L65.406 219.991L66.2762 223.294L69.2785 222.468C69.9747 225.728 71.1495 228.858 72.3243 231.987L69.4961 232.943Z" fill="#FAB60F"/>
<path d="M73.1938 242.636L74.6732 245.722L71.8885 247.069L73.4113 250.242L70.6701 251.677C71.1488 252.72 71.6709 253.763 72.3236 254.719L69.7129 256.197L71.6709 259.457L74.151 257.979L75.935 260.935L78.5457 259.283L76.7182 256.284L79.3724 254.719L77.5884 251.764L80.2861 250.242C78.5892 247.374 77.3274 244.244 75.8045 241.245L73.1938 242.636Z" fill="#FAB60F"/>
<path d="M79.2425 232.9L87.9448 229.466L86.9875 226.815L89.9028 225.772C88.902 223.077 87.8577 220.382 87.2921 217.557L84.2028 218.426L84.899 221.164L82.0272 222.034C82.2448 223.077 82.6799 223.989 83.028 224.989L80.0257 225.945L81.157 228.858L78.1982 229.944L79.2425 232.9Z" fill="#FAB60F"/>
<path d="M80.3301 235.769L88.9453 232.117L90.1636 234.638L92.9918 233.334C94.2972 235.899 95.385 238.594 96.8208 241.071L93.9926 242.636C93.4705 241.854 93.0354 241.028 92.6438 240.158L89.9896 241.549L88.6407 238.724L85.856 240.072L84.5942 237.246L81.6789 238.55L80.3301 235.769Z" fill="#FAB60F"/>
<path d="M77.9368 229.857L76.8491 226.858L79.8078 225.859C79.4597 224.902 79.0246 223.946 78.8071 222.946L81.7658 222.034L81.0696 219.208L83.9414 218.426L83.2017 215.514L80.417 216.209L79.6773 213.384L76.6315 214.036L77.4147 217.035L74.4124 217.774L75.1956 220.86L72.1934 221.686C72.8895 224.902 74.0208 227.945 75.1521 230.987L77.9368 229.857Z" fill="#FAB60F"/>
<path d="M81.7656 238.724L83.158 241.593L85.9427 240.245L87.2915 243.027L90.0328 241.593C90.4244 242.462 90.8595 243.331 91.3816 244.157L93.9923 242.679L95.5587 245.287L93.0785 246.765L94.6014 249.243L91.9908 250.894L90.3808 248.243L87.7267 249.808L86.0732 247.113L83.3755 248.634C81.7221 245.852 80.5038 242.81 79.0244 239.898L81.7656 238.724Z" fill="#FAB60F"/>
<path d="M74.4991 238.377L71.7144 239.55C71.2793 238.507 70.8877 237.42 70.4961 236.334L73.3243 235.247L72.193 232.118L75.1083 231.074L76.1961 234.074L79.1548 232.9C79.5464 233.9 79.8945 234.943 80.2861 235.943L77.3274 237.203L78.7632 240.159L76.022 241.419L74.4991 238.377Z" fill="#FAB60F"/>
<path d="M49.3935 197.041C49.7416 208.299 52.0912 219.426 55.0935 230.249C55.8767 232.943 56.9645 235.551 57.8782 238.203C58.9225 240.811 59.6622 243.549 61.011 246.07C63.4912 251.112 65.7103 256.328 68.7996 261.065C70.2789 263.456 71.7148 265.89 73.2377 268.237L78.285 275.018C81.5048 279.668 85.5949 283.58 89.3368 287.796C91.2513 289.839 93.4269 291.621 95.5154 293.577C97.6475 295.403 99.6055 297.489 101.912 299.097C106.437 302.444 110.831 306.008 115.748 308.79L114.051 311.528C109.004 308.703 104.522 305.052 99.9101 301.618C97.517 299.967 95.559 297.88 93.3834 295.968C91.2949 294.012 89.0323 292.143 87.0743 290.057C83.2888 285.754 79.0682 281.755 75.8049 276.974L70.627 270.063C69.0606 267.629 67.5812 265.151 66.1019 262.717C62.9255 257.892 60.663 252.546 58.1393 247.374C56.7905 244.809 56.0073 242.028 54.963 239.333C54.0057 236.594 52.918 233.943 52.0912 231.161C49.0019 220.078 46.6088 208.69 46.2607 197.172L49.3935 197.041Z" fill="#0D1351"/>
<path d="M87.0741 195.042C87.2481 203.3 89.0756 211.341 91.2077 219.252C91.7733 221.208 92.6 223.12 93.2527 225.033C94.0359 226.945 94.471 228.945 95.4718 230.77C97.3428 234.421 98.8221 238.29 101.172 241.68C109.569 255.762 121.23 268.063 135.328 276.539L133.501 279.451C118.968 270.628 106.872 257.979 98.213 243.418C95.8199 239.898 94.2535 235.899 92.339 232.161C91.2947 230.292 90.8161 228.206 90.0329 226.25C89.3367 224.25 88.4665 222.294 87.9008 220.251C85.7253 212.08 83.8543 203.735 83.6367 195.216L87.0741 195.042Z" fill="#0D1351"/>
<path d="M90.2503 259.718L92.2518 262.413L89.6847 264.325L87.6396 261.587L90.2503 259.718Z" fill="#0D1351"/>
<path d="M68.9302 205.43L69.4524 208.733L66.276 209.255L65.7539 205.821L68.9302 205.43Z" fill="#0D1351"/>
<path d="M87.6839 158.488C85.5083 166.659 83.6373 174.961 83.3763 183.48L49.4375 181.568C49.8291 170.397 52.1787 159.357 55.1375 148.621L87.6839 158.488Z" fill="#0D1351"/>
<path d="M54.3978 163.617L53.7886 167.398L50.6123 166.876L51.2215 163.008L54.3978 163.617Z" fill="#22244B"/>
<path d="M85.1603 169.484L84.7251 172.397L81.5488 171.875L81.9839 168.876L85.1603 169.484Z" fill="#22244B"/>
<path d="M91.817 147.926L93.1659 145.188L90.2071 143.797L91.4689 141.145L88.7712 139.841L90.0331 137.233L87.2918 135.799C87.727 134.799 88.2491 133.887 88.8147 132.974L86.117 131.453L87.727 128.845L84.9422 127.193L86.6392 124.411L83.985 122.716L82.2881 125.498L79.7209 123.977L77.9369 126.889L75.1087 125.324C74.4995 126.324 73.8904 127.28 73.4553 128.367L70.8011 126.976L69.2782 130.149L66.45 128.714L64.8836 132.061L62.0553 130.757L60.3584 134.234L63.1431 135.451C62.5775 136.581 62.2294 137.842 61.7508 139.015L64.6225 140.146L63.3607 143.536L66.1019 144.536L65.0141 147.708L68.2339 148.795C67.8423 149.925 67.3637 151.012 67.0591 152.142L69.9309 153.011L69.1042 156.271L72.1499 157.097L72.9767 153.837L75.9354 154.75C76.1965 153.707 76.6316 152.75 76.9797 151.751L79.8079 152.707L80.8957 149.795L83.8109 150.881L84.8552 148.056L87.727 149.186C88.075 148.36 88.3361 147.491 88.7277 146.665L91.817 147.926Z" fill="#0D1351"/>
<path d="M74.1513 150.794C73.8033 151.838 73.3681 152.837 73.0636 153.88L69.9743 152.924C70.2353 151.881 70.6705 150.881 71.0185 149.882L68.1903 148.925L69.4521 145.448L66.5369 144.362L67.7552 141.102L64.7529 139.928C65.188 138.798 65.5361 137.668 66.0583 136.581L63.1865 135.364L64.7964 132.061L67.4941 133.322L69.0605 130.062L72.1063 131.453L73.5857 128.41L76.1529 129.757C76.588 128.714 77.1971 127.758 77.7628 126.802L80.678 128.453L82.4185 125.585L84.9856 127.106L83.2887 129.888L86.1169 131.453C85.5078 132.365 84.9856 133.322 84.5505 134.321L87.2917 135.756L86.0299 138.32L88.8146 139.711L87.4658 142.536L90.1635 143.797L88.9017 146.448L86.0299 145.231C85.5948 146.144 85.3337 147.1 84.9421 148.056L82.0704 146.926L81.0261 149.838L78.1109 148.752L77.0231 151.751L74.1513 150.794Z" fill="#FAB60F"/>
<path d="M71.8891 139.059C71.367 140.102 71.0189 141.276 70.5838 142.362L67.625 141.189C68.0601 140.059 68.4082 138.885 68.9303 137.798L71.8891 139.059Z" fill="#0D1351"/>
<path d="M83.2019 144.014C82.7233 144.97 82.4622 146.013 82.0706 147.013L79.0684 145.839C79.46 144.796 79.7645 143.753 80.2432 142.753L83.2019 144.014Z" fill="#0D1351"/>
<path d="M86.9006 151.794L85.8563 154.619L82.8105 153.62L83.8983 150.664L86.9006 151.794Z" fill="#FAB60F"/>
<path d="M88.6413 155.619C88.3367 156.532 87.9016 157.445 87.684 158.401L84.5947 157.445C84.8123 156.445 85.2909 155.532 85.5955 154.576L88.6413 155.619Z" fill="#FAB60F"/>
<path d="M52.6571 181.829L52.4831 185.61L49.2197 185.523L49.4373 181.655L52.6571 181.829Z" fill="#FAB60F"/>
<path d="M55.3988 185.784L55.2247 189.478H52.0049L52.1789 185.697L55.3988 185.784Z" fill="#FAB60F"/>
<path d="M58.27 149.447C58.5745 148.23 59.0967 147.057 59.4883 145.84L56.4425 144.796C56.0074 146.013 55.4852 147.23 55.1807 148.491L58.27 149.447Z" fill="#FAB60F"/>
<path d="M62.3168 146.709L63.5787 143.232L60.5764 142.102L59.2275 145.709L62.3168 146.709Z" fill="#FAB60F"/>
<path d="M80.2431 189.478L80.5911 186.479L77.3713 186.392L77.1973 189.478H80.2431Z" fill="#FAB60F"/>
<path d="M83.3321 186.479L83.5062 183.524L80.2863 183.35L80.1123 186.392L83.3321 186.479Z" fill="#FAB60F"/>
<path d="M85.9869 138.494L84.5945 141.363L81.6357 140.015L83.0716 137.06L85.9869 138.494Z" fill="#0D1351"/>
<path d="M74.9787 132.93L73.4123 136.147L70.4971 134.799L72.0635 131.496L74.9787 132.93Z" fill="#0D1351"/>
<path d="M63.7092 165.442L54.5283 163.704C54.7024 162.53 54.9199 161.356 55.2245 160.226L52.1787 159.574L55.0505 148.491L58.1397 149.447L57.226 152.881L60.0978 153.663L59.184 157.271L62.1863 158.01L61.229 161.443L64.3619 162.139C64.0573 163.225 63.8397 164.312 63.7092 165.442Z" fill="#FAB60F"/>
<path d="M63.1873 168.702L53.9629 167.181L53.4407 170.701L50.3515 170.267C50.0904 172.136 49.6988 174.048 49.5683 175.917L49.2637 181.611L52.4835 181.785L52.6575 178.264L55.6598 178.525C55.7468 177.308 55.7033 176.048 55.9644 174.831L59.0537 175.135L59.5323 171.614L62.7086 172.049L63.1873 168.702Z" fill="#FAB60F"/>
<path d="M64.623 162.008L65.4933 158.705L62.491 157.966L63.3612 154.576L60.3589 153.706L61.2292 150.36L58.3574 149.49C58.662 148.273 59.1841 147.1 59.5757 145.883L62.3169 146.796L63.4917 143.536L66.407 144.622L65.1887 147.926L68.1474 148.925C67.7994 150.012 67.3207 151.055 67.0162 152.185L69.9749 153.098L67.4513 162.834L64.623 162.008Z" fill="#FAB60F"/>
<path d="M62.6212 172.223L62.0991 175.613L59.0533 175.265C58.8357 176.439 58.8792 177.612 58.7922 178.742L55.7029 178.482L55.5289 181.959L52.5266 181.828L52.3525 185.653L55.2243 185.74L55.0502 189.218H58.1395L58.3136 185.697L61.4029 185.784L61.5769 182.35L64.7097 182.48L64.9708 177.438C65.0578 175.787 65.4494 174.135 65.667 172.44L62.6212 172.223Z" fill="#FAB60F"/>
<path d="M72.9336 167.181L82.1145 168.919C82.245 167.963 82.3755 167.05 82.6801 166.138L85.7259 166.79L87.8579 158.444L84.7686 157.488L84.0725 160.226L81.2007 159.444L80.4175 162.487L77.4152 161.748L76.6756 164.79L73.5428 164.095C73.2382 165.138 73.0641 166.138 72.9336 167.181Z" fill="#FAB60F"/>
<path d="M72.4552 170.223L81.6796 171.745L81.2445 174.526L84.3338 174.961C84.1597 176.395 83.8116 177.786 83.7246 179.221L83.507 183.567L80.3307 183.35L80.4613 180.525L77.459 180.307C77.546 179.264 77.459 178.221 77.6765 177.178L74.6307 176.83L75.1529 173.744L71.9766 173.309L72.4552 170.223Z" fill="#FAB60F"/>
<path d="M73.3684 163.921L74.1516 160.835L77.1539 161.574L77.9371 158.575L80.9393 159.4L81.6355 156.575L84.5073 157.445C84.7248 156.445 85.2034 155.532 85.508 154.576L82.7668 153.663L83.7676 150.925L80.8958 149.882L79.808 152.794L76.8928 151.794C76.5447 152.794 76.1096 153.75 75.8485 154.793L72.8898 153.88L70.4531 163.356L73.3684 163.921Z" fill="#FAB60F"/>
<path d="M71.9759 173.483L71.4973 176.613L74.5866 176.96C74.369 177.96 74.456 179.003 74.369 180.046L77.4583 180.307L77.3278 183.176L80.3301 183.35L80.156 186.392L77.2843 186.305L77.1102 189.218H74.0209L74.195 186.132L71.1057 186.045L71.2797 182.872L68.1904 182.698L68.4515 177.83C68.5385 176.222 68.8866 174.613 69.1042 173.005L71.9759 173.483Z" fill="#FAB60F"/>
<path d="M66.1888 169.311L63.1865 168.832L63.7087 165.442L66.6674 166.007C66.798 164.877 67.0155 163.79 67.3201 162.747L70.3659 163.399C70.0613 164.399 69.8437 165.442 69.7132 166.529L72.846 167.137L72.4109 170.31L69.2346 169.789L68.756 173.005L65.7537 172.614L66.1888 169.311Z" fill="#FAB60F"/>
<path d="M113.834 114.979L109.57 119.674L107.438 122.021L105.567 124.585L101.738 129.67C100.52 131.409 99.5192 133.278 98.3879 135.06L69.2354 117.587C70.7147 115.197 72.1071 112.763 73.6735 110.502L78.6773 103.809L81.2009 100.462L83.9857 97.3324L89.6421 91.1604L113.834 114.979Z" fill="#0D1351"/>
<path d="M82.0276 104.026L79.7215 107.112L77.1543 105.156L79.5039 102.027L82.0276 104.026Z" fill="#FAB60F"/>
<path d="M106.524 123.542L104.74 125.932L102.173 123.977L104 121.542L106.524 123.542Z" fill="#FAB60F"/>
<path d="M122.406 107.547L124.843 105.721L122.841 103.113L125.191 101.375L123.407 98.9406L125.713 97.202L123.929 94.6375C124.755 93.9421 125.669 93.4205 126.626 92.8555L124.93 90.2475L127.54 88.6828L125.93 85.988L128.715 84.2928L127.149 81.5545L124.32 83.2062L122.754 80.6418L119.839 82.4238L118.098 79.729C117.098 80.3375 116.097 80.9026 115.183 81.6415L113.486 79.1639L110.658 81.2503L108.83 78.7293L105.872 80.946L103.957 78.4685L100.868 80.7722L102.782 83.1193C101.738 83.8582 100.868 84.7709 99.9106 85.5968L101.956 87.9439L99.3014 90.3345L101.259 92.5077L98.7358 94.7679L101.085 97.202C100.215 98.0278 99.3014 98.7232 98.5182 99.636L100.65 101.722L98.3877 104.2L100.694 106.373L102.956 103.896L105.175 106.069C105.872 105.286 106.742 104.634 107.482 103.896L109.57 106.069L111.876 103.983L113.965 106.286L116.184 104.243L118.229 106.59C118.925 105.982 119.534 105.33 120.274 104.808L122.406 107.547Z" fill="#0D1351"/>
<path d="M105.437 101.853C104.654 102.592 103.784 103.287 103.087 104.069L100.781 101.809C101.477 100.983 102.348 100.331 103.131 99.5926L101.042 97.4193L103.784 94.9418L101.695 92.6382L104.306 90.291L102.217 87.857C103.131 87.0746 103.958 86.2053 104.915 85.5099L102.957 83.1193L105.916 80.9026L107.743 83.2497L110.615 81.0764L112.573 83.8147L115.27 81.8154L116.924 84.2059C117.794 83.5105 118.795 82.9454 119.752 82.3369L121.58 85.1187L124.451 83.3801L126.018 85.9445L123.233 87.6397L124.973 90.3345C124.016 90.8996 123.103 91.4646 122.232 92.16L124.016 94.7245L121.71 96.4196L123.538 98.9406L121.057 100.81L122.885 103.157L120.535 104.895L118.577 102.505C117.751 103.07 117.054 103.852 116.315 104.504L114.27 102.157L111.964 104.243L109.875 101.94L107.525 104.069L105.437 101.853Z" fill="#FAB60F"/>
<path d="M108.874 90.4648C107.917 91.1168 107.09 92.0296 106.176 92.7685L104.088 90.3344C105.002 89.5521 105.828 88.6393 106.829 87.9438L108.874 90.4648Z" fill="#0D1351"/>
<path d="M116.619 100.071C115.749 100.679 115.009 101.505 114.182 102.201L112.094 99.7665C112.92 99.0711 113.66 98.2452 114.574 97.5933L116.619 100.071Z" fill="#0D1351"/>
<path d="M116.271 108.677L114.052 110.72L111.789 108.372L114.139 106.286L116.271 108.677Z" fill="#FAB60F"/>
<path d="M116.01 112.85C115.314 113.545 114.488 114.11 113.878 114.892L111.572 112.632C112.225 111.85 113.052 111.241 113.791 110.546L116.01 112.85Z" fill="#FAB60F"/>
<path d="M71.9767 119.326L70.0187 122.586L67.1904 120.977L69.1919 117.674L71.9767 119.326Z" fill="#FAB60F"/>
<path d="M72.5424 124.064C71.8462 125.107 71.2806 126.193 70.7585 127.323L67.8867 125.846C68.4089 124.672 69.018 123.585 69.7142 122.499L72.5424 124.064Z" fill="#FAB60F"/>
<path d="M91.9916 93.3337C92.8184 92.3774 93.8191 91.5951 94.7328 90.7258L92.5138 88.4221C91.6 89.3349 90.5558 90.1173 89.6855 91.117L91.9916 93.3337Z" fill="#FAB60F"/>
<path d="M96.8651 92.7685L99.6063 90.2475L97.4308 87.9004L94.6025 90.4648L96.8651 92.7685Z" fill="#FAB60F"/>
<path d="M92.9057 138.972C93.3408 138.059 93.9065 137.19 94.5156 136.408L91.6874 134.843C91.1217 135.712 90.6431 136.625 90.208 137.581L92.9057 138.972Z" fill="#FAB60F"/>
<path d="M96.9523 137.668L98.4751 135.147L95.7339 133.495L94.124 136.103L96.9523 137.668Z" fill="#FAB60F"/>
<path d="M121.623 96.4631L119.056 98.3756L117.098 95.8112L119.708 93.8552L121.623 96.4631Z" fill="#0D1351"/>
<path d="M114.444 86.4661L111.616 88.5958L109.614 86.0314L112.53 83.8582L114.444 86.4661Z" fill="#0D1351"/>
<path d="M89.4244 109.981L82.1145 104.156C82.8542 103.243 83.5068 102.244 84.3335 101.374L81.9404 99.3751L89.6419 90.9429L91.948 93.2031L89.5114 95.8544L91.6869 97.8973L89.1633 100.636L91.4694 102.678L89.0328 105.286L91.4694 107.329C90.7297 108.155 90.1205 109.068 89.4244 109.981Z" fill="#FAB60F"/>
<path d="M87.4223 112.632L79.9384 106.982L77.8063 109.807L75.2827 107.981C72.8895 110.937 71.0621 114.284 69.0605 117.544L71.8453 119.195L73.6727 116.153L76.1964 117.761L78.1544 114.588L80.7216 116.327L82.8101 113.415L85.4208 115.284L87.4223 112.632Z" fill="#FAB60F"/>
<path d="M91.8174 107.329L94.1235 104.808L91.8174 102.765L94.167 100.158L91.9044 98.0278L94.254 95.4633L92.122 93.377C92.9487 92.4208 93.9494 91.6384 94.8632 90.7691L96.8647 92.8554L99.4318 90.5083L101.52 92.812L98.9097 95.1591L101.042 97.4193C100.215 98.2016 99.3013 98.8971 98.5616 99.7664L100.781 101.94L94.0365 109.372L91.8174 107.329Z" fill="#FAB60F"/>
<path d="M85.2907 115.457C84.5945 116.37 83.8983 117.283 83.2456 118.196L80.6785 116.457L78.851 119.456L76.2403 117.804L74.4129 120.76L71.8457 119.239L69.8877 122.499L72.4113 123.89C71.8022 124.846 71.2365 125.845 70.7579 126.932L73.4991 128.366C73.9778 127.28 74.5869 126.28 75.1961 125.28L77.8938 126.802L79.6777 123.846L82.3319 125.454C84.1159 122.629 85.6823 119.63 87.8143 117.065L85.2907 115.457Z" fill="#FAB60F"/>
<path d="M96.7773 115.805L104.087 121.629C104.653 120.89 105.175 120.108 105.828 119.413L108.221 121.412L114.051 115.023L111.745 112.762L109.831 114.849L107.655 112.806L105.567 115.11L103.261 113.067L101.172 115.414L98.7353 113.371C97.9521 114.11 97.3865 114.979 96.7773 115.805Z" fill="#FAB60F"/>
<path d="M94.9061 118.282L102.39 123.889L100.693 126.15L103.217 127.975C101.346 130.192 100.04 132.756 98.5176 135.19L95.7329 133.539L97.2122 131.148L94.6886 129.54L96.2985 126.889L93.7313 125.15L95.6458 122.672L93.0352 120.803L94.9061 118.282Z" fill="#FAB60F"/>
<path d="M98.649 113.11L100.781 110.763L103.087 112.806L105.176 110.502L107.438 112.632L109.396 110.459L111.528 112.545C112.181 111.763 113.008 111.154 113.747 110.459L111.746 108.372L113.878 106.416L111.789 104.113L109.483 106.199L107.351 103.939C106.568 104.678 105.741 105.33 105.045 106.112L102.826 103.939L96.2559 111.198L98.649 113.11Z" fill="#FAB60F"/>
<path d="M92.9925 120.934C92.3833 121.803 91.6872 122.629 91.1215 123.498L93.6887 125.237L92.0788 127.888L94.6894 129.54L93.1665 132.018L95.7337 133.539L94.1673 136.147L91.6437 134.756C91.1215 135.582 90.6429 136.408 90.2513 137.277L87.5101 135.842C87.9017 134.886 88.4673 134.017 88.9895 133.148L86.2918 131.626L87.9452 128.932L85.291 127.28C87.0315 124.542 88.5544 121.629 90.5994 119.108L92.9925 120.934Z" fill="#FAB60F"/>
<path d="M89.772 114.544L87.3789 112.719L89.4239 109.981L91.7735 111.85C92.4697 110.98 93.0789 110.024 93.8621 109.242L96.2552 111.241C95.5155 111.98 94.9063 112.849 94.2537 113.719L96.7338 115.718L94.7758 118.326L92.2087 116.413L90.2506 119.021L87.7705 117.283L89.772 114.544Z" fill="#FAB60F"/>
<path d="M112.833 71.9922C93.8623 84.2059 78.2418 101.331 67.0594 120.847C55.877 140.45 49.9595 162.921 49.2198 185.349L46 185.262C46.7832 162.313 52.7877 139.32 64.2312 119.282C75.6747 99.3317 91.6433 81.8153 111.049 69.3408L112.833 71.9922Z" fill="#0D1351"/>
<path d="M133.457 103.548C119.621 112.415 108.264 124.976 100.041 139.146C91.8169 153.402 87.5963 169.702 86.9872 186.088L83.5498 185.958C84.2025 169.006 88.5536 152.142 97.0818 137.407C105.566 122.759 117.315 109.763 131.63 100.592L133.457 103.548Z" fill="#0D1351"/>
<path d="M79.0251 138.755L77.5457 141.797L74.5869 140.537L76.0663 137.407L79.0251 138.755Z" fill="#0D1351"/>
<path d="M115.444 93.1597L112.746 95.2025L110.701 92.6815L113.486 90.5952L115.444 93.1597Z" fill="#0D1351"/>
<path d="M165.438 85.9881C161.348 87.0312 157.171 87.944 153.255 89.5957C151.297 90.378 149.252 90.9431 147.294 91.8559L141.55 94.6376L126.234 64.299L133.805 60.6479C136.372 59.5178 139.027 58.6485 141.637 57.6488C146.859 55.519 152.298 54.2151 157.736 52.8677L165.438 85.9881Z" fill="#0D1351"/>
<path d="M144.422 59.6917L140.811 61.0391L139.68 57.9966L143.335 56.6492L144.422 59.6917Z" fill="#22244B"/>
<path d="M154.691 89.2913L151.907 90.291L150.775 87.2919L153.604 86.2488L154.691 89.2913Z" fill="#22244B"/>
<path d="M176.708 84.2928C177.709 84.1189 178.709 83.9451 179.754 83.9451L179.449 80.6852L182.364 80.5548L182.19 77.5557L185.105 77.4253L184.975 74.3393L188.195 74.1654L188.151 71.0794C189.152 70.9925 190.196 71.0359 191.197 71.0794L191.241 67.863L194.504 68.0368L194.634 64.8639L191.371 64.69L191.415 61.6909C190.283 61.604 189.152 61.5605 187.977 61.6909L187.934 58.4745L184.453 58.6484L184.366 55.6058L180.841 55.7797L180.624 52.6937L176.969 52.8675L176.708 49.7815C175.402 49.825 174.141 49.9988 172.879 50.2161L173.227 53.2587L169.441 53.8237L169.876 56.9098L166.309 57.4748L166.831 60.3435L163.48 60.8651L164.133 64.2119C162.958 64.4292 161.827 64.777 160.696 65.0377L161.348 67.9499L158.085 68.7757L158.868 71.8183L162.132 70.9925L162.828 74.035C163.872 73.7742 164.873 73.47 165.917 73.2961L166.526 76.2083L169.615 75.7302L170.138 78.7727L173.14 78.3381L173.575 81.4241L176.273 81.0329L176.708 84.2928Z" fill="#0D1351"/>
<path d="M165.352 70.2537C164.264 70.4276 163.22 70.7753 162.175 71.0361L161.436 67.9066C162.48 67.6458 163.524 67.3416 164.568 67.1242L163.959 64.2121L167.614 63.647L167.092 60.6045L170.573 60.0829L170.138 56.8665L173.706 56.3449L173.358 53.2589C174.576 53.085 175.794 52.8677 177.013 52.8677L177.274 55.8233L180.885 55.6494L181.146 58.9528L184.496 58.7789L184.627 61.6476L188.021 61.4738L188.064 64.8206C189.196 64.7336 190.283 64.7771 191.415 64.8206L191.328 67.8197C190.24 67.7327 189.152 67.7327 188.064 67.8197L188.108 71.0361L184.801 71.2099L184.932 74.296L182.06 74.4264L182.277 77.5124L179.145 77.6862L179.406 80.6853C178.405 80.6853 177.448 80.8592 176.49 81.0331L176.142 77.947L173.14 78.4252L172.705 75.3391L169.659 75.8172L169.137 72.7747L166.004 73.2528L165.352 70.2537Z" fill="#FAB60F"/>
<path d="M174.445 62.6039L170.921 63.1254L170.442 59.9525L174.054 59.3875L174.445 62.6039Z" fill="#0D1351"/>
<path d="M175.794 74.8609L172.617 75.3391L172.139 72.1661L175.402 71.6445L175.794 74.8609Z" fill="#0D1351"/>
<path d="M170.878 81.9022L167.875 82.3368L167.223 79.1639L170.355 78.7292L170.878 81.9022Z" fill="#FAB60F"/>
<path d="M168.398 85.2057C167.44 85.3795 166.483 85.6838 165.526 85.9011L164.786 82.7716C165.787 82.5543 166.744 82.2066 167.745 82.0327L168.398 85.2057Z" fill="#FAB60F"/>
<path d="M127.714 67.211L124.277 68.8627L122.754 66.0374L126.235 64.3423L127.714 67.211Z" fill="#FAB60F"/>
<path d="M125.626 71.4707L122.406 73.3832L120.796 70.6014L124.059 68.6455L125.626 71.4707Z" fill="#FAB60F"/>
<path d="M158.651 55.9971C159.869 55.6928 161.131 55.3451 162.349 55.0843L161.697 51.9114C160.435 52.1287 159.173 52.5199 157.911 52.8241L158.651 55.9971Z" fill="#FAB60F"/>
<path d="M163.001 57.9965L166.656 57.4315L166.134 54.2585L162.349 54.8236L163.001 57.9965Z" fill="#FAB60F"/>
<path d="M134.937 95.0289L137.635 93.638L136.068 90.8127L133.414 92.421L134.937 95.0289Z" fill="#FAB60F"/>
<path d="M138.984 96.0284L141.638 94.7679L140.202 91.8992L137.461 93.2031L138.984 96.0284Z" fill="#FAB60F"/>
<path d="M181.973 74.4264L178.753 74.6002L178.448 71.3838L181.755 71.2534L181.973 74.4264Z" fill="#0D1351"/>
<path d="M181.276 62.1691L177.708 62.3429L177.447 59.1265L181.059 58.9526L181.276 62.1691Z" fill="#0D1351"/>
<path d="M147.468 68.689L144.379 59.8656L147.729 58.6486L146.772 55.6929C150.427 54.5628 154.125 53.737 157.824 52.7373L158.564 55.8668L155.126 56.7361L155.866 59.6483L152.254 60.6045L153.125 63.6036C151.993 63.9078 150.775 64.0817 149.687 64.5163L150.645 67.5589L147.468 68.689Z" fill="#FAB60F"/>
<path d="M144.379 69.8191L141.072 61.0826L137.721 62.2996L136.547 59.4309C132.979 60.7349 129.628 62.6039 126.147 64.2121L127.583 67.0808L130.847 65.5595L132.109 68.2543L135.459 66.6461L136.721 69.4713C137.765 68.9063 138.853 68.4282 139.984 68.037L141.202 70.9926L144.379 69.8191Z" fill="#FAB60F"/>
<path d="M150.905 67.6459C151.993 67.2547 153.124 67.0374 154.212 66.7331L153.342 63.734L156.736 62.8647L155.953 59.8656L159.303 58.9963L158.65 56.0842C159.869 55.7799 161.087 55.4322 162.349 55.1714L162.914 57.9966L166.352 57.475L166.874 60.5176L163.393 61.0392L164.002 64.0817C162.871 64.2991 161.783 64.6468 160.652 64.9076L161.348 67.9501C158.128 68.8194 154.821 69.5583 151.645 70.5146L150.905 67.6459Z" fill="#FAB60F"/>
<path d="M141.029 70.9927C139.941 71.3404 138.897 71.8185 137.896 72.3401L136.634 69.5149L133.458 71.0361L132.109 68.2109L128.976 69.7322L127.627 67.0808L124.19 68.7325L125.539 71.2535L122.58 73.079L124.146 75.7738C125.147 75.1653 126.148 74.5133 127.192 73.9918L128.672 76.7301L131.761 75.2522L133.153 78.034C136.199 76.6431 139.158 74.9915 142.291 73.8179L141.029 70.9927Z" fill="#FAB60F"/>
<path d="M150.558 77.5124L153.647 86.3358L156.301 85.3361L157.258 88.2918C160 87.4225 162.828 86.8574 165.612 86.075L164.873 82.9456L162.132 83.641L161.392 80.7288L158.346 81.5112L157.476 78.5121C156.475 78.8164 155.431 78.9902 154.474 79.4249L153.516 76.3823L150.558 77.5124Z" fill="#FAB60F"/>
<path d="M147.686 78.5989L150.992 87.3354L148.338 88.2916L149.513 91.1603C146.815 92.1165 144.292 93.5943 141.681 94.7679L140.245 91.8992L142.812 90.6822L141.55 87.9873L144.379 86.6399L143.03 83.7712C143.987 83.2931 144.944 82.9019 145.945 82.5977L144.727 79.642L147.686 78.5989Z" fill="#FAB60F"/>
<path d="M153.604 76.2085C154.604 75.8173 155.649 75.6435 156.693 75.3827L157.563 78.3818L160.566 77.5994L161.349 80.5985L164.177 79.8596L164.83 82.7717C165.83 82.5544 166.788 82.2067 167.788 82.0328L167.223 79.2076L170.094 78.7729L169.572 75.7304L166.527 76.2085L165.917 73.1659C164.873 73.3833 163.872 73.6875 162.828 73.9483L162.132 70.9058C158.956 71.7316 155.779 72.4705 152.646 73.4267L153.604 76.2085Z" fill="#FAB60F"/>
<path d="M144.596 79.729C143.595 80.0333 142.638 80.5114 141.681 80.9895L142.943 83.8148L140.158 85.1622L141.507 87.9874L138.896 89.2479L140.245 91.8993L137.504 93.2032L136.155 90.6822L133.675 92.1601L132.108 89.4652C132.979 88.9436 133.849 88.3786 134.763 87.857L133.283 85.1187L136.155 83.7278L134.763 80.9461C137.721 79.5987 140.593 77.9904 143.639 76.8604L144.596 79.729Z" fill="#FAB60F"/>
<path d="M145.336 72.6878L144.248 69.8625L147.468 68.689L148.469 71.5142L151.645 70.3841L152.559 73.3397L149.6 74.4264L150.644 77.4689L147.555 78.5555L146.424 75.5999L143.334 76.6865L142.203 73.9048L145.336 72.6878Z" fill="#FAB60F"/>
<path d="M216.259 86.8573C214.214 86.3792 212.169 85.6837 210.081 85.336L203.815 84.3798C199.682 83.5105 195.374 83.7713 191.153 83.3801L191.675 49.3904C197.245 49.7816 202.858 49.6077 208.34 50.6943L216.607 51.9548C219.349 52.4329 222.046 53.2588 224.744 53.9108L216.259 86.8573Z" fill="#0D1351"/>
<path d="M209.82 53.8239L206.034 53.2589L206.426 50.0859L210.298 50.651L209.82 53.8239Z" fill="#FAB60F"/>
<path d="M205.207 84.7709L202.292 84.3363L202.684 81.1633L205.686 81.598L205.207 84.7709Z" fill="#FAB60F"/>
<path d="M226.963 90.5518L229.834 91.595L231.096 88.5524C232.053 88.8567 232.88 89.3348 233.75 89.726L234.969 86.9877L237.579 88.2482L238.928 85.4229L241.8 86.8573L243.192 84.0755L245.933 85.3795L247.456 82.5542L250.241 84.2494L251.807 81.5111L249.023 79.8159L250.459 77.208L247.456 75.7302L248.936 72.8615L245.803 71.3403L247.108 68.6454L243.932 67.1241L245.194 64.2989C244.062 63.7773 243.018 63.2123 241.843 62.8211L243.018 59.9524L239.407 58.605L238.319 61.4737L234.751 60.1697L233.707 63.0819L230.313 61.8649L229.443 64.6466C228.398 64.212 227.267 64.0381 226.179 63.6904L225.222 66.9503L221.785 66.081L221.045 68.9931L217.782 68.1673L217.042 71.2099L220.305 72.0357L219.522 75.0348L222.611 75.8172L221.785 78.7293C222.785 78.9901 223.786 79.164 224.743 79.5986L223.786 82.5108L226.614 83.5539L225.57 86.4661L228.137 87.4223L226.963 90.5518Z" fill="#0D1351"/>
<path d="M223.438 72.905L220.262 72.0791L221.088 68.9496L224.221 69.732L225.048 66.8633C226.223 67.1676 227.441 67.4284 228.572 67.9065L229.53 64.9508L232.836 66.1679L233.924 63.1253L237.318 64.3423L238.406 61.4302L241.843 62.6907L240.712 65.4724C241.843 65.8636 242.931 66.4287 244.019 66.9068L242.714 69.9928L245.759 71.4271L244.497 74.0351L247.543 75.5129L246.02 78.4685L249.023 79.9463L247.587 82.5542L244.672 81.2068L243.192 84.0755L240.233 82.6411L238.885 85.4229L236.317 84.1624L235.056 86.9877C234.098 86.553 233.185 86.0314 232.184 85.7272L231.052 88.5089L228.311 87.5527L229.399 84.6405L226.571 83.5974L227.615 80.6852L224.7 79.5986L225.657 76.643C224.7 76.2083 223.612 76.0344 222.611 75.7737L223.438 72.905Z" fill="#FAB60F"/>
<path d="M235.012 70.2972L231.705 69.0802L232.749 66.0376L236.187 67.2981L235.012 70.2972Z" fill="#0D1351"/>
<path d="M230.531 81.7718L227.528 80.6851L228.616 77.6426L231.705 78.7727L230.531 81.7718Z" fill="#0D1351"/>
<path d="M223.003 85.6404C222.089 85.2492 221.089 85.0319 220.088 84.7711L221.002 81.6851C222.002 81.9458 223.047 82.1632 224.004 82.5544L223.003 85.6404Z" fill="#FAB60F"/>
<path d="M219.217 87.5962L216.346 86.8573L217.172 83.7278L220.131 84.4667L219.217 87.5962Z" fill="#FAB60F"/>
<path d="M191.588 52.6937C190.326 52.6068 189.064 52.5633 187.802 52.6937L187.759 49.4773C189.064 49.3904 190.369 49.3904 191.631 49.4773L191.588 52.6937Z" fill="#FAB60F"/>
<path d="M187.759 55.6058L184.017 55.7797L183.887 52.5633L187.716 52.3894L187.759 55.6058Z" fill="#FAB60F"/>
<path d="M224.091 57.1273L227.789 58.0835L228.703 54.9975L224.918 54.0413L224.091 57.1273Z" fill="#FAB60F"/>
<path d="M227.05 60.952C228.268 61.2563 229.486 61.517 230.618 61.9952L231.618 58.9091C230.444 58.431 229.182 58.1702 227.964 57.8225L227.05 60.952Z" fill="#FAB60F"/>
<path d="M185.018 80.7721H188.063L188.02 77.5557L184.931 77.7295L185.018 80.7721Z" fill="#FAB60F"/>
<path d="M188.151 83.5538C189.152 83.4669 190.109 83.4669 191.11 83.5538L191.153 80.3374C190.152 80.2505 189.108 80.207 188.107 80.3374L188.151 83.5538Z" fill="#FAB60F"/>
<path d="M236.231 84.1624C235.273 83.6843 234.316 83.2062 233.315 82.8585L234.534 79.9028C235.578 80.2506 236.579 80.7287 237.536 81.2068L236.231 84.1624Z" fill="#0D1351"/>
<path d="M241.322 72.9486C240.234 72.427 239.19 71.8619 238.059 71.5142L239.277 68.5151C240.452 68.9063 241.496 69.4714 242.584 69.993L241.322 72.9486Z" fill="#0D1351"/>
<path d="M208.384 63.2124L209.776 53.9543L213.301 54.4759L213.823 51.4333C217.608 51.868 221.307 52.9546 225.005 53.8674L224.178 56.9969L220.741 56.1276L220.045 59.0397L216.433 58.127L215.824 61.1695L212.3 60.561L211.734 63.6905L208.384 63.2124Z" fill="#FAB60F"/>
<path d="M205.121 62.6907L206.252 53.4326C205.077 53.3022 203.903 52.998 202.728 52.998L203.032 49.912L191.632 49.3469L191.589 52.5199L195.113 52.6937L194.983 55.6928L198.725 55.8667L198.507 58.9527L202.075 59.0831L201.77 62.2995C202.902 62.2995 203.99 62.5603 205.121 62.6907Z" fill="#FAB60F"/>
<path d="M211.865 63.9512L215.258 64.4728L215.868 61.4302L219.261 62.2995L219.958 59.257L223.308 60.1263L224.048 57.2141L227.746 58.1703L226.963 60.9521C228.094 61.2564 229.226 61.4737 230.27 61.9083L229.313 64.864C228.225 64.4293 227.05 64.212 225.919 63.9077L225.048 66.9068L221.742 66.0375L221.002 69.0366C217.739 68.2108 214.562 67.2545 211.212 66.8634L211.865 63.9512Z" fill="#FAB60F"/>
<path d="M201.597 62.2562L198.159 62.0824L198.377 58.9963L194.852 58.8225L194.983 55.7364L191.546 55.5626L191.589 52.5635C190.327 52.4766 189.065 52.4331 187.804 52.5635L187.847 55.4322L184.366 55.5626L184.497 58.6486L188.021 58.4748L188.065 61.5608C189.196 61.4738 190.371 61.5173 191.502 61.6042L191.459 64.6903L201.51 65.2118L201.597 62.2562Z" fill="#FAB60F"/>
<path d="M206.992 72.4705L205.6 81.7285L208.384 82.1632L207.862 85.2057C210.734 85.51 213.475 86.3793 216.303 87.0747L217.13 83.9452L214.389 83.2063L215.085 80.2942L212.083 79.5118L212.692 76.4692L209.559 76.0781L210.125 72.9486L206.992 72.4705Z" fill="#FAB60F"/>
<path d="M203.99 71.9923L202.858 81.2503C201.945 81.1199 201.031 80.9026 200.074 80.9026L199.769 83.9886L191.11 83.554L191.154 80.3376L193.982 80.468L194.113 77.4689L197.245 77.6427L197.463 74.5567L200.596 74.774L200.9 71.6011C201.945 71.6011 202.945 71.9053 203.99 71.9923Z" fill="#FAB60F"/>
<path d="M210.299 72.7747L213.432 73.2528L212.822 76.2954L215.825 77.0778L215.129 80.1203L217.957 80.8592L217.217 83.7714L220.176 84.5103L220.959 81.7285C221.873 81.9893 222.874 82.1197 223.744 82.5109L224.701 79.5553C223.744 79.1641 222.7 78.9902 221.742 78.7294L222.613 75.7303L219.523 74.948L220.306 71.9489C217.13 71.1665 213.997 70.2103 210.734 69.8625L210.299 72.7747Z" fill="#FAB60F"/>
<path d="M200.726 71.6444L197.55 71.4706L197.332 74.5566L194.243 74.3827L194.112 77.4688L191.197 77.2949L191.154 80.3375C190.153 80.2505 189.109 80.2071 188.108 80.3375L188.064 77.4688L185.149 77.6426L185.019 74.5566L188.108 74.3827L188.064 71.2967C189.109 71.2098 190.196 71.2533 191.241 71.2967L191.328 68.1672L201.074 68.6454L200.726 71.6444Z" fill="#FAB60F"/>
<path d="M204.642 65.6898L204.99 62.6907L208.384 63.2123L207.949 66.2113L211.256 66.7329L210.734 69.7755L207.601 69.2974L207.122 72.4703L203.902 71.9922L204.294 68.8193C203.206 68.6889 202.162 68.4281 201.074 68.4281L201.335 65.429C202.423 65.342 203.511 65.5594 204.642 65.6898Z" fill="#FAB60F"/>
<path d="M253.026 64.4293C232.881 54.3454 210.298 48.7819 187.803 49.2166C165.308 49.5643 142.812 55.3451 122.884 65.9072L121.361 63.0819C141.725 52.3026 164.742 46.3479 187.759 46.0436C210.777 45.609 233.925 51.2594 254.506 61.6041L253.026 64.4293Z" fill="#0D1351"/>
<path d="M235.927 98.0713C221.263 90.7692 204.903 86.6835 188.412 86.9443C171.922 87.2051 155.649 91.3777 141.116 98.9841L139.506 95.9415C154.561 88.0744 171.356 83.7279 188.412 83.4671C205.469 83.1628 222.395 87.3789 237.537 94.9419L235.927 98.0713Z" fill="#0D1351"/>
<path d="M178.23 68.4715C177.099 68.4715 176.011 68.6889 174.88 68.8627L174.488 65.6898C175.62 65.5159 176.751 65.2986 177.926 65.2986L178.23 68.4715Z" fill="#0D1351"/>
<path d="M236.013 77.1646L232.837 75.991L234.012 72.9919L237.275 74.1655L236.013 77.1646Z" fill="#0D1351"/>
<path d="M267.212 116.979C264.514 113.675 261.077 111.111 258.031 108.155C256.464 106.721 254.637 105.591 252.983 104.287C251.243 103.07 249.677 101.592 247.806 100.592L266.472 72.2097C268.909 73.6006 270.997 75.4696 273.303 77.0778C275.522 78.7729 277.872 80.3377 279.917 82.2067C284.007 86.0316 288.402 89.5088 292.013 93.8119L267.212 116.979Z" fill="#0D1351"/>
<path d="M279.482 85.5969C278.525 84.771 277.611 83.8583 276.61 83.0759L278.655 80.5984C279.7 81.3808 280.613 82.337 281.614 83.1628L279.482 85.5969Z" fill="#22244B"/>
<path d="M258.945 109.242C258.205 108.59 257.509 107.851 256.726 107.286L258.771 104.808C259.597 105.417 260.293 106.156 261.033 106.808L258.945 109.242Z" fill="#22244B"/>
<path d="M274.304 125.846L276.131 128.28L278.785 126.367C279.351 127.149 280.004 127.888 280.526 128.758L283.006 127.106L284.485 129.584L287.096 127.932L288.749 130.67L291.404 129.105L293.014 131.713L295.842 130.149C296.451 131.061 296.93 132.018 297.408 133.017L300.193 131.539C299.758 130.54 299.236 129.584 298.67 128.671L301.281 127.193L299.497 124.281L302.281 122.629L300.497 119.673L303.021 118.065L301.194 115.066L303.761 113.328C303.152 112.284 302.325 111.328 301.629 110.328L304.152 108.546L301.846 105.46L299.41 107.286L297.104 104.243L294.667 106.156C293.927 105.2 293.275 104.2 292.448 103.331L290.185 105.2L287.923 102.679L285.356 104.939L282.962 102.287L280.787 104.33L278.524 101.853L276.262 104.069L278.524 106.547L276.262 108.677L278.394 111.024L276.131 113.023L278.22 115.327L275.827 117.326C276.566 118.022 277.045 118.891 277.698 119.717L275.261 121.629L276.871 123.846L274.304 125.846Z" fill="#0D1351"/>
<path d="M280.7 109.068L278.524 106.677L280.874 104.461L283.049 106.851L285.268 104.852L287.749 107.59L290.142 105.591C290.968 106.417 291.578 107.416 292.317 108.329L294.841 106.33L297.016 109.198L299.497 107.329L301.716 110.285L299.279 112.024C299.975 112.98 300.758 113.893 301.368 114.936L298.626 116.848L300.367 119.717L297.93 121.238L299.714 124.107L296.842 125.802L298.583 128.671L295.972 130.149L294.275 127.367L291.491 129.018L289.794 126.193L287.183 127.845L285.704 125.411L283.136 127.149C282.614 126.237 281.918 125.454 281.309 124.628L278.872 126.367L277.132 124.02L279.612 122.151L277.828 119.717L280.265 117.804C279.612 116.979 279.09 116.109 278.35 115.37L280.743 113.371L278.611 111.024L280.7 109.068Z" fill="#FAB60F"/>
<path d="M291.926 113.023L289.794 110.198L292.318 108.199L294.493 111.111L291.926 113.023Z" fill="#0D1351"/>
<path d="M282.005 120.369L280.047 117.805L282.571 115.762L284.572 118.413L282.005 120.369Z" fill="#0D1351"/>
<path d="M273.565 119.543L271.52 117.283L273.913 115.153L276.045 117.5L273.565 119.543Z" fill="#FAB60F"/>
<path d="M269.257 119.195L267.299 117.022L269.648 114.805L271.693 117.066L269.257 119.195Z" fill="#FAB60F"/>
<path d="M264.644 74.861L261.381 72.8616L263.078 70.1233L266.428 72.1661L264.644 74.861Z" fill="#FAB60F"/>
<path d="M259.815 75.339L256.595 73.3831L258.205 70.6013L261.511 72.6007L259.815 75.339Z" fill="#FAB60F"/>
<path d="M289.75 96.0719L292.317 98.8972L294.71 96.7674L292.1 93.8552L289.75 96.0719Z" fill="#FAB60F"/>
<path d="M290.142 100.853L292.665 103.635L295.145 101.592L292.578 98.7234L290.142 100.853Z" fill="#FAB60F"/>
<path d="M244.063 95.0288L246.587 96.7674L248.284 94.0291L245.586 92.4209L244.063 95.0288Z" fill="#FAB60F"/>
<path d="M245.194 99.158L247.718 100.679L249.458 97.9844L246.848 96.4197L245.194 99.158Z" fill="#FAB60F"/>
<path d="M285.617 125.368C285.051 124.455 284.355 123.629 283.746 122.76L286.357 120.891C287.009 121.803 287.706 122.629 288.315 123.542L285.617 125.368Z" fill="#0D1351"/>
<path d="M295.885 118.63C295.276 117.631 294.493 116.718 293.797 115.762L296.408 113.893C297.104 114.892 297.887 115.805 298.54 116.848L295.885 118.63Z" fill="#0D1351"/>
<path d="M273.216 92.7252L279.351 85.6404L281.962 88.031L284.05 85.7273C286.922 88.2483 289.707 90.8562 292.187 93.7249L289.837 95.9416L287.444 93.3337L285.312 95.4635C284.485 94.5073 283.528 93.7249 282.614 92.8556L280.439 95.0723L277.828 92.6383L275.696 94.9854L273.216 92.7252Z" fill="#FAB60F"/>
<path d="M270.78 90.552L276.697 83.3368L273.869 81.207L275.783 78.773C272.694 76.5562 269.779 74.0787 266.515 72.0793L264.731 74.7742C265.776 75.3827 266.733 76.0347 267.69 76.7301L265.993 79.1642L268.996 81.3809L267.168 83.9019L270.04 85.9882L268.082 88.5091L270.78 90.552Z" fill="#FAB60F"/>
<path d="M275.74 95.2896L278.264 97.5932L280.439 95.3765C281.309 96.1589 282.223 96.8978 282.963 97.8105L285.182 95.6373L287.488 98.1582L289.664 96.1154L292.231 98.9406L290.055 100.853L292.361 103.418L289.968 105.417L287.619 102.809L285.269 104.852L282.963 102.331L280.7 104.461C279.569 103.244 278.481 101.94 277.263 100.81L273.564 97.4193L275.74 95.2896Z" fill="#FAB60F"/>
<path d="M267.951 88.3786L265.21 86.3358L267.037 83.8148L264.209 81.7285L265.993 79.164C265.079 78.4251 264.122 77.8166 263.121 77.2516L264.775 74.7741L261.511 72.7747L259.989 75.2087L256.986 73.3832L255.42 76.078L258.422 77.9035L256.769 80.5549L259.684 82.337L257.987 84.9449C260.859 86.6835 263.426 88.9002 266.124 90.8127L267.951 88.3786Z" fill="#FAB60F"/>
<path d="M267.081 99.8101L260.946 106.895L263.035 108.807L260.946 111.111C263.122 113.023 265.254 114.936 267.125 117.196L269.474 114.979L267.56 112.893L269.692 110.807C269.039 109.981 268.213 109.329 267.429 108.633L269.605 106.417L267.255 104.33L269.387 101.983L267.081 99.8101Z" fill="#FAB60F"/>
<path d="M264.819 97.7672L258.901 104.982L256.639 103.287L254.724 105.721C252.374 104.07 250.199 102.157 247.719 100.636L249.503 97.9411C250.329 98.4192 251.113 98.8973 251.852 99.5058L253.549 97.0283L256.073 98.8973L257.9 96.3763L260.381 98.2888L262.339 95.7678L264.819 97.7672Z" fill="#FAB60F"/>
<path d="M269.692 101.896L272.042 104.026L269.866 106.243C270.606 106.938 271.432 107.59 272.085 108.416L269.866 110.589L271.824 112.762L269.648 114.805L271.693 117.065L273.869 115.153L275.827 117.283L278.22 115.283L276.132 112.98L278.481 110.937L276.349 108.59L278.612 106.46C277.48 105.286 276.48 103.983 275.261 102.896L271.65 99.5925L269.692 101.896Z" fill="#FAB60F"/>
<path d="M262.164 95.8111L259.597 93.8986L257.769 96.4196L255.289 94.5506L253.505 97.115C252.765 96.5065 251.939 95.9849 251.112 95.5068L249.459 97.9843L246.848 96.4196L248.371 93.9855L245.891 92.4642L247.457 89.7694L250.111 91.3776L251.765 88.7263L254.462 90.3779L256.159 87.77C258.944 89.4652 261.424 91.595 264.078 93.5074L262.164 95.8111Z" fill="#FAB60F"/>
<path d="M268.734 92.812L270.649 90.4648C271.562 91.1603 272.346 91.9861 273.216 92.725L271.258 95.0287L273.738 97.2889L271.649 99.5925L269.3 97.4627L267.211 99.8968C266.385 99.1579 265.645 98.419 264.775 97.7235L266.82 95.246L264.209 93.2901L266.08 90.8995L268.734 92.812Z" fill="#FAB60F"/>
<path d="M291.882 161.313C291.055 157.14 289.184 153.315 287.879 149.317C287.183 147.317 286.095 145.492 285.225 143.579C284.267 141.71 283.528 139.711 282.396 137.929L312.115 121.369C313.594 123.759 314.638 126.367 315.9 128.845C317.075 131.366 318.424 133.843 319.381 136.451C321.208 141.71 323.558 146.839 324.733 152.316L291.882 161.313Z" fill="#0D1351"/>
<path d="M317.336 139.189C316.858 138.016 316.509 136.799 315.987 135.625L318.946 134.365C319.468 135.538 319.86 136.799 320.338 138.016L317.336 139.189Z" fill="#FAB60F"/>
<path d="M288.184 150.664C287.836 149.751 287.575 148.795 287.14 147.926L290.098 146.665C290.49 147.578 290.795 148.578 291.143 149.491L288.184 150.664Z" fill="#FAB60F"/>
<path d="M294.015 172.44L294.493 175.439L297.757 175.005L298.192 177.873L301.15 177.569C301.281 178.525 301.281 179.481 301.325 180.438L304.414 180.177L304.588 183.393L307.677 183.219L307.851 186.262L311.071 186.175L311.245 189.435H314.421L314.247 186.175L317.25 186.088L317.076 182.654L320.295 182.481L320.121 179.003L323.124 178.786C323.037 177.612 323.037 176.439 322.906 175.309L325.995 175.005L325.473 171.353L328.563 170.962L327.997 167.137L324.864 167.702L324.298 163.921L321.253 164.486C321.079 163.312 320.905 162.139 320.556 160.965L317.685 161.574L316.858 158.314L313.551 159.14L312.681 155.706L309.809 156.488L308.983 153.229L305.937 154.141L306.763 157.401L303.761 158.227L304.544 161.313L301.629 162.008L302.412 165.008L299.367 165.66C299.671 166.616 299.802 167.615 299.932 168.615L296.886 169.18L297.278 171.875L294.015 172.44Z" fill="#0D1351"/>
<path d="M307.502 160.574L306.676 157.401L309.765 156.532L310.548 159.661L313.464 158.966L314.377 162.53L317.423 161.878C317.771 163.008 317.902 164.182 318.076 165.312L321.252 164.703L321.818 168.268L324.907 167.789L325.473 171.441L322.514 171.832L323.036 175.396L319.729 175.787C319.86 176.917 319.86 178.004 319.947 179.134L317.075 179.351L317.249 182.741L313.899 182.915L314.073 186.262L311.07 186.349L310.896 183.089L307.677 183.263L307.502 179.96L304.413 180.22C304.37 179.264 304.37 178.308 304.239 177.352L301.15 177.656L300.671 174.57L297.712 174.961L297.277 172.092L300.367 171.614L299.932 168.659L302.977 168.094C302.847 167.051 302.673 166.051 302.368 165.051L305.414 164.399L304.631 161.313L307.502 160.574Z" fill="#FAB60F"/>
<path d="M315.596 169.267L315.03 165.79L318.207 165.181L318.772 168.789L315.596 169.267Z" fill="#0D1351"/>
<path d="M303.369 171.136L302.891 167.963L306.067 167.355L306.546 170.615L303.369 171.136Z" fill="#0D1351"/>
<path d="M296.277 166.529L295.537 163.573L298.67 162.834L299.453 165.833L296.277 166.529Z" fill="#FAB60F"/>
<path d="M292.665 164.225L291.926 161.357L295.015 160.531L295.798 163.443L292.665 164.225Z" fill="#FAB60F"/>
<path d="M309.2 122.846L307.198 119.586L309.983 117.935L311.984 121.282L309.2 122.846Z" fill="#FAB60F"/>
<path d="M304.675 121.021L302.717 117.848L305.458 116.153L307.416 119.413L304.675 121.021Z" fill="#FAB60F"/>
<path d="M321.557 153.272L322.514 156.923L325.647 156.184L324.689 152.403L321.557 153.272Z" fill="#FAB60F"/>
<path d="M319.686 157.705L320.599 161.313L323.732 160.661L322.818 156.923L319.686 157.705Z" fill="#FAB60F"/>
<path d="M281.57 131.279L283.006 133.93L285.791 132.278L284.181 129.627L281.57 131.279Z" fill="#FAB60F"/>
<path d="M280.656 135.408L282.223 137.929L285.007 136.321L283.441 133.756L280.656 135.408Z" fill="#FAB60F"/>
<path d="M304.239 177.265L303.761 174.092L306.937 173.657L307.416 176.917L304.239 177.265Z" fill="#0D1351"/>
<path d="M316.51 176.048L315.944 172.571L319.164 172.136L319.686 175.744L316.51 176.048Z" fill="#0D1351"/>
<path d="M308.504 142.667L317.206 139.233L318.424 142.536L321.34 141.493C322.689 145.057 323.994 148.621 324.821 152.359L321.731 153.229L320.818 149.795L317.946 150.664C317.685 149.447 317.163 148.317 316.771 147.144L313.812 148.143L312.637 144.796L309.635 145.883L308.504 142.667Z" fill="#FAB60F"/>
<path d="M307.328 139.581L315.944 135.929L314.421 132.713L317.249 131.409C315.552 128.019 314.073 124.498 312.158 121.195L309.33 122.76C309.983 123.759 310.505 124.802 311.027 125.889L308.373 127.28L309.983 130.627L307.198 131.974L308.808 135.147L305.893 136.451L307.328 139.581Z" fill="#FAB60F"/>
<path d="M309.505 146.057L310.679 149.273L313.638 148.317C314.03 149.404 314.508 150.49 314.726 151.62L317.685 150.708L318.555 154.054L321.427 153.272L322.384 156.967L319.599 157.662L320.469 161.009L317.424 161.661L316.553 158.271L313.551 159.009L312.681 155.706L309.679 156.532C308.982 153.272 307.808 150.143 306.633 147.013L309.505 146.057Z" fill="#FAB60F"/>
<path d="M305.806 136.364L304.327 133.278L307.112 131.931L305.589 128.758L308.33 127.323C307.851 126.28 307.329 125.237 306.676 124.281L309.287 122.803L307.329 119.543L304.849 121.021L303.065 118.065L300.454 119.717L302.282 122.716L299.628 124.281L301.412 127.236L298.714 128.758C300.411 131.626 301.673 134.756 303.196 137.755L305.806 136.364Z" fill="#FAB60F"/>
<path d="M299.758 146.1L291.056 149.534L292.013 152.185L289.098 153.229C290.098 155.923 291.143 158.618 291.708 161.444L294.798 160.574L294.101 157.836L296.973 156.967C296.756 155.923 296.321 155.011 295.972 154.011L298.931 153.011L297.8 150.099L300.802 149.013L299.758 146.1Z" fill="#FAB60F"/>
<path d="M298.713 143.231L290.098 146.883L288.88 144.362L286.052 145.666C284.746 143.101 283.659 140.406 282.223 137.929L285.051 136.364C285.573 137.146 286.008 137.972 286.4 138.842L289.054 137.451L290.403 140.276L293.187 138.928L294.493 141.754L297.408 140.45L298.713 143.231Z" fill="#FAB60F"/>
<path d="M301.063 149.099L302.151 152.098L299.192 153.098C299.54 154.054 299.975 155.011 300.193 156.01L297.234 156.923L297.93 159.748L295.059 160.531L295.798 163.486L298.583 162.791L299.323 165.616L302.368 164.964L301.585 161.965L304.588 161.226L303.804 158.14L306.807 157.314C306.11 154.098 304.979 151.055 303.848 148.013L301.063 149.099Z" fill="#FAB60F"/>
<path d="M297.234 140.276L295.842 137.407L293.057 138.755L291.709 135.973L288.967 137.407C288.576 136.538 288.141 135.669 287.618 134.843L285.008 136.321L283.441 133.713L285.922 132.235L284.399 129.757L287.009 128.106L288.619 130.757L291.273 129.192L292.927 131.887L295.625 130.366C297.278 133.148 298.496 136.19 299.976 139.102L297.234 140.276Z" fill="#FAB60F"/>
<path d="M304.501 140.624L307.286 139.45C307.721 140.493 308.112 141.58 308.504 142.666L305.676 143.753L306.807 146.883L303.892 147.926L302.804 144.927L299.845 146.1C299.454 145.101 299.105 144.057 298.714 143.058L301.673 141.797L300.237 138.842L302.978 137.581L304.501 140.624Z" fill="#FAB60F"/>
<path d="M329.607 181.916C329.258 170.658 326.909 159.531 323.907 148.708C323.123 146.013 322.036 143.405 321.122 140.754C320.078 138.146 319.338 135.408 317.989 132.887C315.509 127.845 313.29 122.629 310.201 117.891C308.721 115.501 307.285 113.067 305.762 110.72L300.715 103.939C297.495 99.2884 293.405 95.3765 289.663 91.1604C287.749 89.1175 285.573 87.3355 283.485 85.3796C281.353 83.554 279.395 81.4677 277.089 79.8595C272.563 76.5127 268.169 72.9485 263.252 70.1668L264.949 67.4285C269.996 70.2537 274.478 73.9048 279.09 77.3385C281.483 78.9902 283.441 81.0765 285.617 82.989C287.705 84.9449 289.968 86.8139 291.926 88.9002C295.711 93.2033 299.932 97.2021 303.195 101.983L308.373 108.894C309.939 111.328 311.419 113.806 312.898 116.24C316.075 121.064 318.337 126.411 320.861 131.583C322.21 134.147 322.993 136.929 324.037 139.624C324.994 142.362 326.082 145.014 326.909 147.795C329.998 158.879 332.391 170.267 332.739 181.785L329.607 181.916Z" fill="#0D1351"/>
<path d="M291.926 183.958C291.752 175.7 289.924 167.659 287.792 159.748C287.227 157.792 286.4 155.88 285.747 153.967C284.964 152.055 284.529 150.056 283.528 148.23C281.657 144.579 280.178 140.711 277.828 137.32C269.431 123.238 257.77 110.937 243.672 102.461L245.499 99.5491C260.032 108.372 272.128 121.021 280.787 135.582C283.18 139.102 284.746 143.101 286.661 146.839C287.705 148.708 288.184 150.794 288.967 152.75C289.663 154.75 290.533 156.706 291.099 158.749C293.275 166.92 295.146 175.265 295.363 183.784L291.926 183.958Z" fill="#0D1351"/>
<path d="M288.75 119.282L286.748 116.588L289.315 114.632L291.404 117.413L288.75 119.282Z" fill="#0D1351"/>
<path d="M310.07 173.57L309.548 170.223L312.724 169.745L313.246 173.179L310.07 173.57Z" fill="#0D1351"/>
</g>
<defs>
<filter id="filter0_d_197_1773" x="6" y="6" width="368" height="368" filterUnits="userSpaceOnUse" color-interpolation-filters="sRGB">
<feFlood flood-opacity="0" result="BackgroundImageFix"/>
<feColorMatrix in="SourceAlpha" type="matrix" values="0 0 0 0 0 0 0 0 0 0 0 0 0 0 0 0 0 0 127 0" result="hardAlpha"/>
<feOffset/>
<feGaussianBlur stdDeviation="2"/>
<feComposite in2="hardAlpha" operator="out"/>
<feColorMatrix type="matrix" values="0 0 0 0 0 0 0 0 0 0 0 0 0 0 0 0 0 0 0.25 0"/>
<feBlend mode="normal" in2="BackgroundImageFix" result="effect1_dropShadow_197_1773"/>
<feBlend mode="normal" in="SourceGraphic" in2="effect1_dropShadow_197_1773" result="shape"/>
</filter>
<filter id="filter1_d_197_1773" x="18" y="18" width="344" height="344" filterUnits="userSpaceOnUse" color-interpolation-filters="sRGB">
<feFlood flood-opacity="0" result="BackgroundImageFix"/>
<feColorMatrix in="SourceAlpha" type="matrix" values="0 0 0 0 0 0 0 0 0 0 0 0 0 0 0 0 0 0 127 0" result="hardAlpha"/>
<feOffset/>
<feGaussianBlur stdDeviation="2"/>
<feComposite in2="hardAlpha" operator="out"/>
<feColorMatrix type="matrix" values="0 0 0 0 0 0 0 0 0 0 0 0 0 0 0 0 0 0 0.25 0"/>
<feBlend mode="normal" in2="BackgroundImageFix" result="effect1_dropShadow_197_1773"/>
<feBlend mode="normal" in="SourceGraphic" in2="effect1_dropShadow_197_1773" result="shape"/>
</filter>
<filter id="filter2_d_197_1773" x="37" y="37" width="306" height="306" filterUnits="userSpaceOnUse" color-interpolation-filters="sRGB">
<feFlood flood-opacity="0" result="BackgroundImageFix"/>
<feColorMatrix in="SourceAlpha" type="matrix" values="0 0 0 0 0 0 0 0 0 0 0 0 0 0 0 0 0 0 127 0" result="hardAlpha"/>
<feOffset/>
<feGaussianBlur stdDeviation="2"/>
<feComposite in2="hardAlpha" operator="out"/>
<feColorMatrix type="matrix" values="0 0 0 0 0 0 0 0 0 0 0 0 0 0 0 0 0 0 0.25 0"/>
<feBlend mode="normal" in2="BackgroundImageFix" result="effect1_dropShadow_197_1773"/>
<feBlend mode="normal" in="SourceGraphic" in2="effect1_dropShadow_197_1773" result="shape"/>
</filter>
<clipPath id="clip0_197_1773">
<rect width="287" height="287" fill="white" transform="translate(46 46)"/>
</clipPath>
</defs>
</svg>
