<svg width="278" height="25" viewBox="0 0 278 25" fill="none" xmlns="http://www.w3.org/2000/svg">
<mask id="mask0_30_3837" style="mask-type:alpha" maskUnits="userSpaceOnUse" x="0" y="0" width="278" height="25">
<rect y="0.891968" width="278" height="24" fill="#D9D9D9"/>
</mask>
<g mask="url(#mask0_30_3837)">
<g clip-path="url(#clip0_30_3837)">
<path d="M18.4955 2.83325H1.854V23.3014H18.4955V2.83325Z" fill="#22244B"/>
<path d="M11.102 2.60779H9.16455V4.54902H11.102V2.60779Z" fill="#22244B"/>
<path d="M11.102 21.4646H9.16455V23.4003H11.102V21.4646Z" fill="#22244B"/>
<path d="M25.9489 23.4719H27.9522V21.4977H29.8183V19.6994H31.6186V17.8242H33.5506V15.9599H35.3509V14.0187H37.217V12.116H35.4003V10.3122H33.5341V8.37099H31.6954V6.57274H29.8677V4.70299H28.0071V2.83325H26.0861V4.6645H24.1486V6.53974H22.2825V8.305H20.4877V10.3452H18.5502V12.149H16.6841V14.0517H18.5996V15.9215H20.4657V17.7252H22.3374V19.5949H24.2035V21.4647L25.9379 21.4812L25.9489 23.4719Z" fill="#22244B"/>
<path d="M20.4657 14.0903H18.5996V12.149H20.3999V10.3453H22.4032V8.47553H24.2694V6.53979H26.1355V4.66455H28.0071V6.4683H29.8677L29.9062 8.47553H31.6954V10.2188L33.5341 10.2078V12.215H35.4003V14.0188H33.5341V15.96H31.5967V17.8242H29.8677V19.6995H27.9357V21.4977H26.0696V19.628H24.2035V17.7582H22.3374V15.8885H20.4657V14.0903Z" fill="#FAB710"/>
<path d="M26.1411 8.40955H24.2036V10.3508H26.1411V8.40955Z" fill="#22244B"/>
<path d="M26.0859 15.8335H24.1484V17.7747H26.0859V15.8335Z" fill="#22244B"/>
<path d="M22.458 19.5785H20.5205V21.5197H22.458V19.5785Z" fill="#FAB710"/>
<path d="M20.4878 21.3438H18.5503V23.285H20.4878V21.3438Z" fill="#FAB710"/>
<path d="M1.82078 2.84985H-0.116699V4.79109H1.82078V2.84985Z" fill="#FAB710"/>
<path d="M20.4878 2.84985H18.5503V4.79109H20.4878V2.84985Z" fill="#FAB710"/>
<path d="M22.458 4.61511H20.5205V6.55635H22.458V4.61511Z" fill="#FAB710"/>
<path d="M1.82078 21.4482H-0.116699V23.3895H1.82078V21.4482Z" fill="#FAB710"/>
<path d="M29.8183 15.8885H27.8809V17.8298H29.8183V15.8885Z" fill="#22244B"/>
<path d="M29.8735 8.47546H27.936V10.4167H29.8735V8.47546Z" fill="#22244B"/>
<path d="M11.0859 10.2627V4.63146H12.8807V2.76172H18.5505V4.70295H16.7557V6.5012H14.8182V8.37095L12.9246 8.33795V10.2627H11.0859Z" fill="#FAB710"/>
<path d="M9.28532 10.2627V4.63146H7.49054V2.76172H1.8208V4.70295H3.61558V6.5012H5.55306V8.37095L7.44663 8.33795V10.2627H9.28532Z" fill="#FAB710"/>
<path d="M13.0175 10.3782H14.8837V8.51395H16.7553V6.64421H18.55V4.84045H20.4875V6.57272H22.2823V8.44246H20.4162V10.3122H18.55V12.1819H12.9517L13.0175 10.3782Z" fill="#FAB710"/>
<path d="M7.34779 10.2407H5.48166V8.371H3.61553V6.50126H1.82076V4.703H-0.116726V6.43526H-1.91699V8.30501H-0.0453742V10.1747H1.82076V12.0445H7.41914L7.34779 10.2407Z" fill="#FAB710"/>
<path d="M11.0859 15.9049V21.5361H12.8807V23.4059H18.5505V21.4646H16.7557V19.6609H14.8182V17.7911L12.9246 17.8296V15.9049H11.0859Z" fill="#FAB710"/>
<path d="M9.28532 15.9049V21.5361H7.49054V23.4059H1.8208V21.4646H3.61558V19.6609H5.55306V17.7911L7.44663 17.8296V15.9049H9.28532Z" fill="#FAB710"/>
<path d="M13.0175 15.784H14.8837V17.6537H16.7553V19.5235H18.55V21.3272H20.4875V19.5949H22.2823V17.7252H20.4162V15.8555H18.55V13.9857H12.9517L13.0175 15.784Z" fill="#FAB710"/>
<path d="M7.34779 15.9214H5.48166V17.7912H3.61553V19.6664H1.82076V21.4647H-0.116726V19.7324H-1.91699V17.8627H-0.0453742V15.9929H1.82076V14.1232H7.41914L7.34779 15.9214Z" fill="#FAB710"/>
<path d="M9.21976 12.0774V10.2627H11.0859V12.0774H12.952V13.9472H11.1353V15.8719H9.21976V13.9472H7.34814V12.1324L9.21976 12.0774Z" fill="#FAB710"/>
<path d="M52.0966 2.93774H35.4551V23.4059H52.0966V2.93774Z" fill="#22244B"/>
<path d="M44.7036 2.71216H42.7661V4.65339H44.7036V2.71216Z" fill="#22244B"/>
<path d="M44.7036 21.5691H42.7661V23.5103H44.7036V21.5691Z" fill="#22244B"/>
<path d="M59.5446 23.5764H61.5534V21.6022H63.4195V19.8039H65.2143V17.9287H67.1518V16.0589H68.9466V14.1232H70.8127V12.215H69.0015V10.4167H67.1353V8.47548H65.2911V6.67723H63.4689V4.80749H61.6028V2.93774H59.6818V4.76899H57.7498V6.64423H55.8837V8.40949H54.0834V10.4497H52.1514V12.2535H50.2798V14.1562H52.2008V16.0259H54.0669V17.8242H55.9331V19.6994H57.7992V21.5692L59.5391 21.5857L59.5446 23.5764Z" fill="#22244B"/>
<path d="M54.0668 14.1947H52.2007V12.2535H53.9955V10.4498H56.0043V8.58002H57.8704V6.64428H59.7366V4.76904H61.6027V6.57279H63.4688L63.5017 8.58002H65.291V10.3233L67.1352 10.3123V12.3195H69.0013V14.1233H67.1352V16.059H65.1977V17.9287H63.4688V19.804H61.5313V21.6022H59.6652V19.7325H57.7991V17.8627H55.9329V15.993H54.0668V14.1947Z" fill="#FAB710"/>
<path d="M59.7368 8.51404H57.7993V10.4553H59.7368V8.51404Z" fill="#22244B"/>
<path d="M59.687 15.938H57.7495V17.8792H59.687V15.938Z" fill="#22244B"/>
<path d="M56.0537 19.683H54.1162V21.6242H56.0537V19.683Z" fill="#FAB710"/>
<path d="M54.0888 21.4482H52.1514V23.3895H54.0888V21.4482Z" fill="#FAB710"/>
<path d="M35.4165 2.95435H33.479V4.89558H35.4165V2.95435Z" fill="#FAB710"/>
<path d="M33.4516 4.7196H31.5142V6.66084H33.4516V4.7196Z" fill="#FAB710"/>
<path d="M54.0888 2.95435H52.1514V4.89558H54.0888V2.95435Z" fill="#FAB710"/>
<path d="M56.0537 4.7196H54.1162V6.66084H56.0537V4.7196Z" fill="#FAB710"/>
<path d="M31.5142 21.7232L33.4462 21.8277V19.8865H31.5142V21.7232Z" fill="#FAB710"/>
<path d="M35.4165 21.5527H33.479V23.494H35.4165V21.5527Z" fill="#FAB710"/>
<path d="M63.4139 15.993H61.4819V17.9343H63.4139V15.993Z" fill="#22244B"/>
<path d="M63.4687 8.57996H61.5312V10.5212H63.4687V8.57996Z" fill="#22244B"/>
<path d="M44.6816 10.3617V4.73595H46.4819V2.86621H52.1516V4.80744H50.3514V6.6057H48.4139V8.47544L46.5258 8.44244V10.3617H44.6816Z" fill="#FAB710"/>
<path d="M42.887 10.3617V4.73595H41.0867V2.86621H35.417V4.80744H37.2173V6.6057H39.1492V8.47544L41.0428 8.44244V10.3617H42.887Z" fill="#FAB710"/>
<path d="M46.6192 10.4827H48.4853V8.61294H50.3515V6.7432H52.1517V4.94495H54.0837V6.67721H55.884V8.54695H54.0124V10.4167H52.1517V12.2864H46.5479L46.6192 10.4827Z" fill="#FAB710"/>
<path d="M40.9494 10.3451H39.0832V8.47537H37.2171V6.60563H35.4168V4.80737H33.4793V6.53963H31.6846V8.40938H33.5507V10.2791H35.4168V12.1489H41.0152L40.9494 10.3451Z" fill="#FAB710"/>
<path d="M44.6816 16.0094V21.6406H46.4819V23.5049H52.1516V21.5691H50.3514V19.7654H48.4139V17.8956L46.5258 17.9341V16.0094H44.6816Z" fill="#FAB710"/>
<path d="M42.887 16.0094V21.6406H41.0867V23.5049H35.417V21.5691H37.2173V19.7654H39.1492V17.8956L41.0428 17.9341V16.0094H42.887Z" fill="#FAB710"/>
<path d="M46.6192 15.8885H48.4853V17.7582H50.3515V19.6279H52.1517V21.4317H54.0837V19.6994H55.884V17.8297H54.0124V15.96H52.1517V14.0902H46.5479L46.6192 15.8885Z" fill="#FAB710"/>
<path d="M40.9494 16.0259H39.0832V17.8957H37.2171V19.7709H35.4168V21.5691H33.4793V19.8369H31.6846V17.9671H33.5507V16.0974H35.4168V14.2277H41.0152L40.9494 16.0259Z" fill="#FAB710"/>
<path d="M42.8153 12.1819V10.3617H44.6815V12.1819H46.5476V14.0517H44.7364V15.9764H42.8153V14.0517H40.9492V12.2369L42.8153 12.1819Z" fill="#FAB710"/>
<path d="M67.0588 0.891968H-0.0175781V2.8332H67.0588V0.891968Z" fill="#22244B"/>
<path d="M67.0534 23.4718H0.185547V25.5505H67.0534V23.4718Z" fill="#22244B"/>
<path d="M27.9139 12.1819H25.9819V14.1176H27.9139V12.1819Z" fill="#22244B"/>
<path d="M61.6688 12.1819H59.7368V14.1176H61.6688V12.1819Z" fill="#22244B"/>
</g>
<g clip-path="url(#clip1_30_3837)">
<path d="M85.4569 2.83325H68.8154V23.3014H85.4569V2.83325Z" fill="#22244B"/>
<path d="M78.0635 2.60779H76.126V4.54902H78.0635V2.60779Z" fill="#22244B"/>
<path d="M78.0635 21.4646H76.126V23.4003H78.0635V21.4646Z" fill="#22244B"/>
<path d="M92.9103 23.4719H94.9136V21.4977H96.7798V19.6994H98.58V17.8242H100.512V15.9599H102.312V14.0187H104.178V12.116H102.362V10.3122H100.496V8.37099H98.6569V6.57274H96.8292V4.70299H94.9685V2.83325H93.0475V4.6645H91.11V6.53974H89.2439V8.305H87.4491V10.3452H85.5116V12.149H83.6455V14.0517H85.561V15.9215H87.4272V17.7252H89.2988V19.5949H91.1649V21.4647L92.8993 21.4812L92.9103 23.4719Z" fill="#22244B"/>
<path d="M87.4272 14.0903H85.561V12.149H87.3613V10.3453H89.3646V8.47553H91.2308V6.53979H93.0969V4.66455H94.9685V6.4683H96.8292L96.8676 8.47553H98.6569V10.2188L100.496 10.2078V12.215H102.362V14.0188H100.496V15.96H98.5581V17.8242H96.8292V19.6995H94.8972V21.4977H93.031V19.628H91.1649V17.7582H89.2988V15.8885H87.4272V14.0903Z" fill="#FAB710"/>
<path d="M93.1025 8.40955H91.165V10.3508H93.1025V8.40955Z" fill="#22244B"/>
<path d="M93.0473 15.8335H91.1099V17.7747H93.0473V15.8335Z" fill="#22244B"/>
<path d="M89.4194 19.5785H87.4819V21.5197H89.4194V19.5785Z" fill="#FAB710"/>
<path d="M87.4492 21.3438H85.5117V23.285H87.4492V21.3438Z" fill="#FAB710"/>
<path d="M68.7822 2.84985H66.8447V4.79109H68.7822V2.84985Z" fill="#FAB710"/>
<path d="M66.812 4.61511H64.8745V6.55635H66.812V4.61511Z" fill="#FAB710"/>
<path d="M87.4492 2.84985H85.5117V4.79109H87.4492V2.84985Z" fill="#FAB710"/>
<path d="M89.4194 4.61511H87.4819V6.55635H89.4194V4.61511Z" fill="#FAB710"/>
<path d="M64.8745 21.6187L66.812 21.7232V19.7875H64.8745V21.6187Z" fill="#FAB710"/>
<path d="M68.7822 21.4482H66.8447V23.3895H68.7822V21.4482Z" fill="#FAB710"/>
<path d="M96.7798 15.8885H94.8423V17.8298H96.7798V15.8885Z" fill="#22244B"/>
<path d="M96.8349 8.47546H94.8975V10.4167H96.8349V8.47546Z" fill="#22244B"/>
<path d="M78.0474 10.2627V4.63146H79.8421V2.76172H85.5119V4.70295H83.7171V6.5012H81.7796V8.37095L79.886 8.33795V10.2627H78.0474Z" fill="#FAB710"/>
<path d="M76.2467 10.2627V4.63146H74.452V2.76172H68.7822V4.70295H70.577V6.5012H72.5145V8.37095L74.4081 8.33795V10.2627H76.2467Z" fill="#FAB710"/>
<path d="M79.9789 10.3782H81.8451V8.51395H83.7167V6.64421H85.5115V4.84045H87.449V6.57272H89.2437V8.44246H87.3776V10.3122H85.5115V12.1819H79.9131L79.9789 10.3782Z" fill="#FAB710"/>
<path d="M74.3092 10.2407H72.4431V8.371H70.577V6.50126H68.7822V4.703H66.8447V6.43526H65.0444V8.30501H66.9161V10.1747H68.7822V12.0445H74.3806L74.3092 10.2407Z" fill="#FAB710"/>
<path d="M78.0474 15.9049V21.5361H79.8421V23.4059H85.5119V21.4646H83.7171V19.6609H81.7796V17.7911L79.886 17.8296V15.9049H78.0474Z" fill="#FAB710"/>
<path d="M76.2467 15.9049V21.5361H74.452V23.4059H68.7822V21.4646H70.577V19.6609H72.5145V17.7911L74.4081 17.8296V15.9049H76.2467Z" fill="#FAB710"/>
<path d="M79.9789 15.784H81.8451V17.6537H83.7167V19.5235H85.5115V21.3272H87.449V19.5949H89.2437V17.7252H87.3776V15.8555H85.5115V13.9857H79.9131L79.9789 15.784Z" fill="#FAB710"/>
<path d="M74.3092 15.9214H72.4431V17.7912H70.577V19.6664H68.7822V21.4647H66.8447V19.7324H65.0444V17.8627H66.9161V15.9929H68.7822V14.1232H74.3806L74.3092 15.9214Z" fill="#FAB710"/>
<path d="M76.1812 12.0774V10.2627H78.0473V12.0774H79.9134V13.9472H78.0967V15.8719H76.1812V13.9472H74.3096V12.1324L76.1812 12.0774Z" fill="#FAB710"/>
<path d="M119.058 2.93774H102.417V23.4059H119.058V2.93774Z" fill="#22244B"/>
<path d="M111.665 2.71216H109.728V4.65339H111.665V2.71216Z" fill="#22244B"/>
<path d="M111.665 21.5691H109.728V23.5103H111.665V21.5691Z" fill="#22244B"/>
<path d="M126.506 23.5764H128.515V21.6022H130.381V19.8039H132.176V17.9287H134.113V16.0589H135.908V14.1232H137.774V12.215H135.963V10.4167H134.097V8.47548H132.253V6.67723H130.43V4.80749H128.564V2.93774H126.643V4.76899H124.711V6.64423H122.845V8.40949H121.045V10.4497H119.113V12.2535H117.241V14.1562H119.162V16.0259H121.028V17.8242H122.894V19.6994H124.761V21.5692L126.501 21.5857L126.506 23.5764Z" fill="#22244B"/>
<path d="M121.028 14.1947H119.162V12.2535H120.957V10.4498H122.966V8.58002H124.832V6.64428H126.698V4.76904H128.564V6.57279H130.43L130.463 8.58002H132.252V10.3233L134.097 10.3123V12.3195H135.963V14.1233H134.097V16.059H132.159V17.9287H130.43V19.804H128.493V21.6022H126.627V19.7325H124.76V17.8627H122.894V15.993H121.028V14.1947Z" fill="#FAB710"/>
<path d="M126.698 8.51404H124.761V10.4553H126.698V8.51404Z" fill="#22244B"/>
<path d="M126.648 15.938H124.711V17.8792H126.648V15.938Z" fill="#22244B"/>
<path d="M123.015 19.683H121.078V21.6242H123.015V19.683Z" fill="#FAB710"/>
<path d="M121.05 21.4482H119.113V23.3895H121.05V21.4482Z" fill="#FAB710"/>
<path d="M102.378 2.95435H100.44V4.89558H102.378V2.95435Z" fill="#FAB710"/>
<path d="M100.413 4.7196H98.4756V6.66084H100.413V4.7196Z" fill="#FAB710"/>
<path d="M121.05 2.95435H119.113V4.89558H121.05V2.95435Z" fill="#FAB710"/>
<path d="M123.015 4.7196H121.078V6.66084H123.015V4.7196Z" fill="#FAB710"/>
<path d="M98.4756 21.7232L100.408 21.8277V19.8865H98.4756V21.7232Z" fill="#FAB710"/>
<path d="M102.378 21.5527H100.44V23.494H102.378V21.5527Z" fill="#FAB710"/>
<path d="M130.375 15.993H128.443V17.9343H130.375V15.993Z" fill="#22244B"/>
<path d="M130.43 8.57996H128.493V10.5212H130.43V8.57996Z" fill="#22244B"/>
<path d="M111.643 10.3617V4.73595H113.443V2.86621H119.113V4.80744H117.313V6.6057H115.375V8.47544L113.487 8.44244V10.3617H111.643Z" fill="#FAB710"/>
<path d="M109.848 10.3617V4.73595H108.048V2.86621H102.378V4.80744H104.179V6.6057H106.111V8.47544L108.004 8.44244V10.3617H109.848Z" fill="#FAB710"/>
<path d="M113.581 10.4827H115.447V8.61294H117.313V6.7432H119.113V4.94495H121.045V6.67721H122.845V8.54695H120.974V10.4167H119.113V12.2864H113.509L113.581 10.4827Z" fill="#FAB710"/>
<path d="M107.911 10.3451H106.045V8.47537H104.179V6.60563H102.378V4.80737H100.441V6.53963H98.646V8.40938H100.512V10.2791H102.378V12.1489H107.977L107.911 10.3451Z" fill="#FAB710"/>
<path d="M111.643 16.0094V21.6406H113.443V23.5049H119.113V21.5691H117.313V19.7654H115.375V17.8956L113.487 17.9341V16.0094H111.643Z" fill="#FAB710"/>
<path d="M109.848 16.0094V21.6406H108.048V23.5049H102.378V21.5691H104.179V19.7654H106.111V17.8956L108.004 17.9341V16.0094H109.848Z" fill="#FAB710"/>
<path d="M113.581 15.8885H115.447V17.7582H117.313V19.6279H119.113V21.4317H121.045V19.6994H122.845V17.8297H120.974V15.96H119.113V14.0902H113.509L113.581 15.8885Z" fill="#FAB710"/>
<path d="M107.911 16.0259H106.045V17.8957H104.179V19.7709H102.378V21.5691H100.441V19.8369H98.646V17.9671H100.512V16.0974H102.378V14.2277H107.977L107.911 16.0259Z" fill="#FAB710"/>
<path d="M109.777 12.1819V10.3617H111.643V12.1819H113.509V14.0517H111.698V15.9764H109.777V14.0517H107.911V12.2369L109.777 12.1819Z" fill="#FAB710"/>
<path d="M134.02 0.891968H66.9438V2.8332H134.02V0.891968Z" fill="#22244B"/>
<path d="M134.015 23.4718H67.147V25.5505H134.015V23.4718Z" fill="#22244B"/>
<path d="M94.8754 12.1819H92.9434V14.1176H94.8754V12.1819Z" fill="#22244B"/>
<path d="M128.63 12.1819H126.698V14.1176H128.63V12.1819Z" fill="#22244B"/>
</g>
<g clip-path="url(#clip2_30_3837)">
<path d="M152.418 2.83325H135.776V23.3014H152.418V2.83325Z" fill="#22244B"/>
<path d="M145.024 2.60779H143.087V4.54902H145.024V2.60779Z" fill="#22244B"/>
<path d="M145.024 21.4646H143.087V23.4003H145.024V21.4646Z" fill="#22244B"/>
<path d="M159.871 23.4719H161.875V21.4977H163.741V19.6994H165.541V17.8242H167.473V15.9599H169.273V14.0187H171.139V12.116H169.323V10.3122H167.456V8.37099H165.618V6.57274H163.79V4.70299H161.929V2.83325H160.008V4.6645H158.071V6.53974H156.205V8.305H154.41V10.3452H152.473V12.149H150.606V14.0517H152.522V15.9215H154.388V17.7252H156.26V19.5949H158.126V21.4647L159.86 21.4812L159.871 23.4719Z" fill="#22244B"/>
<path d="M154.388 14.0903H152.522V12.149H154.322V10.3453H156.326V8.47553H158.192V6.53979H160.058V4.66455H161.929V6.4683H163.79L163.829 8.47553H165.618V10.2188L167.456 10.2078V12.215H169.323V14.0188H167.456V15.96H165.519V17.8242H163.79V19.6995H161.858V21.4977H159.992V19.628H158.126V17.7582H156.26V15.8885H154.388V14.0903Z" fill="#FAB710"/>
<path d="M160.063 8.40955H158.126V10.3508H160.063V8.40955Z" fill="#22244B"/>
<path d="M160.008 15.8335H158.071V17.7747H160.008V15.8335Z" fill="#22244B"/>
<path d="M156.38 19.5785H154.443V21.5197H156.38V19.5785Z" fill="#FAB710"/>
<path d="M154.41 21.3438H152.473V23.285H154.41V21.3438Z" fill="#FAB710"/>
<path d="M135.743 2.84985H133.806V4.79109H135.743V2.84985Z" fill="#FAB710"/>
<path d="M133.773 4.61511H131.835V6.55635H133.773V4.61511Z" fill="#FAB710"/>
<path d="M154.41 2.84985H152.473V4.79109H154.41V2.84985Z" fill="#FAB710"/>
<path d="M156.38 4.61511H154.443V6.55635H156.38V4.61511Z" fill="#FAB710"/>
<path d="M131.835 21.6187L133.773 21.7232V19.7875H131.835V21.6187Z" fill="#FAB710"/>
<path d="M135.743 21.4482H133.806V23.3895H135.743V21.4482Z" fill="#FAB710"/>
<path d="M163.741 15.8885H161.803V17.8298H163.741V15.8885Z" fill="#22244B"/>
<path d="M163.796 8.47546H161.858V10.4167H163.796V8.47546Z" fill="#22244B"/>
<path d="M145.008 10.2627V4.63146H146.803V2.76172H152.473V4.70295H150.678V6.5012H148.741V8.37095L146.847 8.33795V10.2627H145.008Z" fill="#FAB710"/>
<path d="M143.208 10.2627V4.63146H141.413V2.76172H135.743V4.70295H137.538V6.5012H139.475V8.37095L141.369 8.33795V10.2627H143.208Z" fill="#FAB710"/>
<path d="M146.94 10.3782H148.806V8.51395H150.678V6.64421H152.472V4.84045H154.41V6.57272H156.205V8.44246H154.339V10.3122H152.472V12.1819H146.874L146.94 10.3782Z" fill="#FAB710"/>
<path d="M141.27 10.2407H139.404V8.371H137.538V6.50126H135.743V4.703H133.806V6.43526H132.005V8.30501H133.877V10.1747H135.743V12.0445H141.342L141.27 10.2407Z" fill="#FAB710"/>
<path d="M145.008 15.9049V21.5361H146.803V23.4059H152.473V21.4646H150.678V19.6609H148.741V17.7911L146.847 17.8296V15.9049H145.008Z" fill="#FAB710"/>
<path d="M143.208 15.9049V21.5361H141.413V23.4059H135.743V21.4646H137.538V19.6609H139.475V17.7911L141.369 17.8296V15.9049H143.208Z" fill="#FAB710"/>
<path d="M146.94 15.784H148.806V17.6537H150.678V19.5235H152.472V21.3272H154.41V19.5949H156.205V17.7252H154.339V15.8555H152.472V13.9857H146.874L146.94 15.784Z" fill="#FAB710"/>
<path d="M141.27 15.9214H139.404V17.7912H137.538V19.6664H135.743V21.4647H133.806V19.7324H132.005V17.8627H133.877V15.9929H135.743V14.1232H141.342L141.27 15.9214Z" fill="#FAB710"/>
<path d="M143.142 12.0774V10.2627H145.008V12.0774H146.874V13.9472H145.058V15.8719H143.142V13.9472H141.271V12.1324L143.142 12.0774Z" fill="#FAB710"/>
<path d="M186.019 2.93774H169.377V23.4059H186.019V2.93774Z" fill="#22244B"/>
<path d="M178.626 2.71216H176.688V4.65339H178.626V2.71216Z" fill="#22244B"/>
<path d="M178.626 21.5691H176.688V23.5103H178.626V21.5691Z" fill="#22244B"/>
<path d="M193.467 23.5764H195.476V21.6022H197.342V19.8039H199.137V17.9287H201.074V16.0589H202.869V14.1232H204.735V12.215H202.924V10.4167H201.058V8.47548H199.214V6.67723H197.391V4.80749H195.525V2.93774H193.604V4.76899H191.672V6.64423H189.806V8.40949H188.006V10.4497H186.074V12.2535H184.202V14.1562H186.123V16.0259H187.989V17.8242H189.855V19.6994H191.722V21.5692L193.461 21.5857L193.467 23.5764Z" fill="#22244B"/>
<path d="M187.989 14.1947H186.123V12.2535H187.918V10.4498H189.927V8.58002H191.793V6.64428H193.659V4.76904H195.525V6.57279H197.391L197.424 8.58002H199.213V10.3233L201.058 10.3123V12.3195H202.924V14.1233H201.058V16.059H199.12V17.9287H197.391V19.804H195.454V21.6022H193.588V19.7325H191.721V17.8627H189.855V15.993H187.989V14.1947Z" fill="#FAB710"/>
<path d="M193.659 8.51404H191.722V10.4553H193.659V8.51404Z" fill="#22244B"/>
<path d="M193.609 15.938H191.672V17.8792H193.609V15.938Z" fill="#22244B"/>
<path d="M189.976 19.683H188.039V21.6242H189.976V19.683Z" fill="#FAB710"/>
<path d="M188.011 21.4482H186.074V23.3895H188.011V21.4482Z" fill="#FAB710"/>
<path d="M169.339 2.95435H167.401V4.89558H169.339V2.95435Z" fill="#FAB710"/>
<path d="M167.374 4.7196H165.437V6.66084H167.374V4.7196Z" fill="#FAB710"/>
<path d="M188.011 2.95435H186.074V4.89558H188.011V2.95435Z" fill="#FAB710"/>
<path d="M189.976 4.7196H188.039V6.66084H189.976V4.7196Z" fill="#FAB710"/>
<path d="M165.437 21.7232L167.369 21.8277V19.8865H165.437V21.7232Z" fill="#FAB710"/>
<path d="M169.339 21.5527H167.401V23.494H169.339V21.5527Z" fill="#FAB710"/>
<path d="M197.336 15.993H195.404V17.9343H197.336V15.993Z" fill="#22244B"/>
<path d="M197.391 8.57996H195.454V10.5212H197.391V8.57996Z" fill="#22244B"/>
<path d="M178.604 10.3617V4.73595H180.404V2.86621H186.074V4.80744H184.274V6.6057H182.336V8.47544L180.448 8.44244V10.3617H178.604Z" fill="#FAB710"/>
<path d="M176.809 10.3617V4.73595H175.009V2.86621H169.339V4.80744H171.14V6.6057H173.072V8.47544L174.965 8.44244V10.3617H176.809Z" fill="#FAB710"/>
<path d="M180.542 10.4827H182.408V8.61294H184.274V6.7432H186.074V4.94495H188.006V6.67721H189.806V8.54695H187.935V10.4167H186.074V12.2864H180.47L180.542 10.4827Z" fill="#FAB710"/>
<path d="M174.872 10.3451H173.006V8.47537H171.139V6.60563H169.339V4.80737H167.402V6.53963H165.607V8.40938H167.473V10.2791H169.339V12.1489H174.938L174.872 10.3451Z" fill="#FAB710"/>
<path d="M178.604 16.0094V21.6406H180.404V23.5049H186.074V21.5691H184.274V19.7654H182.336V17.8956L180.448 17.9341V16.0094H178.604Z" fill="#FAB710"/>
<path d="M176.809 16.0094V21.6406H175.009V23.5049H169.339V21.5691H171.14V19.7654H173.072V17.8956L174.965 17.9341V16.0094H176.809Z" fill="#FAB710"/>
<path d="M180.542 15.8885H182.408V17.7582H184.274V19.6279H186.074V21.4317H188.006V19.6994H189.806V17.8297H187.935V15.96H186.074V14.0902H180.47L180.542 15.8885Z" fill="#FAB710"/>
<path d="M174.872 16.0259H173.006V17.8957H171.139V19.7709H169.339V21.5691H167.402V19.8369H165.607V17.9671H167.473V16.0974H169.339V14.2277H174.938L174.872 16.0259Z" fill="#FAB710"/>
<path d="M176.738 12.1819V10.3617H178.604V12.1819H180.47V14.0517H178.659V15.9764H176.738V14.0517H174.872V12.2369L176.738 12.1819Z" fill="#FAB710"/>
<path d="M200.981 0.891968H133.905V2.8332H200.981V0.891968Z" fill="#22244B"/>
<path d="M200.976 23.4718H134.108V25.5505H200.976V23.4718Z" fill="#22244B"/>
<path d="M161.836 12.1819H159.904V14.1176H161.836V12.1819Z" fill="#22244B"/>
<path d="M195.591 12.1819H193.659V14.1176H195.591V12.1819Z" fill="#22244B"/>
</g>
<g clip-path="url(#clip3_30_3837)">
<path d="M219.582 2.83325H202.941V23.3014H219.582V2.83325Z" fill="#22244B"/>
<path d="M212.189 2.60779H210.251V4.54902H212.189V2.60779Z" fill="#22244B"/>
<path d="M212.189 21.4646H210.251V23.4003H212.189V21.4646Z" fill="#22244B"/>
<path d="M227.036 23.4719H229.039V21.4977H230.905V19.6994H232.706V17.8242H234.638V15.9599H236.438V14.0187H238.304V12.116H236.487V10.3122H234.621V8.37099H232.782V6.57274H230.955V4.70299H229.094V2.83325H227.173V4.6645H225.236V6.53974H223.369V8.305H221.575V10.3452H219.637V12.149H217.771V14.0517H219.687V15.9215H221.553V17.7252H223.424V19.5949H225.29V21.4647L227.025 21.4812L227.036 23.4719Z" fill="#22244B"/>
<path d="M221.553 14.0903H219.687V12.149H221.487V10.3453H223.49V8.47553H225.356V6.53979H227.222V4.66455H229.094V6.4683H230.955L230.993 8.47553H232.782V10.2188L234.621 10.2078V12.215H236.487V14.0188H234.621V15.96H232.684V17.8242H230.955V19.6995H229.023V21.4977H227.157V19.628H225.29V17.7582H223.424V15.8885H221.553V14.0903Z" fill="#FAB710"/>
<path d="M227.228 8.40955H225.291V10.3508H227.228V8.40955Z" fill="#22244B"/>
<path d="M227.173 15.8335H225.235V17.7747H227.173V15.8335Z" fill="#22244B"/>
<path d="M223.545 19.5785H221.607V21.5197H223.545V19.5785Z" fill="#FAB710"/>
<path d="M221.575 21.3438H219.637V23.285H221.575V21.3438Z" fill="#FAB710"/>
<path d="M202.908 2.84985H200.97V4.79109H202.908V2.84985Z" fill="#FAB710"/>
<path d="M200.937 4.61511H199V6.55635H200.937V4.61511Z" fill="#FAB710"/>
<path d="M221.575 2.84985H219.637V4.79109H221.575V2.84985Z" fill="#FAB710"/>
<path d="M223.545 4.61511H221.607V6.55635H223.545V4.61511Z" fill="#FAB710"/>
<path d="M199 21.6187L200.937 21.7232V19.7875H199V21.6187Z" fill="#FAB710"/>
<path d="M202.908 21.4482H200.97V23.3895H202.908V21.4482Z" fill="#FAB710"/>
<path d="M230.905 15.8885H228.968V17.8298H230.905V15.8885Z" fill="#22244B"/>
<path d="M230.96 8.47546H229.023V10.4167H230.96V8.47546Z" fill="#22244B"/>
<path d="M212.173 10.2627V4.63146H213.968V2.76172H219.637V4.70295H217.843V6.5012H215.905V8.37095L214.012 8.33795V10.2627H212.173Z" fill="#FAB710"/>
<path d="M210.372 10.2627V4.63146H208.577V2.76172H202.908V4.70295H204.702V6.5012H206.64V8.37095L208.534 8.33795V10.2627H210.372Z" fill="#FAB710"/>
<path d="M214.104 10.3782H215.971V8.51395H217.842V6.64421H219.637V4.84045H221.574V6.57272H223.369V8.44246H221.503V10.3122H219.637V12.1819H214.039L214.104 10.3782Z" fill="#FAB710"/>
<path d="M208.435 10.2407H206.569V8.371H204.702V6.50126H202.908V4.703H200.97V6.43526H199.17V8.30501H201.042V10.1747H202.908V12.0445H208.506L208.435 10.2407Z" fill="#FAB710"/>
<path d="M212.173 15.9049V21.5361H213.968V23.4059H219.637V21.4646H217.843V19.6609H215.905V17.7911L214.012 17.8296V15.9049H212.173Z" fill="#FAB710"/>
<path d="M210.372 15.9049V21.5361H208.577V23.4059H202.908V21.4646H204.702V19.6609H206.64V17.7911L208.534 17.8296V15.9049H210.372Z" fill="#FAB710"/>
<path d="M214.104 15.784H215.971V17.6537H217.842V19.5235H219.637V21.3272H221.574V19.5949H223.369V17.7252H221.503V15.8555H219.637V13.9857H214.039L214.104 15.784Z" fill="#FAB710"/>
<path d="M208.435 15.9214H206.569V17.7912H204.702V19.6664H202.908V21.4647H200.97V19.7324H199.17V17.8627H201.042V15.9929H202.908V14.1232H208.506L208.435 15.9214Z" fill="#FAB710"/>
<path d="M210.307 12.0774V10.2627H212.173V12.0774H214.039V13.9472H212.222V15.8719H210.307V13.9472H208.435V12.1324L210.307 12.0774Z" fill="#FAB710"/>
<path d="M253.183 2.93774H236.542V23.4059H253.183V2.93774Z" fill="#22244B"/>
<path d="M245.791 2.71216H243.853V4.65339H245.791V2.71216Z" fill="#22244B"/>
<path d="M245.791 21.5691H243.853V23.5103H245.791V21.5691Z" fill="#22244B"/>
<path d="M260.631 23.5764H262.64V21.6022H264.506V19.8039H266.301V17.9287H268.239V16.0589H270.033V14.1232H271.9V12.215H270.088V10.4167H268.222V8.47548H266.378V6.67723H264.556V4.80749H262.69V2.93774H260.769V4.76899H258.837V6.64423H256.971V8.40949H255.17V10.4497H253.238V12.2535H251.367V14.1562H253.288V16.0259H255.154V17.8242H257.02V19.6994H258.886V21.5692L260.626 21.5857L260.631 23.5764Z" fill="#22244B"/>
<path d="M255.154 14.1947H253.288V12.2535H255.082V10.4498H257.091V8.58002H258.957V6.64428H260.823V4.76904H262.69V6.57279H264.556L264.589 8.58002H266.378V10.3233L268.222 10.3123V12.3195H270.088V14.1233H268.222V16.059H266.285V17.9287H264.556V19.804H262.618V21.6022H260.752V19.7325H258.886V17.8627H257.02V15.993H255.154V14.1947Z" fill="#FAB710"/>
<path d="M260.824 8.51404H258.886V10.4553H260.824V8.51404Z" fill="#22244B"/>
<path d="M260.774 15.938H258.836V17.8792H260.774V15.938Z" fill="#22244B"/>
<path d="M257.141 19.683H255.203V21.6242H257.141V19.683Z" fill="#FAB710"/>
<path d="M255.176 21.4482H253.238V23.3895H255.176V21.4482Z" fill="#FAB710"/>
<path d="M236.503 2.95435H234.566V4.89558H236.503V2.95435Z" fill="#FAB710"/>
<path d="M234.539 4.7196H232.601V6.66084H234.539V4.7196Z" fill="#FAB710"/>
<path d="M255.176 2.95435H253.238V4.89558H255.176V2.95435Z" fill="#FAB710"/>
<path d="M257.141 4.7196H255.203V6.66084H257.141V4.7196Z" fill="#FAB710"/>
<path d="M232.601 21.7232L234.533 21.8277V19.8865H232.601V21.7232Z" fill="#FAB710"/>
<path d="M236.503 21.5527H234.566V23.494H236.503V21.5527Z" fill="#FAB710"/>
<path d="M264.501 15.993H262.569V17.9343H264.501V15.993Z" fill="#22244B"/>
<path d="M264.556 8.57996H262.618V10.5212H264.556V8.57996Z" fill="#22244B"/>
<path d="M245.769 10.3617V4.73595H247.569V2.86621H253.239V4.80744H251.438V6.6057H249.501V8.47544L247.613 8.44244V10.3617H245.769Z" fill="#FAB710"/>
<path d="M243.974 10.3617V4.73595H242.174V2.86621H236.504V4.80744H238.304V6.6057H240.236V8.47544L242.13 8.44244V10.3617H243.974Z" fill="#FAB710"/>
<path d="M247.706 10.4827H249.572V8.61294H251.438V6.7432H253.239V4.94495H255.171V6.67721H256.971V8.54695H255.099V10.4167H253.239V12.2864H247.635L247.706 10.4827Z" fill="#FAB710"/>
<path d="M242.036 10.3451H240.17V8.47537H238.304V6.60563H236.504V4.80737H234.566V6.53963H232.771V8.40938H234.638V10.2791H236.504V12.1489H242.102L242.036 10.3451Z" fill="#FAB710"/>
<path d="M245.769 16.0094V21.6406H247.569V23.5049H253.239V21.5691H251.438V19.7654H249.501V17.8956L247.613 17.9341V16.0094H245.769Z" fill="#FAB710"/>
<path d="M243.974 16.0094V21.6406H242.174V23.5049H236.504V21.5691H238.304V19.7654H240.236V17.8956L242.13 17.9341V16.0094H243.974Z" fill="#FAB710"/>
<path d="M247.706 15.8885H249.572V17.7582H251.438V19.6279H253.239V21.4317H255.171V19.6994H256.971V17.8297H255.099V15.96H253.239V14.0902H247.635L247.706 15.8885Z" fill="#FAB710"/>
<path d="M242.036 16.0259H240.17V17.8957H238.304V19.7709H236.504V21.5691H234.566V19.8369H232.771V17.9671H234.638V16.0974H236.504V14.2277H242.102L242.036 16.0259Z" fill="#FAB710"/>
<path d="M243.902 12.1819V10.3617H245.768V12.1819H247.635V14.0517H245.823V15.9764H243.902V14.0517H242.036V12.2369L243.902 12.1819Z" fill="#FAB710"/>
<path d="M268.146 0.891968H201.069V2.8332H268.146V0.891968Z" fill="#22244B"/>
<path d="M268.14 23.4718H201.272V25.5505H268.14V23.4718Z" fill="#22244B"/>
<path d="M229.001 12.1819H227.069V14.1176H229.001V12.1819Z" fill="#22244B"/>
<path d="M262.756 12.1819H260.824V14.1176H262.756V12.1819Z" fill="#22244B"/>
</g>
<g clip-path="url(#clip4_30_3837)">
<path d="M286.544 2.83325H269.902V23.3014H286.544V2.83325Z" fill="#22244B"/>
<path d="M279.15 2.60779H277.213V4.54902H279.15V2.60779Z" fill="#22244B"/>
<path d="M279.15 21.4646H277.213V23.4003H279.15V21.4646Z" fill="#22244B"/>
<path d="M269.869 2.84985H267.932V4.79109H269.869V2.84985Z" fill="#FAB710"/>
<path d="M267.899 4.61511H265.961V6.55635H267.899V4.61511Z" fill="#FAB710"/>
<path d="M265.961 21.6187L267.899 21.7232V19.7875H265.961V21.6187Z" fill="#FAB710"/>
<path d="M269.869 21.4482H267.932V23.3895H269.869V21.4482Z" fill="#FAB710"/>
<path d="M277.334 10.2627V4.63146H275.539V2.76172H269.869V4.70295H271.664V6.5012H273.601V8.37095L275.495 8.33795V10.2627H277.334Z" fill="#FAB710"/>
<path d="M275.396 10.2407H273.53V8.371H271.664V6.50126H269.869V4.703H267.932V6.43526H266.131V8.30501H268.003V10.1747H269.869V12.0445H275.467L275.396 10.2407Z" fill="#FAB710"/>
<path d="M277.334 15.9049V21.5361H275.539V23.4059H269.869V21.4646H271.664V19.6609H273.601V17.7911L275.495 17.8296V15.9049H277.334Z" fill="#FAB710"/>
<path d="M275.396 15.9214H273.53V17.7912H271.664V19.6664H269.869V21.4647H267.932V19.7324H266.131V17.8627H268.003V15.9929H269.869V14.1232H275.467L275.396 15.9214Z" fill="#FAB710"/>
<path d="M277.268 12.0774V10.2627H279.134V12.0774H281V13.9472H279.184V15.8719H277.268V13.9472H275.396V12.1324L277.268 12.0774Z" fill="#FAB710"/>
<path d="M335.107 0.891968H268.031V2.8332H335.107V0.891968Z" fill="#22244B"/>
<path d="M335.102 23.4718H268.234V25.5505H335.102V23.4718Z" fill="#22244B"/>
</g>
</g>
<defs>
<clipPath id="clip0_30_3837">
<rect width="72.8998" height="24.6586" fill="white" transform="translate(-2.08691 0.891968)"/>
</clipPath>
<clipPath id="clip1_30_3837">
<rect width="72.8998" height="24.6586" fill="white" transform="translate(64.8745 0.891968)"/>
</clipPath>
<clipPath id="clip2_30_3837">
<rect width="72.8998" height="24.6586" fill="white" transform="translate(131.835 0.891968)"/>
</clipPath>
<clipPath id="clip3_30_3837">
<rect width="72.8998" height="24.6586" fill="white" transform="translate(199 0.891968)"/>
</clipPath>
<clipPath id="clip4_30_3837">
<rect width="72.8998" height="24.6586" fill="white" transform="translate(265.961 0.891968)"/>
</clipPath>
</defs>
</svg>
