<svg width="101" height="49" viewBox="0 0 101 49" fill="none" xmlns="http://www.w3.org/2000/svg">
<g clip-path="url(#clip0_38_31844)">
<path d="M22.1648 24.3927L22.1207 31.6992L24.5799 31.7118L24.561 34.2419L27.0203 34.2545L27.0077 36.6459L24.479 36.6269L24.4664 39.1571L22.0765 39.1444L22.0639 41.5358L24.5169 41.5484L24.5043 44.0091L22.045 43.9902L22.0324 46.4509L24.561 46.4698L24.5421 48.9243L29.3913 48.9558L29.4039 46.4951L31.8631 46.5077L31.8505 48.9684L36.8321 49L36.8447 46.4698L44.1468 46.514L44.1784 41.7377L46.5683 41.7503L46.5809 39.2896L49.0401 39.3085L49.0717 34.3176L51.7327 34.3366L51.7769 26.9607L46.7953 26.9292L46.8079 24.4684L44.3486 24.4558L44.3801 19.6038L41.8578 19.5911L41.8704 17.0673L34.499 17.0168L34.4548 24.399L32.0649 24.3801L32.0965 19.3955L27.1086 19.364L27.096 21.8247L24.6367 21.8058L24.6241 24.3359L22.1648 24.3927Z" fill="#EEEEEE"/>
<path d="M37.0466 2.14524L37.0151 7.19919L34.5558 7.18657L34.5306 12.1017L27.1591 12.0575L27.2033 4.61228L29.5869 4.6249L29.6058 2.10107L37.0466 2.14524Z" fill="#EEEEEE"/>
<path d="M24.6872 14.4993L24.7125 9.65356L27.1717 9.66618L27.1591 11.9881L29.6121 12.0007L29.5994 14.4614L24.6872 14.4993Z" fill="#EEEEEE"/>
<path d="M46.6819 34.2356L46.6504 39.0876L44.1974 39.0687L44.21 36.7468L41.7507 36.7342L41.7634 34.2735L46.6819 34.2356Z" fill="#0D1351"/>
<path d="M39.2661 41.5674L39.2914 36.7217L41.7506 36.7343L41.738 39.0562L44.1973 39.0751L44.1783 41.5296L39.2661 41.5674Z" fill="#0D1351"/>
<path d="M14.9827 4.60596L14.9511 9.458L12.4982 9.43908L12.5108 7.11716L10.0515 7.10454L10.0641 4.64381L14.9827 4.60596Z" fill="#EEEEEE"/>
<path d="M19.7368 19.3193L22.196 19.3337L22.1816 21.7945L19.7223 21.78L19.7368 19.3193Z" fill="#EEEEEE"/>
<path d="M12.3967 14.3597L14.856 14.3745L14.8412 16.8352L12.3819 16.8205L12.3967 14.3597Z" fill="#EEEEEE"/>
<path d="M9.98165 7.034L12.4409 7.04907L12.4259 9.5098L9.96658 9.49472L9.98165 7.034Z" fill="#EEEEEE"/>
<path d="M5.01975 14.3158L7.479 14.3303L7.45 19.2455L4.99074 19.2309L5.01975 14.3158Z" fill="#EEEEEE"/>
<path d="M7.51096 9.41289L9.97021 9.42798L9.9401 14.3431L7.48085 14.328L7.51096 9.41289Z" fill="#EEEEEE"/>
<path d="M7.40402 26.6255L9.86328 26.6409L9.83247 31.5623L7.37321 31.5469L7.40402 26.6255Z" fill="#EEEEEE"/>
<path d="M4.99352 19.2287L12.365 19.2727L12.3503 21.7334L4.97884 21.6894L4.99352 19.2287Z" fill="#EEEEEE"/>
<path d="M19.7684 14.4716L24.75 14.5027L24.7347 16.9634L19.7531 16.9323L19.7684 14.4716Z" fill="#EEEEEE"/>
<path d="M9.9185 16.8042L19.8186 16.8643L19.8037 19.325L9.90358 19.2649L9.9185 16.8042Z" fill="#EEEEEE"/>
<path d="M29.6369 7.15424L32.0962 7.1687L32.0817 9.62943L29.6225 9.61497L29.6369 7.15424Z" fill="#0D1351"/>
<path d="M29.4353 29.2821L31.8945 29.2966L31.88 31.7574L29.4207 31.7428L29.4353 29.2821Z" fill="#0D1351"/>
<path d="M31.9514 31.7554L34.4106 31.7703L34.3958 34.231L31.9366 34.2162L31.9514 31.7554Z" fill="#0D1351"/>
<path d="M31.8884 41.5921L34.3477 41.6072L34.3326 44.0679L31.8733 44.0528L31.8884 41.5921Z" fill="#0D1351"/>
<path d="M34.3352 43.9961L36.7944 44.0112L36.7793 46.472L34.32 46.4568L34.3352 43.9961Z" fill="#0D1351"/>
<path d="M34.4233 29.3135L36.8826 29.3286L36.8675 31.7893L34.4082 31.7743L34.4233 29.3135Z" fill="#0D1351"/>
<path d="M44.2544 29.2378L46.7136 29.2529L46.6985 31.7137L44.2392 31.6985L44.2544 29.2378Z" fill="#0D1351"/>
<path d="M46.6948 31.7805L49.1541 31.7957L49.1389 34.2564L46.6797 34.2412L46.6948 31.7805Z" fill="#0D1351"/>
<path d="M36.8951 26.8001L44.2666 26.8447L44.2517 29.3055L36.8802 29.2608L36.8951 26.8001Z" fill="#0D1351"/>
<path d="M29.4751 34.0649L31.9343 34.0793L31.8906 41.5246L29.4314 41.5102L29.4751 34.0649Z" fill="#0D1351"/>
<path d="M32.1154 4.64255L34.5747 4.65796L34.5593 7.11869L32.1 7.10327L32.1154 4.64255Z" fill="#EEEEEE"/>
<path d="M4.98152 21.6921L4.96892 24.1466L7.42187 24.1655L7.40926 26.6199L-5.47864e-05 26.5757L0.0125597 24.2538L2.44029 24.2727L2.4529 21.7426L4.98152 21.6921Z" fill="#EEEEEE"/>
<path d="M7.37769 31.5416L2.52852 31.51L2.51592 34.0401L0.0566509 34.0212L0.0125147 41.4665L4.86167 41.498L4.87428 39.1067L7.33355 39.1193L7.37769 31.5416Z" fill="#EEEEEE"/>
<path d="M9.83709 31.554L9.80557 36.4754L12.3342 36.488L12.3153 39.0182L14.7052 39.0308L14.6926 41.4915L19.6048 41.5167L19.6489 34.1409L17.1203 34.1283L17.1392 31.7369L9.83709 31.554Z" fill="#EEEEEE"/>
<path d="M9.84956 29.1627L9.88109 24.2475L12.4034 24.2601L12.4223 21.7363L17.2652 21.7615L17.2841 19.3071L19.7371 19.3197L19.6929 26.6956L17.1706 26.683L17.1517 29.0743L9.84956 29.1627Z" fill="#EEEEEE"/>
<path d="M71.3186 24.5063L71.3627 17.1935L73.8157 17.2125L73.8346 14.6823L76.2876 14.7013L76.3065 12.3099L73.7779 12.291L73.7968 9.76719L71.4069 9.75457L71.4195 7.36325L73.8724 7.37587L73.8914 4.91514L71.4321 4.90252L71.451 2.44179L73.9733 2.46072L73.9923 -2.36109e-06L78.8351 0.0315458L78.8225 2.48596L81.2755 2.50489L81.2944 0.0441652L86.276 0.0757134L86.257 2.59953L93.5655 2.6437L93.5339 7.42634L95.9238 7.43896L95.9112 9.89969L98.3705 9.91231L98.339 14.9032L101 14.9158L100.956 22.2917L95.9743 22.2601L95.9554 24.7208L93.5024 24.7082L93.4709 29.554L90.9422 29.5413L90.9296 32.0715L83.5582 32.021L83.6023 24.6451L81.2124 24.6325L81.1809 29.617L76.1993 29.5855L76.2119 27.1311L73.7589 27.1122L73.7716 24.5883L71.3186 24.5063Z" fill="#EEEEEE"/>
<path d="M85.9228 46.9304L85.9543 41.8764L83.5014 41.8575L83.5266 36.9424L76.1551 36.8982L76.111 44.3435L78.5009 44.3561L78.482 46.8862L85.9228 46.9304Z" fill="#EEEEEE"/>
<path d="M73.7147 34.4248L73.6832 39.2705L76.1425 39.2895L76.1551 36.9676L78.6143 36.9802L78.627 34.5194L73.7147 34.4248Z" fill="#EEEEEE"/>
<path d="M95.9491 14.9535L95.9744 10.1078L93.5214 10.0889L93.5088 12.4108L91.0495 12.3982L91.0369 14.8589L95.9491 14.9535Z" fill="#0D1351"/>
<path d="M88.6217 7.53369L88.5902 12.3794L91.0495 12.3984L91.0621 10.0764L93.5213 10.0891L93.5339 7.62834L88.6217 7.53369Z" fill="#0D1351"/>
<path d="M63.8903 44.1984L63.9219 39.3527L61.4626 39.3337L61.45 41.6557L58.9907 41.643L58.9781 44.1038L63.8903 44.1984Z" fill="#EEEEEE"/>
<path d="M68.8413 27.0862L71.3005 27.1016L71.2851 29.5623L68.8259 29.5469L68.8413 27.0862Z" fill="#EEEEEE"/>
<path d="M61.438 31.9573L63.8972 31.9724L63.8821 34.4331L61.4228 34.418L61.438 31.9573Z" fill="#EEEEEE"/>
<path d="M58.9345 39.2513L61.3938 39.2664L61.3787 41.7271L58.9194 41.712L58.9345 39.2513Z" fill="#0D1351"/>
<path d="M54.0803 29.4587L56.5396 29.4739L56.5093 34.389L54.05 34.3739L54.0803 29.4587Z" fill="#EEEEEE"/>
<path d="M56.5078 34.3865L58.967 34.4014L58.9374 39.3165L56.4782 39.3017L56.5078 34.3865Z" fill="#EEEEEE"/>
<path d="M56.6089 17.1738L59.0681 17.189L59.0379 22.1041L56.5786 22.0889L56.6089 17.1738Z" fill="#EEEEEE"/>
<path d="M54.0978 26.9959L61.4692 27.0403L61.4545 29.501L54.083 29.4567L54.0978 26.9959Z" fill="#EEEEEE"/>
<path d="M68.8158 31.9374L73.7974 31.9673L73.7826 34.428L68.801 34.3981L68.8158 31.9374Z" fill="#EEEEEE"/>
<path d="M58.9976 29.4865L68.8977 29.5466L68.8828 32.0074L58.9827 31.9473L58.9976 29.4865Z" fill="#EEEEEE"/>
<path d="M78.5964 39.3711L81.0557 39.3862L81.0406 41.847L78.5813 41.8319L78.5964 39.3711Z" fill="#0D1351"/>
<path d="M78.6589 17.2434L81.1182 17.2576L81.104 19.7183L78.6447 19.7041L78.6589 17.2434Z" fill="#0D1351"/>
<path d="M81.2007 14.795L83.6599 14.8101L83.6448 17.2708L81.1856 17.2557L81.2007 14.795Z" fill="#0D1351"/>
<path d="M81.2636 4.9647L83.7229 4.97949L83.7081 7.44022L81.2489 7.42543L81.2636 4.9647Z" fill="#0D1351"/>
<path d="M83.7356 2.58574L86.1948 2.60083L86.1797 5.06156L83.7205 5.04647L83.7356 2.58574Z" fill="#0D1351"/>
<path d="M83.6477 17.268L86.1069 17.2837L86.0912 19.7444L83.632 19.7287L83.6477 17.268Z" fill="#0D1351"/>
<path d="M93.4719 17.464L95.9312 17.4788L95.9164 19.9395L93.4571 19.9247L93.4719 17.464Z" fill="#0D1351"/>
<path d="M95.9436 14.9531L98.4028 14.9675L98.3884 17.4283L95.9291 17.4138L95.9436 14.9531Z" fill="#0D1351"/>
<path d="M86.0877 19.8151L93.4592 19.8601L93.4442 22.3208L86.0728 22.2759L86.0877 19.8151Z" fill="#0D1351"/>
<path d="M78.7881 7.47588L81.2473 7.49097L81.2017 14.9362L78.7424 14.9212L78.7881 7.47588Z" fill="#0D1351"/>
<path d="M81.0363 41.9143L83.4956 41.9285L83.4815 44.3892L81.0222 44.375L81.0363 41.9143Z" fill="#0D1351"/>
<path d="M54.0973 26.9986L54.1163 24.5379L56.5692 24.5505L56.5881 22.0961L46.7574 22.033L46.7385 24.3549L51.5876 24.3864L51.5687 26.9102L54.0973 26.9986Z" fill="#0D1351"/>
<path d="M56.6136 17.1746L51.7707 17.1494L51.7833 14.6193L49.3241 14.6066L49.3682 7.16138L54.2174 7.18661L54.2048 9.57794L56.6577 9.59686L56.6136 17.1746Z" fill="#EEEEEE"/>
<path d="M59.0727 17.1935L59.1042 12.2721L61.6266 12.291L61.6455 9.76089L64.0291 9.77351L64.048 7.31909L68.9602 7.34433L68.9161 14.7202L66.3937 14.7076L66.3748 17.0989L59.0727 17.1935Z" fill="#EEEEEE"/>
<path d="M59.06 19.5786L59.0285 24.5001L61.5508 24.5127L61.5382 27.0428L66.3873 27.0681L66.3684 29.5288L68.8277 29.5477L68.8718 22.1655L66.3432 22.1529L66.3621 19.7616L59.06 19.5786Z" fill="#EEEEEE"/>
</g>
<defs>
<clipPath id="clip0_38_31844">
<rect width="101" height="49" fill="white" transform="matrix(-1 -8.74228e-08 -8.74228e-08 1 101 0)"/>
</clipPath>
</defs>
</svg>
