<svg width="540" height="46" viewBox="0 0 540 46" fill="none" xmlns="http://www.w3.org/2000/svg">
<mask id="mask0_38_31137" style="mask-type:alpha" maskUnits="userSpaceOnUse" x="0" y="0" width="540" height="46">
<rect width="540" height="46" fill="#D9D9D9"/>
</mask>
<g mask="url(#mask0_38_31137)">
<g clip-path="url(#clip0_38_31137)">
<path d="M34.6283 4.52979H4.19556V41.7498H34.6283V4.52979Z" fill="#22244B"/>
<path d="M21.1081 4.12012H17.5649V7.65012H21.1081V4.12012Z" fill="#22244B"/>
<path d="M21.1081 38.4102H17.5649V41.9302H21.1081V38.4102Z" fill="#22244B"/>
<path d="M48.2587 42.0598H51.9222V38.4698H55.3349V35.1998H58.6271V31.7898H62.1602V28.3998H65.4524V24.8698H68.865V21.4098H65.5427V18.1298H62.13V14.5998H58.7676V11.3298H55.4252V7.92979H52.0226V4.52979H48.5096V7.85979H44.9665V11.2698H41.5538V14.4798H38.2717V18.1898H34.7286V21.4698H31.3159V24.9298H34.8189V28.3298H38.2315V31.6098H41.6542V35.0098H45.0668V38.4098L48.2386 38.4398L48.2587 42.0598Z" fill="#22244B"/>
<path d="M38.2315 24.9994H34.8188V21.4694H38.111V18.1894H41.7746V14.7894H45.1873V11.2694H48.5999V7.85938H52.0226V11.1394H55.4252L55.4954 14.7894H58.7675V17.9594L62.13 17.9394V21.5894H65.5426V24.8694H62.13V28.3994H58.5869V31.7894H55.4252V35.1994H51.8921V38.4694H48.4794V35.0694H45.0668V31.6694H41.6542V28.2694H38.2315V24.9994Z" fill="#FAB710"/>
<path d="M48.61 14.6694H45.0669V18.1994H48.61V14.6694Z" fill="#22244B"/>
<path d="M48.5097 28.1694H44.9666V31.6994H48.5097V28.1694Z" fill="#22244B"/>
<path d="M41.8749 34.9795H38.3318V38.5095H41.8749V34.9795Z" fill="#FAB710"/>
<path d="M38.2716 38.1895H34.7285V41.7195H38.2716V38.1895Z" fill="#FAB710"/>
<path d="M4.13516 4.55957H0.592041V8.08957H4.13516V4.55957Z" fill="#FAB710"/>
<path d="M0.531893 7.76953H-3.01123V11.2995H0.531893V7.76953Z" fill="#FAB710"/>
<path d="M38.2716 4.55957H34.7285V8.08957H38.2716V4.55957Z" fill="#FAB710"/>
<path d="M41.8749 7.76953H38.3318V11.2995H41.8749V7.76953Z" fill="#FAB710"/>
<path d="M-3.01123 38.6894L0.531893 38.8794V35.3594H-3.01123V38.6894Z" fill="#FAB710"/>
<path d="M4.13516 38.3794H0.592041V41.9094H4.13516V38.3794Z" fill="#FAB710"/>
<path d="M55.3349 28.2695H51.7917V31.7995H55.3349V28.2695Z" fill="#22244B"/>
<path d="M55.4352 14.7896H51.8921V18.3196H55.4352V14.7896Z" fill="#22244B"/>
<path d="M21.0779 18.0399V7.7999H24.36V4.3999H34.7284V7.9299H31.4463V11.1999H27.9032V14.5999L24.4403 14.5399V18.0399H21.0779Z" fill="#FAB710"/>
<path d="M17.7858 18.0399V7.7999H14.5037V4.3999H4.13525V7.9299H7.41741V11.1999H10.9605V14.5999L14.4234 14.5399V18.0399H17.7858Z" fill="#FAB710"/>
<path d="M24.6112 18.2502H28.0238V14.8602H31.4465V11.4602H34.7286V8.18018H38.2718V11.3302H41.5539V14.7302H38.1413V18.1302H34.7286V21.5302H24.4907L24.6112 18.2502Z" fill="#FAB710"/>
<path d="M14.2426 18.0002H10.8299V14.6002H7.41728V11.2002H4.13512V7.93018H0.591998V11.0802H-2.7002V14.4802H0.722481V17.8802H4.13512V21.2802H14.373L14.2426 18.0002Z" fill="#FAB710"/>
<path d="M21.0779 28.2998V38.5398H24.36V41.9398H34.7284V38.4098H31.4463V35.1298H27.9032V31.7298L24.4403 31.7998V28.2998H21.0779Z" fill="#FAB710"/>
<path d="M17.7858 28.2998V38.5398H14.5037V41.9398H4.13525V38.4098H7.41741V35.1298H10.9605V31.7298L14.4234 31.7998V28.2998H17.7858Z" fill="#FAB710"/>
<path d="M24.6112 28.0801H28.0238V31.4801H31.4465V34.8801H34.7286V38.1601H38.2718V35.0101H41.5539V31.6101H38.1413V28.2101H34.7286V24.8101H24.4907L24.6112 28.0801Z" fill="#FAB710"/>
<path d="M14.2426 28.3301H10.8299V31.7301H7.41728V35.1401H4.13512V38.4101H0.591998V35.2601H-2.7002V31.8601H0.722481V28.4601H4.13512V25.0601H14.373L14.2426 28.3301Z" fill="#FAB710"/>
<path d="M17.6654 21.34V18.04H21.078V21.34H24.4906V24.74H21.1683V28.24H17.6654V24.74H14.2427V21.44L17.6654 21.34Z" fill="#FAB710"/>
<path d="M96.0758 4.72021H65.6431V41.9402H96.0758V4.72021Z" fill="#22244B"/>
<path d="M82.5556 4.31006H79.0125V7.84006H82.5556V4.31006Z" fill="#22244B"/>
<path d="M82.5556 38.6001H79.0125V42.1301H82.5556V38.6001Z" fill="#22244B"/>
<path d="M109.696 42.2502H113.37V38.6602H116.782V35.3902H120.065V31.9802H123.608V28.5802H126.89V25.0602H130.302V21.5902H126.99V18.3202H123.578V14.7902H120.205V11.5202H116.873V8.12021H113.46V4.72021H109.947V8.05022H106.414V11.4602H103.001V14.6702H99.7092V18.3802H96.1761V21.6602H92.7534V25.1202H96.2664V28.5202H99.6791V31.7902H103.092V35.2002H106.504V38.6002L109.686 38.6302L109.696 42.2502Z" fill="#22244B"/>
<path d="M99.679 25.1898H96.2664V21.6598H99.5485V18.3798H103.222V14.9798H106.635V11.4598H110.047V8.0498H113.46V11.3298H116.873L116.933 14.9798H120.205V18.1498L123.578 18.1298V21.7798H126.99V25.0598H123.578V28.5798H120.034V31.9798H116.873V35.3898H113.33V38.6598H109.917V35.2598H106.504V31.8598H103.092V28.4598H99.679V25.1898Z" fill="#FAB710"/>
<path d="M110.048 14.8599H106.504V18.3899H110.048V14.8599Z" fill="#22244B"/>
<path d="M109.957 28.3599H106.414V31.8899H109.957V28.3599Z" fill="#22244B"/>
<path d="M103.312 35.1699H99.7693V38.6999H103.312V35.1699Z" fill="#FAB710"/>
<path d="M99.7191 38.3799H96.176V41.9099H99.7191V38.3799Z" fill="#FAB710"/>
<path d="M65.5727 4.75H62.0295V8.28H65.5727V4.75Z" fill="#FAB710"/>
<path d="M61.9794 7.95996H58.4363V11.49H61.9794V7.95996Z" fill="#FAB710"/>
<path d="M99.7191 4.75H96.176V8.28H99.7191V4.75Z" fill="#FAB710"/>
<path d="M103.312 7.95996H99.7693V11.49H103.312V7.95996Z" fill="#FAB710"/>
<path d="M58.4363 38.88L61.9694 39.07V35.54H58.4363V38.88Z" fill="#FAB710"/>
<path d="M65.5727 38.5698H62.0295V42.0998H65.5727V38.5698Z" fill="#FAB710"/>
<path d="M116.772 28.46H113.239V31.99H116.772V28.46Z" fill="#22244B"/>
<path d="M116.873 14.98H113.33V18.51H116.873V14.98Z" fill="#22244B"/>
<path d="M82.5156 18.2198V7.98984H85.8078V4.58984H96.1762V8.11984H92.884V11.3898H89.3409V14.7898L85.8881 14.7298V18.2198H82.5156Z" fill="#FAB710"/>
<path d="M79.2333 18.2198V7.98984H75.9412V4.58984H65.5728V8.11984H68.8649V11.3898H72.398V14.7898L75.8609 14.7298V18.2198H79.2333Z" fill="#FAB710"/>
<path d="M86.0587 18.4401H89.4713V15.0401H92.884V11.6401H96.1762V8.37012H99.7093V11.5201H103.001V14.9201H99.5788V18.3201H96.1762V21.7201H85.9282L86.0587 18.4401Z" fill="#FAB710"/>
<path d="M75.6903 18.1901H72.2777V14.7901H68.865V11.3901H65.5728V8.12012H62.0297V11.2701H58.7476V14.6701H62.1602V18.0701H65.5728V21.4701H75.8108L75.6903 18.1901Z" fill="#FAB710"/>
<path d="M82.5156 28.4902V38.7302H85.8078V42.1202H96.1762V38.6002H92.884V35.3202H89.3409V31.9202L85.8881 31.9902V28.4902H82.5156Z" fill="#FAB710"/>
<path d="M79.2333 28.4902V38.7302H75.9412V42.1202H65.5728V38.6002H68.8649V35.3202H72.398V31.9202L75.8609 31.9902V28.4902H79.2333Z" fill="#FAB710"/>
<path d="M86.0587 28.27H89.4713V31.67H92.884V35.07H96.1762V38.35H99.7093V35.2H103.001V31.8H99.5788V28.4H96.1762V25H85.9282L86.0587 28.27Z" fill="#FAB710"/>
<path d="M75.6903 28.52H72.2777V31.92H68.865V35.33H65.5728V38.6H62.0297V35.45H58.7476V32.05H62.1602V28.65H65.5728V25.25H75.8108L75.6903 28.52Z" fill="#FAB710"/>
<path d="M79.1028 21.5302V18.2202H82.5155V21.5302H85.9281V24.9302H82.6158V28.4302H79.1028V24.9302H75.6902V21.6302L79.1028 21.5302Z" fill="#FAB710"/>
<path d="M123.437 1H0.772705V4.53H123.437V1Z" fill="#22244B"/>
<path d="M123.427 42.0601H1.14404V45.8401H123.427V42.0601Z" fill="#22244B"/>
<path d="M51.8519 21.5298H48.3188V25.0498H51.8519V21.5298Z" fill="#22244B"/>
<path d="M113.581 21.5298H110.048V25.0498H113.581V21.5298Z" fill="#22244B"/>
</g>
<g clip-path="url(#clip1_38_31137)">
<path d="M157.082 4.52979H126.649V41.7498H157.082V4.52979Z" fill="#22244B"/>
<path d="M143.562 4.12012H140.019V7.65012H143.562V4.12012Z" fill="#22244B"/>
<path d="M143.562 38.4102H140.019V41.9302H143.562V38.4102Z" fill="#22244B"/>
<path d="M170.712 42.0598H174.376V38.4698H177.788V35.1998H181.081V31.7898H184.614V28.3998H187.906V24.8698H191.319V21.4098H187.996V18.1298H184.584V14.5998H181.221V11.3298H177.879V7.92979H174.476V4.52979H170.963V7.85979H167.42V11.2698H164.007V14.4798H160.725V18.1898H157.182V21.4698H153.77V24.9298H157.273V28.3298H160.685V31.6098H164.108V35.0098H167.52V38.4098L170.692 38.4398L170.712 42.0598Z" fill="#22244B"/>
<path d="M160.685 24.9994H157.272V21.4694H160.565V18.1894H164.228V14.7894H167.641V11.2694H171.054V7.85938H174.476V11.1394H177.879L177.949 14.7894H181.221V17.9594L184.584 17.9394V21.5894H187.996V24.8694H184.584V28.3994H181.04V31.7894H177.879V35.1994H174.346V38.4694H170.933V35.0694H167.52V31.6694H164.108V28.2694H160.685V24.9994Z" fill="#FAB710"/>
<path d="M171.064 14.6694H167.521V18.1994H171.064V14.6694Z" fill="#22244B"/>
<path d="M170.963 28.1694H167.42V31.6994H170.963V28.1694Z" fill="#22244B"/>
<path d="M164.329 34.9795H160.785V38.5095H164.329V34.9795Z" fill="#FAB710"/>
<path d="M160.725 38.1895H157.182V41.7195H160.725V38.1895Z" fill="#FAB710"/>
<path d="M126.589 4.55957H123.046V8.08957H126.589V4.55957Z" fill="#FAB710"/>
<path d="M122.986 7.76953H119.442V11.2995H122.986V7.76953Z" fill="#FAB710"/>
<path d="M160.725 4.55957H157.182V8.08957H160.725V4.55957Z" fill="#FAB710"/>
<path d="M164.329 7.76953H160.785V11.2995H164.329V7.76953Z" fill="#FAB710"/>
<path d="M119.442 38.6894L122.986 38.8794V35.3594H119.442V38.6894Z" fill="#FAB710"/>
<path d="M126.589 38.3794H123.046V41.9094H126.589V38.3794Z" fill="#FAB710"/>
<path d="M177.788 28.2695H174.245V31.7995H177.788V28.2695Z" fill="#22244B"/>
<path d="M177.889 14.7896H174.346V18.3196H177.889V14.7896Z" fill="#22244B"/>
<path d="M143.531 18.0399V7.7999H146.814V4.3999H157.182V7.9299H153.9V11.1999H150.357V14.5999L146.894 14.5399V18.0399H143.531Z" fill="#FAB710"/>
<path d="M140.239 18.0399V7.7999H136.957V4.3999H126.589V7.9299H129.871V11.1999H133.414V14.5999L136.877 14.5399V18.0399H140.239Z" fill="#FAB710"/>
<path d="M147.065 18.2502H150.477V14.8602H153.9V11.4602H157.182V8.18018H160.725V11.3302H164.008V14.7302H160.595V18.1302H157.182V21.5302H146.944L147.065 18.2502Z" fill="#FAB710"/>
<path d="M136.696 18.0002H133.284V14.6002H129.871V11.2002H126.589V7.93018H123.046V11.0802H119.753V14.4802H123.176V17.8802H126.589V21.2802H136.827L136.696 18.0002Z" fill="#FAB710"/>
<path d="M143.531 28.2998V38.5398H146.814V41.9398H157.182V38.4098H153.9V35.1298H150.357V31.7298L146.894 31.7998V28.2998H143.531Z" fill="#FAB710"/>
<path d="M140.239 28.2998V38.5398H136.957V41.9398H126.589V38.4098H129.871V35.1298H133.414V31.7298L136.877 31.7998V28.2998H140.239Z" fill="#FAB710"/>
<path d="M147.065 28.0801H150.477V31.4801H153.9V34.8801H157.182V38.1601H160.725V35.0101H164.008V31.6101H160.595V28.2101H157.182V24.8101H146.944L147.065 28.0801Z" fill="#FAB710"/>
<path d="M136.696 28.3301H133.284V31.7301H129.871V35.1401H126.589V38.4101H123.046V35.2601H119.753V31.8601H123.176V28.4601H126.589V25.0601H136.827L136.696 28.3301Z" fill="#FAB710"/>
<path d="M140.119 21.34V18.04H143.532V21.34H146.944V24.74H143.622V28.24H140.119V24.74H136.696V21.44L140.119 21.34Z" fill="#FAB710"/>
<path d="M218.529 4.72021H188.097V41.9402H218.529V4.72021Z" fill="#22244B"/>
<path d="M205.009 4.31006H201.466V7.84006H205.009V4.31006Z" fill="#22244B"/>
<path d="M205.009 38.6001H201.466V42.1301H205.009V38.6001Z" fill="#22244B"/>
<path d="M232.15 42.2502H235.823V38.6602H239.236V35.3902H242.518V31.9802H246.061V28.5802H249.343V25.0602H252.756V21.5902H249.444V18.3202H246.031V14.7902H242.659V11.5202H239.326V8.12021H235.914V4.72021H232.401V8.05022H228.868V11.4602H225.455V14.6702H222.163V18.3802H218.63V21.6602H215.207V25.1202H218.72V28.5202H222.133V31.7902H225.545V35.2002H228.958V38.6002L232.14 38.6302L232.15 42.2502Z" fill="#22244B"/>
<path d="M222.133 25.1898H218.72V21.6598H222.002V18.3798H225.676V14.9798H229.088V11.4598H232.501V8.0498H235.914V11.3298H239.326L239.387 14.9798H242.659V18.1498L246.031 18.1298V21.7798H249.444V25.0598H246.031V28.5798H242.488V31.9798H239.326V35.3898H235.783V38.6598H232.371V35.2598H228.958V31.8598H225.545V28.4598H222.133V25.1898Z" fill="#FAB710"/>
<path d="M232.501 14.8599H228.958V18.3899H232.501V14.8599Z" fill="#22244B"/>
<path d="M232.411 28.3599H228.868V31.8899H232.411V28.3599Z" fill="#22244B"/>
<path d="M225.766 35.1699H222.223V38.6999H225.766V35.1699Z" fill="#FAB710"/>
<path d="M222.173 38.3799H218.63V41.9099H222.173V38.3799Z" fill="#FAB710"/>
<path d="M188.026 4.75H184.483V8.28H188.026V4.75Z" fill="#FAB710"/>
<path d="M184.433 7.95996H180.89V11.49H184.433V7.95996Z" fill="#FAB710"/>
<path d="M222.173 4.75H218.63V8.28H222.173V4.75Z" fill="#FAB710"/>
<path d="M225.766 7.95996H222.223V11.49H225.766V7.95996Z" fill="#FAB710"/>
<path d="M180.89 38.88L184.423 39.07V35.54H180.89V38.88Z" fill="#FAB710"/>
<path d="M188.026 38.5698H184.483V42.0998H188.026V38.5698Z" fill="#FAB710"/>
<path d="M239.226 28.46H235.693V31.99H239.226V28.46Z" fill="#22244B"/>
<path d="M239.326 14.98H235.783V18.51H239.326V14.98Z" fill="#22244B"/>
<path d="M204.969 18.2198V7.98984H208.261V4.58984H218.63V8.11984H215.338V11.3898H211.795V14.7898L208.342 14.7298V18.2198H204.969Z" fill="#FAB710"/>
<path d="M201.687 18.2198V7.98984H198.395V4.58984H188.026V8.11984H191.319V11.3898H194.852V14.7898L198.314 14.7298V18.2198H201.687Z" fill="#FAB710"/>
<path d="M208.512 18.4401H211.925V15.0401H215.338V11.6401H218.63V8.37012H222.163V11.5201H225.455V14.9201H222.032V18.3201H218.63V21.7201H208.382L208.512 18.4401Z" fill="#FAB710"/>
<path d="M198.144 18.1901H194.731V14.7901H191.319V11.3901H188.026V8.12012H184.483V11.2701H181.201V14.6701H184.614V18.0701H188.026V21.4701H198.264L198.144 18.1901Z" fill="#FAB710"/>
<path d="M204.969 28.4902V38.7302H208.261V42.1202H218.63V38.6002H215.338V35.3202H211.795V31.9202L208.342 31.9902V28.4902H204.969Z" fill="#FAB710"/>
<path d="M201.687 28.4902V38.7302H198.395V42.1202H188.026V38.6002H191.319V35.3202H194.852V31.9202L198.314 31.9902V28.4902H201.687Z" fill="#FAB710"/>
<path d="M208.512 28.27H211.925V31.67H215.338V35.07H218.63V38.35H222.163V35.2H225.455V31.8H222.032V28.4H218.63V25H208.382L208.512 28.27Z" fill="#FAB710"/>
<path d="M198.144 28.52H194.731V31.92H191.319V35.33H188.026V38.6H184.483V35.45H181.201V32.05H184.614V28.65H188.026V25.25H198.264L198.144 28.52Z" fill="#FAB710"/>
<path d="M201.556 21.5302V18.2202H204.969V21.5302H208.382V24.9302H205.069V28.4302H201.556V24.9302H198.144V21.6302L201.556 21.5302Z" fill="#FAB710"/>
<path d="M245.891 1H123.226V4.53H245.891V1Z" fill="#22244B"/>
<path d="M245.881 42.0601H123.598V45.8401H245.881V42.0601Z" fill="#22244B"/>
<path d="M174.306 21.5298H170.772V25.0498H174.306V21.5298Z" fill="#22244B"/>
<path d="M236.034 21.5298H232.501V25.0498H236.034V21.5298Z" fill="#22244B"/>
</g>
<g clip-path="url(#clip2_38_31137)">
<path d="M279.535 4.52979H249.103V41.7498H279.535V4.52979Z" fill="#22244B"/>
<path d="M266.015 4.12012H262.472V7.65012H266.015V4.12012Z" fill="#22244B"/>
<path d="M266.015 38.4102H262.472V41.9302H266.015V38.4102Z" fill="#22244B"/>
<path d="M293.166 42.0598H296.829V38.4698H300.242V35.1998H303.534V31.7898H307.067V28.3998H310.36V24.8698H313.772V21.4098H310.45V18.1298H307.037V14.5998H303.675V11.3298H300.332V7.92979H296.93V4.52979H293.417V7.85979H289.874V11.2698H286.461V14.4798H283.179V18.1898H279.636V21.4698H276.223V24.9298H279.726V28.3298H283.139V31.6098H286.561V35.0098H289.974V38.4098L293.146 38.4398L293.166 42.0598Z" fill="#22244B"/>
<path d="M283.139 24.9994H279.726V21.4694H283.018V18.1894H286.682V14.7894H290.094V11.2694H293.507V7.85938H296.93V11.1394H300.332L300.403 14.7894H303.675V17.9594L307.037 17.9394V21.5894H310.45V24.8694H307.037V28.3994H303.494V31.7894H300.332V35.1994H296.799V38.4694H293.387V35.0694H289.974V31.6694H286.561V28.2694H283.139V24.9994Z" fill="#FAB710"/>
<path d="M293.517 14.6694H289.974V18.1994H293.517V14.6694Z" fill="#22244B"/>
<path d="M293.417 28.1694H289.874V31.6994H293.417V28.1694Z" fill="#22244B"/>
<path d="M286.782 34.9795H283.239V38.5095H286.782V34.9795Z" fill="#FAB710"/>
<path d="M283.179 38.1895H279.636V41.7195H283.179V38.1895Z" fill="#FAB710"/>
<path d="M249.042 4.55957H245.499V8.08957H249.042V4.55957Z" fill="#FAB710"/>
<path d="M245.439 7.76953H241.896V11.2995H245.439V7.76953Z" fill="#FAB710"/>
<path d="M283.179 4.55957H279.636V8.08957H283.179V4.55957Z" fill="#FAB710"/>
<path d="M286.782 7.76953H283.239V11.2995H286.782V7.76953Z" fill="#FAB710"/>
<path d="M241.896 38.6894L245.439 38.8794V35.3594H241.896V38.6894Z" fill="#FAB710"/>
<path d="M249.042 38.3794H245.499V41.9094H249.042V38.3794Z" fill="#FAB710"/>
<path d="M300.242 28.2695H296.699V31.7995H300.242V28.2695Z" fill="#22244B"/>
<path d="M300.342 14.7896H296.799V18.3196H300.342V14.7896Z" fill="#22244B"/>
<path d="M265.985 18.0399V7.7999H269.267V4.3999H279.636V7.9299H276.354V11.1999H272.81V14.5999L269.348 14.5399V18.0399H265.985Z" fill="#FAB710"/>
<path d="M262.693 18.0399V7.7999H259.411V4.3999H249.042V7.9299H252.325V11.1999H255.868V14.5999L259.331 14.5399V18.0399H262.693Z" fill="#FAB710"/>
<path d="M269.518 18.2502H272.931V14.8602H276.354V11.4602H279.636V8.18018H283.179V11.3302H286.461V14.7302H283.049V18.1302H279.636V21.5302H269.398L269.518 18.2502Z" fill="#FAB710"/>
<path d="M259.15 18.0002H255.737V14.6002H252.325V11.2002H249.042V7.93018H245.499V11.0802H242.207V14.4802H245.63V17.8802H249.042V21.2802H259.28L259.15 18.0002Z" fill="#FAB710"/>
<path d="M265.985 28.2998V38.5398H269.267V41.9398H279.636V38.4098H276.354V35.1298H272.81V31.7298L269.348 31.7998V28.2998H265.985Z" fill="#FAB710"/>
<path d="M262.693 28.2998V38.5398H259.411V41.9398H249.042V38.4098H252.325V35.1298H255.868V31.7298L259.331 31.7998V28.2998H262.693Z" fill="#FAB710"/>
<path d="M269.518 28.0801H272.931V31.4801H276.354V34.8801H279.636V38.1601H283.179V35.0101H286.461V31.6101H283.049V28.2101H279.636V24.8101H269.398L269.518 28.0801Z" fill="#FAB710"/>
<path d="M259.15 28.3301H255.737V31.7301H252.325V35.1401H249.042V38.4101H245.499V35.2601H242.207V31.8601H245.63V28.4601H249.042V25.0601H259.28L259.15 28.3301Z" fill="#FAB710"/>
<path d="M262.573 21.34V18.04H265.985V21.34H269.398V24.74H266.076V28.24H262.573V24.74H259.15V21.44L262.573 21.34Z" fill="#FAB710"/>
<path d="M340.983 4.72021H310.55V41.9402H340.983V4.72021Z" fill="#22244B"/>
<path d="M327.463 4.31006H323.92V7.84006H327.463V4.31006Z" fill="#22244B"/>
<path d="M327.463 38.6001H323.92V42.1301H327.463V38.6001Z" fill="#22244B"/>
<path d="M354.603 42.2502H358.277V38.6602H361.69V35.3902H364.972V31.9802H368.515V28.5802H371.797V25.0602H375.21V21.5902H371.897V18.3202H368.485V14.7902H365.112V11.5202H361.78V8.12021H358.367V4.72021H354.854V8.05022H351.321V11.4602H347.909V14.6702H344.616V18.3802H341.083V21.6602H337.661V25.1202H341.174V28.5202H344.586V31.7902H347.999V35.2002H351.412V38.6002L354.593 38.6302L354.603 42.2502Z" fill="#22244B"/>
<path d="M344.586 25.1898H341.174V21.6598H344.456V18.3798H348.129V14.9798H351.542V11.4598H354.955V8.0498H358.367V11.3298H361.78L361.84 14.9798H365.112V18.1498L368.485 18.1298V21.7798H371.897V25.0598H368.485V28.5798H364.942V31.9798H361.78V35.3898H358.237V38.6598H354.824V35.2598H351.411V31.8598H347.999V28.4598H344.586V25.1898Z" fill="#FAB710"/>
<path d="M354.955 14.8599H351.412V18.3899H354.955V14.8599Z" fill="#22244B"/>
<path d="M354.864 28.3599H351.321V31.8899H354.864V28.3599Z" fill="#22244B"/>
<path d="M348.22 35.1699H344.677V38.6999H348.22V35.1699Z" fill="#FAB710"/>
<path d="M344.626 38.3799H341.083V41.9099H344.626V38.3799Z" fill="#FAB710"/>
<path d="M310.48 4.75H306.937V8.28H310.48V4.75Z" fill="#FAB710"/>
<path d="M306.887 7.95996H303.344V11.49H306.887V7.95996Z" fill="#FAB710"/>
<path d="M344.626 4.75H341.083V8.28H344.626V4.75Z" fill="#FAB710"/>
<path d="M348.22 7.95996H344.677V11.49H348.22V7.95996Z" fill="#FAB710"/>
<path d="M303.344 38.88L306.877 39.07V35.54H303.344V38.88Z" fill="#FAB710"/>
<path d="M310.48 38.5698H306.937V42.0998H310.48V38.5698Z" fill="#FAB710"/>
<path d="M361.68 28.46H358.146V31.99H361.68V28.46Z" fill="#22244B"/>
<path d="M361.78 14.98H358.237V18.51H361.78V14.98Z" fill="#22244B"/>
<path d="M327.423 18.2198V7.98984H330.715V4.58984H341.083V8.11984H337.791V11.3898H334.248V14.7898L330.795 14.7298V18.2198H327.423Z" fill="#FAB710"/>
<path d="M324.141 18.2198V7.98984H320.848V4.58984H310.48V8.11984H313.772V11.3898H317.305V14.7898L320.768 14.7298V18.2198H324.141Z" fill="#FAB710"/>
<path d="M330.966 18.4401H334.379V15.0401H337.791V11.6401H341.083V8.37012H344.616V11.5201H347.909V14.9201H344.486V18.3201H341.083V21.7201H330.835L330.966 18.4401Z" fill="#FAB710"/>
<path d="M320.598 18.1901H317.185V14.7901H313.772V11.3901H310.48V8.12012H306.937V11.2701H303.655V14.6701H307.067V18.0701H310.48V21.4701H320.718L320.598 18.1901Z" fill="#FAB710"/>
<path d="M327.423 28.4902V38.7302H330.715V42.1202H341.083V38.6002H337.791V35.3202H334.248V31.9202L330.795 31.9902V28.4902H327.423Z" fill="#FAB710"/>
<path d="M324.141 28.4902V38.7302H320.848V42.1202H310.48V38.6002H313.772V35.3202H317.305V31.9202L320.768 31.9902V28.4902H324.141Z" fill="#FAB710"/>
<path d="M330.966 28.27H334.379V31.67H337.791V35.07H341.083V38.35H344.616V35.2H347.909V31.8H344.486V28.4H341.083V25H330.835L330.966 28.27Z" fill="#FAB710"/>
<path d="M320.598 28.52H317.185V31.92H313.772V35.33H310.48V38.6H306.937V35.45H303.655V32.05H307.067V28.65H310.48V25.25H320.718L320.598 28.52Z" fill="#FAB710"/>
<path d="M324.01 21.5302V18.2202H327.423V21.5302H330.835V24.9302H327.523V28.4302H324.01V24.9302H320.597V21.6302L324.01 21.5302Z" fill="#FAB710"/>
<path d="M368.344 1H245.68V4.53H368.344V1Z" fill="#22244B"/>
<path d="M368.334 42.0601H246.051V45.8401H368.334V42.0601Z" fill="#22244B"/>
<path d="M296.759 21.5298H293.226V25.0498H296.759V21.5298Z" fill="#22244B"/>
<path d="M358.488 21.5298H354.955V25.0498H358.488V21.5298Z" fill="#22244B"/>
</g>
<g clip-path="url(#clip3_38_31137)">
<path d="M400.985 4.52979H370.552V41.7498H400.985V4.52979Z" fill="#22244B"/>
<path d="M387.465 4.12012H383.922V7.65012H387.465V4.12012Z" fill="#22244B"/>
<path d="M387.465 38.4102H383.922V41.9302H387.465V38.4102Z" fill="#22244B"/>
<path d="M414.616 42.0598H418.279V38.4698H421.692V35.1998H424.984V31.7898H428.517V28.3998H431.809V24.8698H435.222V21.4098H431.9V18.1298H428.487V14.5998H425.125V11.3298H421.782V7.92979H418.38V4.52979H414.867V7.85979H411.323V11.2698H407.911V14.4798H404.629V18.1898H401.085V21.4698H397.673V24.9298H401.176V28.3298H404.588V31.6098H408.011V35.0098H411.424V38.4098L414.596 38.4398L414.616 42.0598Z" fill="#22244B"/>
<path d="M404.588 24.9994H401.176V21.4694H404.468V18.1894H408.132V14.7894H411.544V11.2694H414.957V7.85938H418.38V11.1394H421.782L421.852 14.7894H425.124V17.9594L428.487 17.9394V21.5894H431.9V24.8694H428.487V28.3994H424.944V31.7894H421.782V35.1994H418.249V38.4694H414.836V35.0694H411.424V31.6694H408.011V28.2694H404.588V24.9994Z" fill="#FAB710"/>
<path d="M414.967 14.6694H411.424V18.1994H414.967V14.6694Z" fill="#22244B"/>
<path d="M414.867 28.1694H411.323V31.6994H414.867V28.1694Z" fill="#22244B"/>
<path d="M408.232 34.9795H404.689V38.5095H408.232V34.9795Z" fill="#FAB710"/>
<path d="M404.629 38.1895H401.085V41.7195H404.629V38.1895Z" fill="#FAB710"/>
<path d="M370.492 4.55957H366.949V8.08957H370.492V4.55957Z" fill="#FAB710"/>
<path d="M366.889 7.76953H363.346V11.2995H366.889V7.76953Z" fill="#FAB710"/>
<path d="M404.629 4.55957H401.085V8.08957H404.629V4.55957Z" fill="#FAB710"/>
<path d="M408.232 7.76953H404.689V11.2995H408.232V7.76953Z" fill="#FAB710"/>
<path d="M363.346 38.6894L366.889 38.8794V35.3594H363.346V38.6894Z" fill="#FAB710"/>
<path d="M370.492 38.3794H366.949V41.9094H370.492V38.3794Z" fill="#FAB710"/>
<path d="M421.692 28.2695H418.149V31.7995H421.692V28.2695Z" fill="#22244B"/>
<path d="M421.792 14.7896H418.249V18.3196H421.792V14.7896Z" fill="#22244B"/>
<path d="M387.435 18.0399V7.7999H390.717V4.3999H401.085V7.9299H397.803V11.1999H394.26V14.5999L390.797 14.5399V18.0399H387.435Z" fill="#FAB710"/>
<path d="M384.143 18.0399V7.7999H380.861V4.3999H370.492V7.9299H373.774V11.1999H377.317V14.5999L380.78 14.5399V18.0399H384.143Z" fill="#FAB710"/>
<path d="M390.968 18.2502H394.381V14.8602H397.803V11.4602H401.086V8.18018H404.629V11.3302H407.911V14.7302H404.498V18.1302H401.086V21.5302H390.848L390.968 18.2502Z" fill="#FAB710"/>
<path d="M380.599 18.0002H377.187V14.6002H373.774V11.2002H370.492V7.93018H366.949V11.0802H363.657V14.4802H367.079V17.8802H370.492V21.2802H380.73L380.599 18.0002Z" fill="#FAB710"/>
<path d="M387.435 28.2998V38.5398H390.717V41.9398H401.085V38.4098H397.803V35.1298H394.26V31.7298L390.797 31.7998V28.2998H387.435Z" fill="#FAB710"/>
<path d="M384.143 28.2998V38.5398H380.861V41.9398H370.492V38.4098H373.774V35.1298H377.317V31.7298L380.78 31.7998V28.2998H384.143Z" fill="#FAB710"/>
<path d="M390.968 28.0801H394.381V31.4801H397.803V34.8801H401.086V38.1601H404.629V35.0101H407.911V31.6101H404.498V28.2101H401.086V24.8101H390.848L390.968 28.0801Z" fill="#FAB710"/>
<path d="M380.599 28.3301H377.187V31.7301H373.774V35.1401H370.492V38.4101H366.949V35.2601H363.657V31.8601H367.079V28.4601H370.492V25.0601H380.73L380.599 28.3301Z" fill="#FAB710"/>
<path d="M384.022 21.34V18.04H387.435V21.34H390.848V24.74H387.525V28.24H384.022V24.74H380.6V21.44L384.022 21.34Z" fill="#FAB710"/>
<path d="M462.433 4.72021H432V41.9402H462.433V4.72021Z" fill="#22244B"/>
<path d="M448.913 4.31006H445.369V7.84006H448.913V4.31006Z" fill="#22244B"/>
<path d="M448.913 38.6001H445.369V42.1301H448.913V38.6001Z" fill="#22244B"/>
<path d="M476.053 42.2502H479.727V38.6602H483.139V35.3902H486.422V31.9802H489.965V28.5802H493.247V25.0602H496.659V21.5902H493.347V18.3202H489.935V14.7902H486.562V11.5202H483.23V8.12021H479.817V4.72021H476.304V8.05022H472.771V11.4602H469.358V14.6702H466.066V18.3802H462.533V21.6602H459.11V25.1202H462.623V28.5202H466.036V31.7902H469.449V35.2002H472.861V38.6002L476.043 38.6302L476.053 42.2502Z" fill="#22244B"/>
<path d="M466.036 25.1898H462.623V21.6598H465.905V18.3798H469.579V14.9798H472.992V11.4598H476.404V8.0498H479.817V11.3298H483.23L483.29 14.9798H486.562V18.1498L489.934 18.1298V21.7798H493.347V25.0598H489.934V28.5798H486.391V31.9798H483.23V35.3898H479.686V38.6598H476.274V35.2598H472.861V31.8598H469.449V28.4598H466.036V25.1898Z" fill="#FAB710"/>
<path d="M476.404 14.8599H472.861V18.3899H476.404V14.8599Z" fill="#22244B"/>
<path d="M476.314 28.3599H472.771V31.8899H476.314V28.3599Z" fill="#22244B"/>
<path d="M469.669 35.1699H466.126V38.6999H469.669V35.1699Z" fill="#FAB710"/>
<path d="M466.076 38.3799H462.533V41.9099H466.076V38.3799Z" fill="#FAB710"/>
<path d="M431.93 4.75H428.386V8.28H431.93V4.75Z" fill="#FAB710"/>
<path d="M428.336 7.95996H424.793V11.49H428.336V7.95996Z" fill="#FAB710"/>
<path d="M466.076 4.75H462.533V8.28H466.076V4.75Z" fill="#FAB710"/>
<path d="M469.669 7.95996H466.126V11.49H469.669V7.95996Z" fill="#FAB710"/>
<path d="M424.793 38.88L428.326 39.07V35.54H424.793V38.88Z" fill="#FAB710"/>
<path d="M431.93 38.5698H428.386V42.0998H431.93V38.5698Z" fill="#FAB710"/>
<path d="M483.129 28.46H479.596V31.99H483.129V28.46Z" fill="#22244B"/>
<path d="M483.23 14.98H479.687V18.51H483.23V14.98Z" fill="#22244B"/>
<path d="M448.873 18.2198V7.98984H452.165V4.58984H462.533V8.11984H459.241V11.3898H455.698V14.7898L452.245 14.7298V18.2198H448.873Z" fill="#FAB710"/>
<path d="M445.59 18.2198V7.98984H442.298V4.58984H431.93V8.11984H435.222V11.3898H438.755V14.7898L442.218 14.7298V18.2198H445.59Z" fill="#FAB710"/>
<path d="M452.416 18.4401H455.828V15.0401H459.241V11.6401H462.533V8.37012H466.066V11.5201H469.358V14.9201H465.936V18.3201H462.533V21.7201H452.285L452.416 18.4401Z" fill="#FAB710"/>
<path d="M442.047 18.1901H438.635V14.7901H435.222V11.3901H431.93V8.12012H428.387V11.2701H425.104V14.6701H428.517V18.0701H431.93V21.4701H442.168L442.047 18.1901Z" fill="#FAB710"/>
<path d="M448.873 28.4902V38.7302H452.165V42.1202H462.533V38.6002H459.241V35.3202H455.698V31.9202L452.245 31.9902V28.4902H448.873Z" fill="#FAB710"/>
<path d="M445.59 28.4902V38.7302H442.298V42.1202H431.93V38.6002H435.222V35.3202H438.755V31.9202L442.218 31.9902V28.4902H445.59Z" fill="#FAB710"/>
<path d="M452.416 28.27H455.828V31.67H459.241V35.07H462.533V38.35H466.066V35.2H469.358V31.8H465.936V28.4H462.533V25H452.285L452.416 28.27Z" fill="#FAB710"/>
<path d="M442.047 28.52H438.635V31.92H435.222V35.33H431.93V38.6H428.387V35.45H425.104V32.05H428.517V28.65H431.93V25.25H442.168L442.047 28.52Z" fill="#FAB710"/>
<path d="M445.46 21.5302V18.2202H448.872V21.5302H452.285V24.9302H448.973V28.4302H445.46V24.9302H442.047V21.6302L445.46 21.5302Z" fill="#FAB710"/>
<path d="M489.794 1H367.13V4.53H489.794V1Z" fill="#22244B"/>
<path d="M489.784 42.0601H367.501V45.8401H489.784V42.0601Z" fill="#22244B"/>
<path d="M418.209 21.5298H414.676V25.0498H418.209V21.5298Z" fill="#22244B"/>
<path d="M479.938 21.5298H476.405V25.0498H479.938V21.5298Z" fill="#22244B"/>
</g>
<g clip-path="url(#clip4_38_31137)">
<path d="M522.435 4.52979H492.002V41.7498H522.435V4.52979Z" fill="#22244B"/>
<path d="M508.915 4.12012H505.372V7.65012H508.915V4.12012Z" fill="#22244B"/>
<path d="M508.915 38.4102H505.372V41.9302H508.915V38.4102Z" fill="#22244B"/>
<path d="M536.065 42.0598H539.729V38.4698H543.142V35.1998H546.434V31.7898H549.967V28.3998H553.259V24.8698H556.672V21.4098H553.349V18.1298H549.937V14.5998H546.574V11.3298H543.232V7.92979H539.829V4.52979H536.316V7.85979H532.773V11.2698H529.36V14.4798H526.078V18.1898H522.535V21.4698H519.123V24.9298H522.626V28.3298H526.038V31.6098H529.461V35.0098H532.873V38.4098L536.045 38.4398L536.065 42.0598Z" fill="#22244B"/>
<path d="M526.038 24.9994H522.625V21.4694H525.918V18.1894H529.581V14.7894H532.994V11.2694H536.407V7.85938H539.829V11.1394H543.232L543.302 14.7894H546.574V17.9594L549.937 17.9394V21.5894H553.349V24.8694H549.937V28.3994H546.394V31.7894H543.232V35.1994H539.699V38.4694H536.286V35.0694H532.873V31.6694H529.461V28.2694H526.038V24.9994Z" fill="#FAB710"/>
<path d="M536.417 14.6694H532.874V18.1994H536.417V14.6694Z" fill="#22244B"/>
<path d="M536.316 28.1694H532.773V31.6994H536.316V28.1694Z" fill="#22244B"/>
<path d="M529.682 34.9795H526.138V38.5095H529.682V34.9795Z" fill="#FAB710"/>
<path d="M526.078 38.1895H522.535V41.7195H526.078V38.1895Z" fill="#FAB710"/>
<path d="M491.942 4.55957H488.399V8.08957H491.942V4.55957Z" fill="#FAB710"/>
<path d="M488.339 7.76953H484.795V11.2995H488.339V7.76953Z" fill="#FAB710"/>
<path d="M526.078 4.55957H522.535V8.08957H526.078V4.55957Z" fill="#FAB710"/>
<path d="M529.682 7.76953H526.138V11.2995H529.682V7.76953Z" fill="#FAB710"/>
<path d="M484.795 38.6894L488.339 38.8794V35.3594H484.795V38.6894Z" fill="#FAB710"/>
<path d="M491.942 38.3794H488.399V41.9094H491.942V38.3794Z" fill="#FAB710"/>
<path d="M543.142 28.2695H539.598V31.7995H543.142V28.2695Z" fill="#22244B"/>
<path d="M543.242 14.7896H539.699V18.3196H543.242V14.7896Z" fill="#22244B"/>
<path d="M508.885 18.0399V7.7999H512.167V4.3999H522.535V7.9299H519.253V11.1999H515.71V14.5999L512.247 14.5399V18.0399H508.885Z" fill="#FAB710"/>
<path d="M505.592 18.0399V7.7999H502.31V4.3999H491.942V7.9299H495.224V11.1999H498.767V14.5999L502.23 14.5399V18.0399H505.592Z" fill="#FAB710"/>
<path d="M512.418 18.2502H515.83V14.8602H519.253V11.4602H522.535V8.18018H526.078V11.3302H529.361V14.7302H525.948V18.1302H522.535V21.5302H512.297L512.418 18.2502Z" fill="#FAB710"/>
<path d="M502.049 18.0002H498.637V14.6002H495.224V11.2002H491.942V7.93018H488.399V11.0802H485.106V14.4802H488.529V17.8802H491.942V21.2802H502.18L502.049 18.0002Z" fill="#FAB710"/>
<path d="M508.885 28.2998V38.5398H512.167V41.9398H522.535V38.4098H519.253V35.1298H515.71V31.7298L512.247 31.7998V28.2998H508.885Z" fill="#FAB710"/>
<path d="M505.592 28.2998V38.5398H502.31V41.9398H491.942V38.4098H495.224V35.1298H498.767V31.7298L502.23 31.7998V28.2998H505.592Z" fill="#FAB710"/>
<path d="M512.418 28.0801H515.83V31.4801H519.253V34.8801H522.535V38.1601H526.078V35.0101H529.361V31.6101H525.948V28.2101H522.535V24.8101H512.297L512.418 28.0801Z" fill="#FAB710"/>
<path d="M502.049 28.3301H498.637V31.7301H495.224V35.1401H491.942V38.4101H488.399V35.2601H485.106V31.8601H488.529V28.4601H491.942V25.0601H502.18L502.049 28.3301Z" fill="#FAB710"/>
<path d="M505.472 21.34V18.04H508.885V21.34H512.297V24.74H508.975V28.24H505.472V24.74H502.049V21.44L505.472 21.34Z" fill="#FAB710"/>
<path d="M611.244 1H488.579V4.53H611.244V1Z" fill="#22244B"/>
<path d="M611.234 42.0601H488.951V45.8401H611.234V42.0601Z" fill="#22244B"/>
<path d="M539.659 21.5298H536.125V25.0498H539.659V21.5298Z" fill="#22244B"/>
</g>
</g>
<defs>
<clipPath id="clip0_38_31137">
<rect width="133.314" height="44.84" fill="white" transform="translate(-3.01123 1)"/>
</clipPath>
<clipPath id="clip1_38_31137">
<rect width="133.314" height="44.84" fill="white" transform="translate(119.442 1)"/>
</clipPath>
<clipPath id="clip2_38_31137">
<rect width="133.314" height="44.84" fill="white" transform="translate(241.896 1)"/>
</clipPath>
<clipPath id="clip3_38_31137">
<rect width="133.314" height="44.84" fill="white" transform="translate(363.346 1)"/>
</clipPath>
<clipPath id="clip4_38_31137">
<rect width="133.314" height="44.84" fill="white" transform="translate(484.795 1)"/>
</clipPath>
</defs>
</svg>
