<svg width="346" height="45" viewBox="0 0 346 45" fill="none" xmlns="http://www.w3.org/2000/svg">
<g clip-path="url(#clip0_36_10272)">
<path d="M34.5 3.53003H4.17999V40.75H34.5V3.53003Z" fill="#22244B"/>
<path d="M21.03 3.12H17.5V6.65H21.03V3.12Z" fill="#22244B"/>
<path d="M21.03 37.41H17.5V40.93H21.03V37.41Z" fill="#22244B"/>
<path d="M48.08 41.06H51.73V37.47H55.13V34.2H58.41V30.79H61.93V27.4H65.21V23.87H68.61V20.41H65.3V17.13H61.9V13.6H58.55V10.33H55.22V6.93003H51.83V3.53003H48.33V6.86003H44.8V10.27H41.4V13.48H38.13V17.19H34.6V20.47H31.2V23.93H34.69V27.33H38.09V30.61H41.5V34.01H44.9V37.41L48.06 37.44L48.08 41.06Z" fill="#22244B"/>
<path d="M38.09 24.0001H34.69V20.4701H37.97V17.1901H41.62V13.7901H45.02V10.2701H48.42V6.86011H51.83V10.1401H55.22L55.29 13.7901H58.55V16.9601L61.9 16.9401V20.5901H65.3V23.8701H61.9V27.4001H58.37V30.7901H55.22V34.2001H51.7V37.4701H48.3V34.0701H44.9V30.6701H41.5V27.2701H38.09V24.0001Z" fill="#FAB710"/>
<path d="M48.43 13.67H44.9V17.2H48.43V13.67Z" fill="#22244B"/>
<path d="M48.33 27.17H44.8V30.7H48.33V27.17Z" fill="#22244B"/>
<path d="M41.72 33.9801H38.19V37.5101H41.72V33.9801Z" fill="#FAB710"/>
<path d="M38.13 37.1901H34.6V40.7201H38.13V37.1901Z" fill="#FAB710"/>
<path d="M4.12 3.56006H0.589996V7.09006H4.12V3.56006Z" fill="#FAB710"/>
<path d="M0.53 6.77002H-3V10.3H0.53V6.77002Z" fill="#FAB710"/>
<path d="M38.13 3.56006H34.6V7.09006H38.13V3.56006Z" fill="#FAB710"/>
<path d="M41.72 6.77002H38.19V10.3H41.72V6.77002Z" fill="#FAB710"/>
<path d="M-3 37.6901L0.53 37.8801V34.3601H-3V37.6901Z" fill="#FAB710"/>
<path d="M4.12 37.38H0.589996V40.91H4.12V37.38Z" fill="#FAB710"/>
<path d="M55.13 27.27H51.6V30.8H55.13V27.27Z" fill="#22244B"/>
<path d="M55.23 13.79H51.7V17.32H55.23V13.79Z" fill="#22244B"/>
<path d="M21 17.04V6.80002H24.27V3.40002H34.6V6.93002H31.33V10.2H27.8V13.6L24.35 13.54V17.04H21Z" fill="#FAB710"/>
<path d="M17.72 17.04V6.80002H14.45V3.40002H4.12V6.93002H7.39V10.2H10.92V13.6L14.37 13.54V17.04H17.72Z" fill="#FAB710"/>
<path d="M24.52 17.2501H27.92V13.8601H31.33V10.4601H34.6V7.18005H38.13V10.3301H41.4V13.7301H38V17.1301H34.6V20.5301H24.4L24.52 17.2501Z" fill="#FAB710"/>
<path d="M14.19 17.0001H10.79V13.6001H7.39V10.2001H4.12V6.93005H0.589998V10.0801H-2.69V13.4801H0.719998V16.8801H4.12V20.2801H14.32L14.19 17.0001Z" fill="#FAB710"/>
<path d="M21 27.3V37.5401H24.27V40.94H34.6V37.41H31.33V34.1301H27.8V30.73L24.35 30.8V27.3H21Z" fill="#FAB710"/>
<path d="M17.72 27.3V37.5401H14.45V40.94H4.12V37.41H7.39V34.1301H10.92V30.73L14.37 30.8V27.3H17.72Z" fill="#FAB710"/>
<path d="M24.52 27.0801H27.92V30.4801H31.33V33.8801H34.6V37.1601H38.13V34.0101H41.4V30.6101H38V27.2101H34.6V23.8101H24.4L24.52 27.0801Z" fill="#FAB710"/>
<path d="M14.19 27.3301H10.79V30.7301H7.39V34.1401H4.12V37.4101H0.589998V34.2601H-2.69V30.8601H0.719998V27.4601H4.12V24.0601H14.32L14.19 27.3301Z" fill="#FAB710"/>
<path d="M17.6 20.34V17.04H21V20.34H24.4V23.74H21.09V27.24H17.6V23.74H14.19V20.44L17.6 20.34Z" fill="#FAB710"/>
<path d="M95.72 3.71997H65.4V40.94H95.72V3.71997Z" fill="#22244B"/>
<path d="M82.25 3.31006H78.72V6.84006H82.25V3.31006Z" fill="#22244B"/>
<path d="M82.25 37.6H78.72V41.13H82.25V37.6Z" fill="#22244B"/>
<path d="M109.29 41.25H112.95V37.66H116.35V34.39H119.62V30.98H123.15V27.58H126.42V24.06H129.82V20.59H126.52V17.32H123.12V13.79H119.76V10.52H116.44V7.11997H113.04V3.71997H109.54V7.04997H106.02V10.46H102.62V13.67H99.34V17.38H95.82V20.66H92.41V24.12H95.91V27.52H99.31V30.79H102.71V34.2H106.11V37.6L109.28 37.63L109.29 41.25Z" fill="#22244B"/>
<path d="M99.31 24.19H95.91V20.66H99.18V17.38H102.84V13.98H106.24V10.46H109.64V7.05005H113.04V10.33H116.44L116.5 13.98H119.76V17.15L123.12 17.13V20.78H126.52V24.06H123.12V27.58H119.59V30.98H116.44V34.39H112.91V37.66H109.51V34.26H106.11V30.8601H102.71V27.46H99.31V24.19Z" fill="#FAB710"/>
<path d="M109.64 13.86H106.11V17.39H109.64V13.86Z" fill="#22244B"/>
<path d="M109.55 27.36H106.02V30.89H109.55V27.36Z" fill="#22244B"/>
<path d="M102.93 34.17H99.4V37.7H102.93V34.17Z" fill="#FAB710"/>
<path d="M99.35 37.38H95.82V40.91H99.35V37.38Z" fill="#FAB710"/>
<path d="M65.33 3.75H61.8V7.28H65.33V3.75Z" fill="#FAB710"/>
<path d="M61.75 6.95996H58.22V10.49H61.75V6.95996Z" fill="#FAB710"/>
<path d="M99.35 3.75H95.82V7.28H99.35V3.75Z" fill="#FAB710"/>
<path d="M102.93 6.95996H99.4V10.49H102.93V6.95996Z" fill="#FAB710"/>
<path d="M58.22 37.88L61.74 38.07V34.54H58.22V37.88Z" fill="#FAB710"/>
<path d="M65.33 37.5699H61.8V41.0999H65.33V37.5699Z" fill="#FAB710"/>
<path d="M116.34 27.46H112.82V30.99H116.34V27.46Z" fill="#22244B"/>
<path d="M116.44 13.98H112.91V17.51H116.44V13.98Z" fill="#22244B"/>
<path d="M82.21 17.22V6.98997H85.49V3.58997H95.82V7.11997H92.54V10.39H89.01V13.79L85.57 13.73V17.22H82.21Z" fill="#FAB710"/>
<path d="M78.94 17.22V6.98997H75.66V3.58997H65.33V7.11997H68.61V10.39H72.13V13.79L75.58 13.73V17.22H78.94Z" fill="#FAB710"/>
<path d="M85.74 17.44H89.14V14.04H92.54V10.64H95.82V7.37H99.34V10.52H102.62V13.92H99.21V17.32H95.82V20.72H85.61L85.74 17.44Z" fill="#FAB710"/>
<path d="M75.41 17.19H72.01V13.79H68.61V10.39H65.33V7.12H61.8V10.27H58.53V13.67H61.93V17.07H65.33V20.47H75.53L75.41 17.19Z" fill="#FAB710"/>
<path d="M82.21 27.49V37.73H85.49V41.12H95.82V37.6H92.54V34.32H89.01V30.92L85.57 30.99V27.49H82.21Z" fill="#FAB710"/>
<path d="M78.94 27.49V37.73H75.66V41.12H65.33V37.6H68.61V34.32H72.13V30.92L75.58 30.99V27.49H78.94Z" fill="#FAB710"/>
<path d="M85.74 27.27H89.14V30.67H92.54V34.07H95.82V37.35H99.34V34.2H102.62V30.8H99.21V27.4H95.82V24H85.61L85.74 27.27Z" fill="#FAB710"/>
<path d="M75.41 27.52H72.01V30.92H68.61V34.33H65.33V37.6H61.8V34.45H58.53V31.05H61.93V27.65H65.33V24.25H75.53L75.41 27.52Z" fill="#FAB710"/>
<path d="M78.81 20.53V17.22H82.21V20.53H85.61V23.93H82.31V27.43H78.81V23.93H75.41V20.63L78.81 20.53Z" fill="#FAB710"/>
<path d="M122.98 0H0.769989V3.53H122.98V0Z" fill="#22244B"/>
<path d="M122.97 41.0601H1.14001V44.8401H122.97V41.0601Z" fill="#22244B"/>
<path d="M51.66 20.53H48.14V24.05H51.66V20.53Z" fill="#22244B"/>
<path d="M113.16 20.53H109.64V24.05H113.16V20.53Z" fill="#22244B"/>
</g>
<g clip-path="url(#clip1_36_10272)">
<path d="M156.5 3.53003H126.18V40.75H156.5V3.53003Z" fill="#22244B"/>
<path d="M143.03 3.12H139.5V6.65H143.03V3.12Z" fill="#22244B"/>
<path d="M143.03 37.41H139.5V40.93H143.03V37.41Z" fill="#22244B"/>
<path d="M170.08 41.06H173.73V37.47H177.13V34.2H180.41V30.79H183.93V27.4H187.21V23.87H190.61V20.41H187.3V17.13H183.9V13.6H180.55V10.33H177.22V6.93003H173.83V3.53003H170.33V6.86003H166.8V10.27H163.4V13.48H160.13V17.19H156.6V20.47H153.2V23.93H156.69V27.33H160.09V30.61H163.5V34.01H166.9V37.41L170.06 37.44L170.08 41.06Z" fill="#22244B"/>
<path d="M160.09 24.0001H156.69V20.4701H159.97V17.1901H163.62V13.7901H167.02V10.2701H170.42V6.86011H173.83V10.1401H177.22L177.29 13.7901H180.55V16.9601L183.9 16.9401V20.5901H187.3V23.8701H183.9V27.4001H180.37V30.7901H177.22V34.2001H173.7V37.4701H170.3V34.0701H166.9V30.6701H163.5V27.2701H160.09V24.0001Z" fill="#FAB710"/>
<path d="M170.43 13.67H166.9V17.2H170.43V13.67Z" fill="#22244B"/>
<path d="M170.33 27.17H166.8V30.7H170.33V27.17Z" fill="#22244B"/>
<path d="M163.72 33.9801H160.19V37.5101H163.72V33.9801Z" fill="#FAB710"/>
<path d="M160.13 37.1901H156.6V40.7201H160.13V37.1901Z" fill="#FAB710"/>
<path d="M126.12 3.56006H122.59V7.09006H126.12V3.56006Z" fill="#FAB710"/>
<path d="M122.53 6.77002H119V10.3H122.53V6.77002Z" fill="#FAB710"/>
<path d="M160.13 3.56006H156.6V7.09006H160.13V3.56006Z" fill="#FAB710"/>
<path d="M163.72 6.77002H160.19V10.3H163.72V6.77002Z" fill="#FAB710"/>
<path d="M119 37.6901L122.53 37.8801V34.3601H119V37.6901Z" fill="#FAB710"/>
<path d="M126.12 37.38H122.59V40.91H126.12V37.38Z" fill="#FAB710"/>
<path d="M177.13 27.27H173.6V30.8H177.13V27.27Z" fill="#22244B"/>
<path d="M177.23 13.79H173.7V17.32H177.23V13.79Z" fill="#22244B"/>
<path d="M143 17.04V6.80002H146.27V3.40002H156.6V6.93002H153.33V10.2H149.8V13.6L146.35 13.54V17.04H143Z" fill="#FAB710"/>
<path d="M139.72 17.04V6.80002H136.45V3.40002H126.12V6.93002H129.39V10.2H132.92V13.6L136.37 13.54V17.04H139.72Z" fill="#FAB710"/>
<path d="M146.52 17.2501H149.92V13.8601H153.33V10.4601H156.6V7.18005H160.13V10.3301H163.4V13.7301H160V17.1301H156.6V20.5301H146.4L146.52 17.2501Z" fill="#FAB710"/>
<path d="M136.19 17.0001H132.79V13.6001H129.39V10.2001H126.12V6.93005H122.59V10.0801H119.31V13.4801H122.72V16.8801H126.12V20.2801H136.32L136.19 17.0001Z" fill="#FAB710"/>
<path d="M143 27.3V37.5401H146.27V40.94H156.6V37.41H153.33V34.1301H149.8V30.73L146.35 30.8V27.3H143Z" fill="#FAB710"/>
<path d="M139.72 27.3V37.5401H136.45V40.94H126.12V37.41H129.39V34.1301H132.92V30.73L136.37 30.8V27.3H139.72Z" fill="#FAB710"/>
<path d="M146.52 27.0801H149.92V30.4801H153.33V33.8801H156.6V37.1601H160.13V34.0101H163.4V30.6101H160V27.2101H156.6V23.8101H146.4L146.52 27.0801Z" fill="#FAB710"/>
<path d="M136.19 27.3301H132.79V30.7301H129.39V34.1401H126.12V37.4101H122.59V34.2601H119.31V30.8601H122.72V27.4601H126.12V24.0601H136.32L136.19 27.3301Z" fill="#FAB710"/>
<path d="M139.6 20.34V17.04H143V20.34H146.4V23.74H143.09V27.24H139.6V23.74H136.19V20.44L139.6 20.34Z" fill="#FAB710"/>
<path d="M217.72 3.71997H187.4V40.94H217.72V3.71997Z" fill="#22244B"/>
<path d="M204.25 3.31006H200.72V6.84006H204.25V3.31006Z" fill="#22244B"/>
<path d="M204.25 37.6H200.72V41.13H204.25V37.6Z" fill="#22244B"/>
<path d="M231.29 41.25H234.95V37.66H238.35V34.39H241.62V30.98H245.15V27.58H248.42V24.06H251.82V20.59H248.52V17.32H245.12V13.79H241.76V10.52H238.44V7.11997H235.04V3.71997H231.54V7.04997H228.02V10.46H224.62V13.67H221.34V17.38H217.82V20.66H214.41V24.12H217.91V27.52H221.31V30.79H224.71V34.2H228.11V37.6L231.28 37.63L231.29 41.25Z" fill="#22244B"/>
<path d="M221.31 24.19H217.91V20.66H221.18V17.38H224.84V13.98H228.24V10.46H231.64V7.05005H235.04V10.33H238.44L238.5 13.98H241.76V17.15L245.12 17.13V20.78H248.52V24.06H245.12V27.58H241.59V30.98H238.44V34.39H234.91V37.66H231.51V34.26H228.11V30.8601H224.71V27.46H221.31V24.19Z" fill="#FAB710"/>
<path d="M231.64 13.86H228.11V17.39H231.64V13.86Z" fill="#22244B"/>
<path d="M231.55 27.36H228.02V30.89H231.55V27.36Z" fill="#22244B"/>
<path d="M224.93 34.17H221.4V37.7H224.93V34.17Z" fill="#FAB710"/>
<path d="M221.35 37.38H217.82V40.91H221.35V37.38Z" fill="#FAB710"/>
<path d="M187.33 3.75H183.8V7.28H187.33V3.75Z" fill="#FAB710"/>
<path d="M183.75 6.95996H180.22V10.49H183.75V6.95996Z" fill="#FAB710"/>
<path d="M221.35 3.75H217.82V7.28H221.35V3.75Z" fill="#FAB710"/>
<path d="M224.93 6.95996H221.4V10.49H224.93V6.95996Z" fill="#FAB710"/>
<path d="M180.22 37.88L183.74 38.07V34.54H180.22V37.88Z" fill="#FAB710"/>
<path d="M187.33 37.5699H183.8V41.0999H187.33V37.5699Z" fill="#FAB710"/>
<path d="M238.34 27.46H234.82V30.99H238.34V27.46Z" fill="#22244B"/>
<path d="M238.44 13.98H234.91V17.51H238.44V13.98Z" fill="#22244B"/>
<path d="M204.21 17.22V6.98997H207.49V3.58997H217.82V7.11997H214.54V10.39H211.01V13.79L207.57 13.73V17.22H204.21Z" fill="#FAB710"/>
<path d="M200.94 17.22V6.98997H197.66V3.58997H187.33V7.11997H190.61V10.39H194.13V13.79L197.58 13.73V17.22H200.94Z" fill="#FAB710"/>
<path d="M207.74 17.44H211.14V14.04H214.54V10.64H217.82V7.37H221.34V10.52H224.62V13.92H221.21V17.32H217.82V20.72H207.61L207.74 17.44Z" fill="#FAB710"/>
<path d="M197.41 17.19H194.01V13.79H190.61V10.39H187.33V7.12H183.8V10.27H180.53V13.67H183.93V17.07H187.33V20.47H197.53L197.41 17.19Z" fill="#FAB710"/>
<path d="M204.21 27.49V37.73H207.49V41.12H217.82V37.6H214.54V34.32H211.01V30.92L207.57 30.99V27.49H204.21Z" fill="#FAB710"/>
<path d="M200.94 27.49V37.73H197.66V41.12H187.33V37.6H190.61V34.32H194.13V30.92L197.58 30.99V27.49H200.94Z" fill="#FAB710"/>
<path d="M207.74 27.27H211.14V30.67H214.54V34.07H217.82V37.35H221.34V34.2H224.62V30.8H221.21V27.4H217.82V24H207.61L207.74 27.27Z" fill="#FAB710"/>
<path d="M197.41 27.52H194.01V30.92H190.61V34.33H187.33V37.6H183.8V34.45H180.53V31.05H183.93V27.65H187.33V24.25H197.53L197.41 27.52Z" fill="#FAB710"/>
<path d="M200.81 20.53V17.22H204.21V20.53H207.61V23.93H204.31V27.43H200.81V23.93H197.41V20.63L200.81 20.53Z" fill="#FAB710"/>
<path d="M244.98 0H122.77V3.53H244.98V0Z" fill="#22244B"/>
<path d="M244.97 41.0601H123.14V44.8401H244.97V41.0601Z" fill="#22244B"/>
<path d="M173.66 20.53H170.14V24.05H173.66V20.53Z" fill="#22244B"/>
<path d="M235.16 20.53H231.64V24.05H235.16V20.53Z" fill="#22244B"/>
</g>
<g clip-path="url(#clip2_36_10272)">
<path d="M278.5 3.53003H248.18V40.75H278.5V3.53003Z" fill="#22244B"/>
<path d="M265.03 3.12H261.5V6.65H265.03V3.12Z" fill="#22244B"/>
<path d="M265.03 37.41H261.5V40.93H265.03V37.41Z" fill="#22244B"/>
<path d="M292.08 41.06H295.73V37.47H299.13V34.2H302.41V30.79H305.93V27.4H309.21V23.87H312.61V20.41H309.3V17.13H305.9V13.6H302.55V10.33H299.22V6.93003H295.83V3.53003H292.33V6.86003H288.8V10.27H285.4V13.48H282.13V17.19H278.6V20.47H275.2V23.93H278.69V27.33H282.09V30.61H285.5V34.01H288.9V37.41L292.06 37.44L292.08 41.06Z" fill="#22244B"/>
<path d="M282.09 24.0001H278.69V20.4701H281.97V17.1901H285.62V13.7901H289.02V10.2701H292.42V6.86011H295.83V10.1401H299.22L299.29 13.7901H302.55V16.9601L305.9 16.9401V20.5901H309.3V23.8701H305.9V27.4001H302.37V30.7901H299.22V34.2001H295.7V37.4701H292.3V34.0701H288.9V30.6701H285.5V27.2701H282.09V24.0001Z" fill="#FAB710"/>
<path d="M292.43 13.67H288.9V17.2H292.43V13.67Z" fill="#22244B"/>
<path d="M292.33 27.17H288.8V30.7H292.33V27.17Z" fill="#22244B"/>
<path d="M285.72 33.9801H282.19V37.5101H285.72V33.9801Z" fill="#FAB710"/>
<path d="M282.13 37.1901H278.6V40.7201H282.13V37.1901Z" fill="#FAB710"/>
<path d="M248.12 3.56006H244.59V7.09006H248.12V3.56006Z" fill="#FAB710"/>
<path d="M244.53 6.77002H241V10.3H244.53V6.77002Z" fill="#FAB710"/>
<path d="M282.13 3.56006H278.6V7.09006H282.13V3.56006Z" fill="#FAB710"/>
<path d="M285.72 6.77002H282.19V10.3H285.72V6.77002Z" fill="#FAB710"/>
<path d="M241 37.6901L244.53 37.8801V34.3601H241V37.6901Z" fill="#FAB710"/>
<path d="M248.12 37.38H244.59V40.91H248.12V37.38Z" fill="#FAB710"/>
<path d="M299.13 27.27H295.6V30.8H299.13V27.27Z" fill="#22244B"/>
<path d="M299.23 13.79H295.7V17.32H299.23V13.79Z" fill="#22244B"/>
<path d="M265 17.04V6.80002H268.27V3.40002H278.6V6.93002H275.33V10.2H271.8V13.6L268.35 13.54V17.04H265Z" fill="#FAB710"/>
<path d="M261.72 17.04V6.80002H258.45V3.40002H248.12V6.93002H251.39V10.2H254.92V13.6L258.37 13.54V17.04H261.72Z" fill="#FAB710"/>
<path d="M268.52 17.2501H271.92V13.8601H275.33V10.4601H278.6V7.18005H282.13V10.3301H285.4V13.7301H282V17.1301H278.6V20.5301H268.4L268.52 17.2501Z" fill="#FAB710"/>
<path d="M258.19 17.0001H254.79V13.6001H251.39V10.2001H248.12V6.93005H244.59V10.0801H241.31V13.4801H244.72V16.8801H248.12V20.2801H258.32L258.19 17.0001Z" fill="#FAB710"/>
<path d="M265 27.3V37.5401H268.27V40.94H278.6V37.41H275.33V34.1301H271.8V30.73L268.35 30.8V27.3H265Z" fill="#FAB710"/>
<path d="M261.72 27.3V37.5401H258.45V40.94H248.12V37.41H251.39V34.1301H254.92V30.73L258.37 30.8V27.3H261.72Z" fill="#FAB710"/>
<path d="M268.52 27.0801H271.92V30.4801H275.33V33.8801H278.6V37.1601H282.13V34.0101H285.4V30.6101H282V27.2101H278.6V23.8101H268.4L268.52 27.0801Z" fill="#FAB710"/>
<path d="M258.19 27.3301H254.79V30.7301H251.39V34.1401H248.12V37.4101H244.59V34.2601H241.31V30.8601H244.72V27.4601H248.12V24.0601H258.32L258.19 27.3301Z" fill="#FAB710"/>
<path d="M261.6 20.34V17.04H265V20.34H268.4V23.74H265.09V27.24H261.6V23.74H258.19V20.44L261.6 20.34Z" fill="#FAB710"/>
<path d="M339.72 3.71997H309.4V40.94H339.72V3.71997Z" fill="#22244B"/>
<path d="M326.25 3.31006H322.72V6.84006H326.25V3.31006Z" fill="#22244B"/>
<path d="M326.25 37.6H322.72V41.13H326.25V37.6Z" fill="#22244B"/>
<path d="M353.29 41.25H356.95V37.66H360.35V34.39H363.62V30.98H367.15V27.58H370.42V24.06H373.82V20.59H370.52V17.32H367.12V13.79H363.76V10.52H360.44V7.11997H357.04V3.71997H353.54V7.04997H350.02V10.46H346.62V13.67H343.34V17.38H339.82V20.66H336.41V24.12H339.91V27.52H343.31V30.79H346.71V34.2H350.11V37.6L353.28 37.63L353.29 41.25Z" fill="#22244B"/>
<path d="M343.31 24.19H339.91V20.66H343.18V17.38H346.84V13.98H350.24V10.46H353.64V7.05005H357.04V10.33H360.44L360.5 13.98H363.76V17.15L367.12 17.13V20.78H370.52V24.06H367.12V27.58H363.59V30.98H360.44V34.39H356.91V37.66H353.51V34.26H350.11V30.8601H346.71V27.46H343.31V24.19Z" fill="#FAB710"/>
<path d="M346.93 34.17H343.4V37.7H346.93V34.17Z" fill="#FAB710"/>
<path d="M343.35 37.38H339.82V40.91H343.35V37.38Z" fill="#FAB710"/>
<path d="M309.33 3.75H305.8V7.28H309.33V3.75Z" fill="#FAB710"/>
<path d="M305.75 6.95996H302.22V10.49H305.75V6.95996Z" fill="#FAB710"/>
<path d="M343.35 3.75H339.82V7.28H343.35V3.75Z" fill="#FAB710"/>
<path d="M346.93 6.95996H343.4V10.49H346.93V6.95996Z" fill="#FAB710"/>
<path d="M302.22 37.88L305.74 38.07V34.54H302.22V37.88Z" fill="#FAB710"/>
<path d="M309.33 37.5699H305.8V41.0999H309.33V37.5699Z" fill="#FAB710"/>
<path d="M326.21 17.22V6.98997H329.49V3.58997H339.82V7.11997H336.54V10.39H333.01V13.79L329.57 13.73V17.22H326.21Z" fill="#FAB710"/>
<path d="M322.94 17.22V6.98997H319.66V3.58997H309.33V7.11997H312.61V10.39H316.13V13.79L319.58 13.73V17.22H322.94Z" fill="#FAB710"/>
<path d="M329.74 17.44H333.14V14.04H336.54V10.64H339.82V7.37H343.34V10.52H346.62V13.92H343.21V17.32H339.82V20.72H329.61L329.74 17.44Z" fill="#FAB710"/>
<path d="M319.41 17.19H316.01V13.79H312.61V10.39H309.33V7.12H305.8V10.27H302.53V13.67H305.93V17.07H309.33V20.47H319.53L319.41 17.19Z" fill="#FAB710"/>
<path d="M326.21 27.49V37.73H329.49V41.12H339.82V37.6H336.54V34.32H333.01V30.92L329.57 30.99V27.49H326.21Z" fill="#FAB710"/>
<path d="M322.94 27.49V37.73H319.66V41.12H309.33V37.6H312.61V34.32H316.13V30.92L319.58 30.99V27.49H322.94Z" fill="#FAB710"/>
<path d="M329.74 27.27H333.14V30.67H336.54V34.07H339.82V37.35H343.34V34.2H346.62V30.8H343.21V27.4H339.82V24H329.61L329.74 27.27Z" fill="#FAB710"/>
<path d="M319.41 27.52H316.01V30.92H312.61V34.33H309.33V37.6H305.8V34.45H302.53V31.05H305.93V27.65H309.33V24.25H319.53L319.41 27.52Z" fill="#FAB710"/>
<path d="M322.81 20.53V17.22H326.21V20.53H329.61V23.93H326.31V27.43H322.81V23.93H319.41V20.63L322.81 20.53Z" fill="#FAB710"/>
<path d="M366.98 0H244.77V3.53H366.98V0Z" fill="#22244B"/>
<path d="M366.97 41.0601H245.14V44.8401H366.97V41.0601Z" fill="#22244B"/>
<path d="M295.66 20.53H292.14V24.05H295.66V20.53Z" fill="#22244B"/>
</g>
<defs>
<clipPath id="clip0_36_10272">
<rect width="132.82" height="44.84" fill="white" transform="translate(-3)"/>
</clipPath>
<clipPath id="clip1_36_10272">
<rect width="132.82" height="44.84" fill="white" transform="translate(119)"/>
</clipPath>
<clipPath id="clip2_36_10272">
<rect width="132.82" height="44.84" fill="white" transform="translate(241)"/>
</clipPath>
</defs>
</svg>
