<svg width="498" height="45" viewBox="0 0 498 45" fill="none" xmlns="http://www.w3.org/2000/svg">
<g clip-path="url(#clip0_72_1745)">
<path d="M37.5001 3.53003H7.18005V40.75H37.5001V3.53003Z" fill="#22244B"/>
<path d="M24.03 3.12H20.5V6.65H24.03V3.12Z" fill="#22244B"/>
<path d="M24.03 37.41H20.5V40.93H24.03V37.41Z" fill="#22244B"/>
<path d="M51.08 41.06H54.7299V37.47H58.13V34.2H61.41V30.79H64.93V27.4H68.2099V23.87H71.61V20.41H68.3V17.13H64.9V13.6H61.5499V10.33H58.22V6.93003H54.83V3.53003H51.33V6.86003H47.7999V10.27H44.4V13.48H41.13V17.19H37.5999V20.47H34.2V23.93H37.6899V27.33H41.09V30.61H44.5V34.01H47.9V37.41L51.06 37.44L51.08 41.06Z" fill="#22244B"/>
<path d="M41.0899 24H37.6899V20.47H40.9699V17.19H44.6199V13.79H48.0199V10.27H51.4199V6.86005H54.8299V10.14H58.2199L58.2899 13.79H61.5499V16.96L64.8999 16.94V20.59H68.2999V23.87H64.8999V27.4H61.3699V30.79H58.2199V34.2H54.6999V37.47H51.2999V34.07H47.8999V30.67H44.4999V27.27H41.0899V24Z" fill="#FAB710"/>
<path d="M51.43 13.67H47.9V17.2H51.43V13.67Z" fill="#22244B"/>
<path d="M51.3301 27.17H47.8V30.7H51.3301V27.17Z" fill="#22244B"/>
<path d="M44.7199 33.98H41.1899V37.51H44.7199V33.98Z" fill="#FAB710"/>
<path d="M41.13 37.1901H37.6V40.7201H41.13V37.1901Z" fill="#FAB710"/>
<path d="M7.11997 3.56006H3.58997V7.09006H7.11997V3.56006Z" fill="#FAB710"/>
<path d="M3.53 6.77008H0V10.3001H3.53V6.77008Z" fill="#FAB710"/>
<path d="M41.13 3.56006H37.6V7.09006H41.13V3.56006Z" fill="#FAB710"/>
<path d="M44.7199 6.77008H41.1899V10.3001H44.7199V6.77008Z" fill="#FAB710"/>
<path d="M0 37.69L3.53 37.88V34.36H0V37.69Z" fill="#FAB710"/>
<path d="M7.11997 37.3801H3.58997V40.9101H7.11997V37.3801Z" fill="#FAB710"/>
<path d="M58.13 27.2701H54.6V30.8001H58.13V27.2701Z" fill="#22244B"/>
<path d="M58.2299 13.79H54.7V17.32H58.2299V13.79Z" fill="#22244B"/>
<path d="M24 17.04V6.80002H27.27V3.40002H37.6V6.93002H34.33V10.2H30.8V13.6L27.35 13.54V17.04H24Z" fill="#FAB710"/>
<path d="M20.72 17.04V6.80002H17.45V3.40002H7.12V6.93002H10.39V10.2H13.92V13.6L17.37 13.54V17.04H20.72Z" fill="#FAB710"/>
<path d="M27.52 17.25H30.92V13.86H34.33V10.46H37.6V7.17999H41.13V10.33H44.4V13.73H41V17.13H37.6V20.53H27.4L27.52 17.25Z" fill="#FAB710"/>
<path d="M17.1901 17H13.7901V13.6H10.3901V10.2H7.12006V6.92999H3.59006V10.08H0.310059V13.48H3.72006V16.88H7.12006V20.28H17.3201L17.1901 17Z" fill="#FAB710"/>
<path d="M24 27.3V37.54H27.27V40.94H37.6V37.41H34.33V34.13H30.8V30.73L27.35 30.8V27.3H24Z" fill="#FAB710"/>
<path d="M20.72 27.3V37.54H17.45V40.94H7.12V37.41H10.39V34.13H13.92V30.73L17.37 30.8V27.3H20.72Z" fill="#FAB710"/>
<path d="M27.52 27.08H30.92V30.48H34.33V33.88H37.6V37.16H41.13V34.01H44.4V30.61H41V27.21H37.6V23.81H27.4L27.52 27.08Z" fill="#FAB710"/>
<path d="M17.1901 27.33H13.7901V30.73H10.3901V34.14H7.12006V37.41H3.59006V34.26H0.310059V30.86H3.72006V27.46H7.12006V24.06H17.3201L17.1901 27.33Z" fill="#FAB710"/>
<path d="M20.5999 20.34V17.04H23.9999V20.34H27.3999V23.74H24.0899V27.24H20.5999V23.74H17.1899V20.44L20.5999 20.34Z" fill="#FAB710"/>
<path d="M98.72 3.71997H68.4V40.94H98.72V3.71997Z" fill="#22244B"/>
<path d="M85.25 3.31H81.72V6.84H85.25V3.31Z" fill="#22244B"/>
<path d="M85.25 37.6H81.72V41.13H85.25V37.6Z" fill="#22244B"/>
<path d="M112.29 41.25H115.95V37.66H119.35V34.39H122.62V30.98H126.15V27.58H129.42V24.06H132.82V20.59H129.52V17.32H126.12V13.79H122.76V10.52H119.44V7.11997H116.04V3.71997H112.54V7.04997H109.02V10.46H105.62V13.67H102.34V17.38H98.8199V20.66H95.4099V24.12H98.9099V27.52H102.31V30.79H105.71V34.2H109.11V37.6L112.28 37.63L112.29 41.25Z" fill="#22244B"/>
<path d="M102.31 24.19H98.9099V20.66H102.18V17.38H105.84V13.98H109.24V10.46H112.64V7.04999H116.04V10.33H119.44L119.5 13.98H122.76V17.15L126.12 17.13V20.78H129.52V24.06H126.12V27.58H122.59V30.98H119.44V34.39H115.91V37.66H112.51V34.26H109.11V30.86H105.71V27.46H102.31V24.19Z" fill="#FAB710"/>
<path d="M112.64 13.86H109.11V17.39H112.64V13.86Z" fill="#22244B"/>
<path d="M112.55 27.36H109.02V30.89H112.55V27.36Z" fill="#22244B"/>
<path d="M105.93 34.17H102.4V37.7H105.93V34.17Z" fill="#FAB710"/>
<path d="M102.35 37.38H98.8199V40.91H102.35V37.38Z" fill="#FAB710"/>
<path d="M68.3299 3.75H64.7999V7.28H68.3299V3.75Z" fill="#FAB710"/>
<path d="M64.75 6.96002H61.22V10.49H64.75V6.96002Z" fill="#FAB710"/>
<path d="M102.35 3.75H98.8199V7.28H102.35V3.75Z" fill="#FAB710"/>
<path d="M105.93 6.96002H102.4V10.49H105.93V6.96002Z" fill="#FAB710"/>
<path d="M61.22 37.88L64.74 38.07V34.54H61.22V37.88Z" fill="#FAB710"/>
<path d="M68.3299 37.57H64.7999V41.1H68.3299V37.57Z" fill="#FAB710"/>
<path d="M119.34 27.46H115.82V30.99H119.34V27.46Z" fill="#22244B"/>
<path d="M119.44 13.98H115.91V17.51H119.44V13.98Z" fill="#22244B"/>
<path d="M85.21 17.22V6.99003H88.49V3.59003H98.82V7.12003H95.54V10.39H92.01V13.79L88.57 13.73V17.22H85.21Z" fill="#FAB710"/>
<path d="M81.94 17.22V6.99003H78.66V3.59003H68.33V7.12003H71.61V10.39H75.13V13.79L78.58 13.73V17.22H81.94Z" fill="#FAB710"/>
<path d="M88.74 17.44H92.14V14.04H95.54V10.64H98.82V7.37H102.34V10.52H105.62V13.92H102.21V17.32H98.82V20.72H88.61L88.74 17.44Z" fill="#FAB710"/>
<path d="M78.41 17.19H75.01V13.79H71.61V10.39H68.33V7.12H64.8V10.27H61.53V13.67H64.93V17.07H68.33V20.47H78.53L78.41 17.19Z" fill="#FAB710"/>
<path d="M85.21 27.49V37.73H88.49V41.12H98.82V37.6H95.54V34.32H92.01V30.92L88.57 30.99V27.49H85.21Z" fill="#FAB710"/>
<path d="M81.94 27.49V37.73H78.66V41.12H68.33V37.6H71.61V34.32H75.13V30.92L78.58 30.99V27.49H81.94Z" fill="#FAB710"/>
<path d="M88.74 27.27H92.14V30.67H95.54V34.07H98.82V37.35H102.34V34.2H105.62V30.8H102.21V27.4H98.82V24H88.61L88.74 27.27Z" fill="#FAB710"/>
<path d="M78.41 27.52H75.01V30.92H71.61V34.33H68.33V37.6H64.8V34.45H61.53V31.05H64.93V27.65H68.33V24.25H78.53L78.41 27.52Z" fill="#FAB710"/>
<path d="M81.81 20.53V17.22H85.21V20.53H88.61V23.93H85.31V27.43H81.81V23.93H78.41V20.63L81.81 20.53Z" fill="#FAB710"/>
<path d="M125.98 0H3.77002V3.53H125.98V0Z" fill="#22244B"/>
<path d="M125.97 41.06H4.14001V44.84H125.97V41.06Z" fill="#22244B"/>
<path d="M54.66 20.53H51.14V24.05H54.66V20.53Z" fill="#22244B"/>
<path d="M116.16 20.53H112.64V24.05H116.16V20.53Z" fill="#22244B"/>
</g>
<g clip-path="url(#clip1_72_1745)">
<path d="M159.5 3.53003H129.18V40.75H159.5V3.53003Z" fill="#22244B"/>
<path d="M146.03 3.12H142.5V6.65H146.03V3.12Z" fill="#22244B"/>
<path d="M146.03 37.41H142.5V40.93H146.03V37.41Z" fill="#22244B"/>
<path d="M173.08 41.06H176.73V37.47H180.13V34.2H183.41V30.79H186.93V27.4H190.21V23.87H193.61V20.41H190.3V17.13H186.9V13.6H183.55V10.33H180.22V6.93003H176.83V3.53003H173.33V6.86003H169.8V10.27H166.4V13.48H163.13V17.19H159.6V20.47H156.2V23.93H159.69V27.33H163.09V30.61H166.5V34.01H169.9V37.41L173.06 37.44L173.08 41.06Z" fill="#22244B"/>
<path d="M163.09 24H159.69V20.47H162.97V17.19H166.62V13.79H170.02V10.27H173.42V6.86005H176.83V10.14H180.22L180.29 13.79H183.55V16.96L186.9 16.94V20.59H190.3V23.87H186.9V27.4H183.37V30.79H180.22V34.2H176.7V37.47H173.3V34.07H169.9V30.67H166.5V27.27H163.09V24Z" fill="#FAB710"/>
<path d="M173.43 13.67H169.9V17.2H173.43V13.67Z" fill="#22244B"/>
<path d="M173.33 27.17H169.8V30.7H173.33V27.17Z" fill="#22244B"/>
<path d="M166.72 33.98H163.19V37.51H166.72V33.98Z" fill="#FAB710"/>
<path d="M163.13 37.1901H159.6V40.7201H163.13V37.1901Z" fill="#FAB710"/>
<path d="M129.12 3.56006H125.59V7.09006H129.12V3.56006Z" fill="#FAB710"/>
<path d="M125.53 6.77008H122V10.3001H125.53V6.77008Z" fill="#FAB710"/>
<path d="M163.13 3.56006H159.6V7.09006H163.13V3.56006Z" fill="#FAB710"/>
<path d="M166.72 6.77008H163.19V10.3001H166.72V6.77008Z" fill="#FAB710"/>
<path d="M122 37.69L125.53 37.88V34.36H122V37.69Z" fill="#FAB710"/>
<path d="M129.12 37.3801H125.59V40.9101H129.12V37.3801Z" fill="#FAB710"/>
<path d="M180.13 27.2701H176.6V30.8001H180.13V27.2701Z" fill="#22244B"/>
<path d="M180.23 13.79H176.7V17.32H180.23V13.79Z" fill="#22244B"/>
<path d="M146 17.04V6.80002H149.27V3.40002H159.6V6.93002H156.33V10.2H152.8V13.6L149.35 13.54V17.04H146Z" fill="#FAB710"/>
<path d="M142.72 17.04V6.80002H139.45V3.40002H129.12V6.93002H132.39V10.2H135.92V13.6L139.37 13.54V17.04H142.72Z" fill="#FAB710"/>
<path d="M149.52 17.25H152.92V13.86H156.33V10.46H159.6V7.17999H163.13V10.33H166.4V13.73H163V17.13H159.6V20.53H149.4L149.52 17.25Z" fill="#FAB710"/>
<path d="M139.19 17H135.79V13.6H132.39V10.2H129.12V6.92999H125.59V10.08H122.31V13.48H125.72V16.88H129.12V20.28H139.32L139.19 17Z" fill="#FAB710"/>
<path d="M146 27.3V37.54H149.27V40.94H159.6V37.41H156.33V34.13H152.8V30.73L149.35 30.8V27.3H146Z" fill="#FAB710"/>
<path d="M142.72 27.3V37.54H139.45V40.94H129.12V37.41H132.39V34.13H135.92V30.73L139.37 30.8V27.3H142.72Z" fill="#FAB710"/>
<path d="M149.52 27.08H152.92V30.48H156.33V33.88H159.6V37.16H163.13V34.01H166.4V30.61H163V27.21H159.6V23.81H149.4L149.52 27.08Z" fill="#FAB710"/>
<path d="M139.19 27.33H135.79V30.73H132.39V34.14H129.12V37.41H125.59V34.26H122.31V30.86H125.72V27.46H129.12V24.06H139.32L139.19 27.33Z" fill="#FAB710"/>
<path d="M142.6 20.34V17.04H146V20.34H149.4V23.74H146.09V27.24H142.6V23.74H139.19V20.44L142.6 20.34Z" fill="#FAB710"/>
<path d="M220.72 3.71997H190.4V40.94H220.72V3.71997Z" fill="#22244B"/>
<path d="M207.25 3.31H203.72V6.84H207.25V3.31Z" fill="#22244B"/>
<path d="M207.25 37.6H203.72V41.13H207.25V37.6Z" fill="#22244B"/>
<path d="M234.29 41.25H237.95V37.66H241.35V34.39H244.62V30.98H248.15V27.58H251.42V24.06H254.82V20.59H251.52V17.32H248.12V13.79H244.76V10.52H241.44V7.11997H238.04V3.71997H234.54V7.04997H231.02V10.46H227.62V13.67H224.34V17.38H220.82V20.66H217.41V24.12H220.91V27.52H224.31V30.79H227.71V34.2H231.11V37.6L234.28 37.63L234.29 41.25Z" fill="#22244B"/>
<path d="M224.31 24.19H220.91V20.66H224.18V17.38H227.84V13.98H231.24V10.46H234.64V7.04999H238.04V10.33H241.44L241.5 13.98H244.76V17.15L248.12 17.13V20.78H251.52V24.06H248.12V27.58H244.59V30.98H241.44V34.39H237.91V37.66H234.51V34.26H231.11V30.86H227.71V27.46H224.31V24.19Z" fill="#FAB710"/>
<path d="M234.64 13.86H231.11V17.39H234.64V13.86Z" fill="#22244B"/>
<path d="M234.55 27.36H231.02V30.89H234.55V27.36Z" fill="#22244B"/>
<path d="M227.93 34.17H224.4V37.7H227.93V34.17Z" fill="#FAB710"/>
<path d="M224.35 37.38H220.82V40.91H224.35V37.38Z" fill="#FAB710"/>
<path d="M190.33 3.75H186.8V7.28H190.33V3.75Z" fill="#FAB710"/>
<path d="M186.75 6.96002H183.22V10.49H186.75V6.96002Z" fill="#FAB710"/>
<path d="M224.35 3.75H220.82V7.28H224.35V3.75Z" fill="#FAB710"/>
<path d="M227.93 6.96002H224.4V10.49H227.93V6.96002Z" fill="#FAB710"/>
<path d="M183.22 37.88L186.74 38.07V34.54H183.22V37.88Z" fill="#FAB710"/>
<path d="M190.33 37.57H186.8V41.1H190.33V37.57Z" fill="#FAB710"/>
<path d="M241.34 27.46H237.82V30.99H241.34V27.46Z" fill="#22244B"/>
<path d="M241.44 13.98H237.91V17.51H241.44V13.98Z" fill="#22244B"/>
<path d="M207.21 17.22V6.99003H210.49V3.59003H220.82V7.12003H217.54V10.39H214.01V13.79L210.57 13.73V17.22H207.21Z" fill="#FAB710"/>
<path d="M203.94 17.22V6.99003H200.66V3.59003H190.33V7.12003H193.61V10.39H197.13V13.79L200.58 13.73V17.22H203.94Z" fill="#FAB710"/>
<path d="M210.74 17.44H214.14V14.04H217.54V10.64H220.82V7.37H224.34V10.52H227.62V13.92H224.21V17.32H220.82V20.72H210.61L210.74 17.44Z" fill="#FAB710"/>
<path d="M200.41 17.19H197.01V13.79H193.61V10.39H190.33V7.12H186.8V10.27H183.53V13.67H186.93V17.07H190.33V20.47H200.53L200.41 17.19Z" fill="#FAB710"/>
<path d="M207.21 27.49V37.73H210.49V41.12H220.82V37.6H217.54V34.32H214.01V30.92L210.57 30.99V27.49H207.21Z" fill="#FAB710"/>
<path d="M203.94 27.49V37.73H200.66V41.12H190.33V37.6H193.61V34.32H197.13V30.92L200.58 30.99V27.49H203.94Z" fill="#FAB710"/>
<path d="M210.74 27.27H214.14V30.67H217.54V34.07H220.82V37.35H224.34V34.2H227.62V30.8H224.21V27.4H220.82V24H210.61L210.74 27.27Z" fill="#FAB710"/>
<path d="M200.41 27.52H197.01V30.92H193.61V34.33H190.33V37.6H186.8V34.45H183.53V31.05H186.93V27.65H190.33V24.25H200.53L200.41 27.52Z" fill="#FAB710"/>
<path d="M203.81 20.53V17.22H207.21V20.53H210.61V23.93H207.31V27.43H203.81V23.93H200.41V20.63L203.81 20.53Z" fill="#FAB710"/>
<path d="M247.98 0H125.77V3.53H247.98V0Z" fill="#22244B"/>
<path d="M247.97 41.06H126.14V44.84H247.97V41.06Z" fill="#22244B"/>
<path d="M176.66 20.53H173.14V24.05H176.66V20.53Z" fill="#22244B"/>
<path d="M238.16 20.53H234.64V24.05H238.16V20.53Z" fill="#22244B"/>
</g>
<g clip-path="url(#clip2_72_1745)">
<path d="M281.5 3.53003H251.18V40.75H281.5V3.53003Z" fill="#22244B"/>
<path d="M268.03 3.12H264.5V6.65H268.03V3.12Z" fill="#22244B"/>
<path d="M268.03 37.41H264.5V40.93H268.03V37.41Z" fill="#22244B"/>
<path d="M295.08 41.06H298.73V37.47H302.13V34.2H305.41V30.79H308.93V27.4H312.21V23.87H315.61V20.41H312.3V17.13H308.9V13.6H305.55V10.33H302.22V6.93003H298.83V3.53003H295.33V6.86003H291.8V10.27H288.4V13.48H285.13V17.19H281.6V20.47H278.2V23.93H281.69V27.33H285.09V30.61H288.5V34.01H291.9V37.41L295.06 37.44L295.08 41.06Z" fill="#22244B"/>
<path d="M285.09 24H281.69V20.47H284.97V17.19H288.62V13.79H292.02V10.27H295.42V6.86005H298.83V10.14H302.22L302.29 13.79H305.55V16.96L308.9 16.94V20.59H312.3V23.87H308.9V27.4H305.37V30.79H302.22V34.2H298.7V37.47H295.3V34.07H291.9V30.67H288.5V27.27H285.09V24Z" fill="#FAB710"/>
<path d="M295.43 13.67H291.9V17.2H295.43V13.67Z" fill="#22244B"/>
<path d="M295.33 27.17H291.8V30.7H295.33V27.17Z" fill="#22244B"/>
<path d="M288.72 33.98H285.19V37.51H288.72V33.98Z" fill="#FAB710"/>
<path d="M285.13 37.1901H281.6V40.7201H285.13V37.1901Z" fill="#FAB710"/>
<path d="M251.12 3.56006H247.59V7.09006H251.12V3.56006Z" fill="#FAB710"/>
<path d="M247.53 6.77008H244V10.3001H247.53V6.77008Z" fill="#FAB710"/>
<path d="M285.13 3.56006H281.6V7.09006H285.13V3.56006Z" fill="#FAB710"/>
<path d="M288.72 6.77008H285.19V10.3001H288.72V6.77008Z" fill="#FAB710"/>
<path d="M244 37.69L247.53 37.88V34.36H244V37.69Z" fill="#FAB710"/>
<path d="M251.12 37.3801H247.59V40.9101H251.12V37.3801Z" fill="#FAB710"/>
<path d="M302.13 27.2701H298.6V30.8001H302.13V27.2701Z" fill="#22244B"/>
<path d="M302.23 13.79H298.7V17.32H302.23V13.79Z" fill="#22244B"/>
<path d="M268 17.04V6.80002H271.27V3.40002H281.6V6.93002H278.33V10.2H274.8V13.6L271.35 13.54V17.04H268Z" fill="#FAB710"/>
<path d="M264.72 17.04V6.80002H261.45V3.40002H251.12V6.93002H254.39V10.2H257.92V13.6L261.37 13.54V17.04H264.72Z" fill="#FAB710"/>
<path d="M271.52 17.25H274.92V13.86H278.33V10.46H281.6V7.17999H285.13V10.33H288.4V13.73H285V17.13H281.6V20.53H271.4L271.52 17.25Z" fill="#FAB710"/>
<path d="M261.19 17H257.79V13.6H254.39V10.2H251.12V6.92999H247.59V10.08H244.31V13.48H247.72V16.88H251.12V20.28H261.32L261.19 17Z" fill="#FAB710"/>
<path d="M268 27.3V37.54H271.27V40.94H281.6V37.41H278.33V34.13H274.8V30.73L271.35 30.8V27.3H268Z" fill="#FAB710"/>
<path d="M264.72 27.3V37.54H261.45V40.94H251.12V37.41H254.39V34.13H257.92V30.73L261.37 30.8V27.3H264.72Z" fill="#FAB710"/>
<path d="M271.52 27.08H274.92V30.48H278.33V33.88H281.6V37.16H285.13V34.01H288.4V30.61H285V27.21H281.6V23.81H271.4L271.52 27.08Z" fill="#FAB710"/>
<path d="M261.19 27.33H257.79V30.73H254.39V34.14H251.12V37.41H247.59V34.26H244.31V30.86H247.72V27.46H251.12V24.06H261.32L261.19 27.33Z" fill="#FAB710"/>
<path d="M264.6 20.34V17.04H268V20.34H271.4V23.74H268.09V27.24H264.6V23.74H261.19V20.44L264.6 20.34Z" fill="#FAB710"/>
<path d="M342.72 3.71997H312.4V40.94H342.72V3.71997Z" fill="#22244B"/>
<path d="M329.25 3.31H325.72V6.84H329.25V3.31Z" fill="#22244B"/>
<path d="M329.25 37.6H325.72V41.13H329.25V37.6Z" fill="#22244B"/>
<path d="M356.29 41.25H359.95V37.66H363.35V34.39H366.62V30.98H370.15V27.58H373.42V24.06H376.82V20.59H373.52V17.32H370.12V13.79H366.76V10.52H363.44V7.11997H360.04V3.71997H356.54V7.04997H353.02V10.46H349.62V13.67H346.34V17.38H342.82V20.66H339.41V24.12H342.91V27.52H346.31V30.79H349.71V34.2H353.11V37.6L356.28 37.63L356.29 41.25Z" fill="#22244B"/>
<path d="M346.31 24.19H342.91V20.66H346.18V17.38H349.84V13.98H353.24V10.46H356.64V7.04999H360.04V10.33H363.44L363.5 13.98H366.76V17.15L370.12 17.13V20.78H373.52V24.06H370.12V27.58H366.59V30.98H363.44V34.39H359.91V37.66H356.51V34.26H353.11V30.86H349.71V27.46H346.31V24.19Z" fill="#FAB710"/>
<path d="M356.64 13.86H353.11V17.39H356.64V13.86Z" fill="#22244B"/>
<path d="M356.55 27.36H353.02V30.89H356.55V27.36Z" fill="#22244B"/>
<path d="M349.93 34.17H346.4V37.7H349.93V34.17Z" fill="#FAB710"/>
<path d="M346.35 37.38H342.82V40.91H346.35V37.38Z" fill="#FAB710"/>
<path d="M312.33 3.75H308.8V7.28H312.33V3.75Z" fill="#FAB710"/>
<path d="M308.75 6.96002H305.22V10.49H308.75V6.96002Z" fill="#FAB710"/>
<path d="M346.35 3.75H342.82V7.28H346.35V3.75Z" fill="#FAB710"/>
<path d="M349.93 6.96002H346.4V10.49H349.93V6.96002Z" fill="#FAB710"/>
<path d="M305.22 37.88L308.74 38.07V34.54H305.22V37.88Z" fill="#FAB710"/>
<path d="M312.33 37.57H308.8V41.1H312.33V37.57Z" fill="#FAB710"/>
<path d="M363.34 27.46H359.82V30.99H363.34V27.46Z" fill="#22244B"/>
<path d="M363.44 13.98H359.91V17.51H363.44V13.98Z" fill="#22244B"/>
<path d="M329.21 17.22V6.99003H332.49V3.59003H342.82V7.12003H339.54V10.39H336.01V13.79L332.57 13.73V17.22H329.21Z" fill="#FAB710"/>
<path d="M325.94 17.22V6.99003H322.66V3.59003H312.33V7.12003H315.61V10.39H319.13V13.79L322.58 13.73V17.22H325.94Z" fill="#FAB710"/>
<path d="M332.74 17.44H336.14V14.04H339.54V10.64H342.82V7.37H346.34V10.52H349.62V13.92H346.21V17.32H342.82V20.72H332.61L332.74 17.44Z" fill="#FAB710"/>
<path d="M322.41 17.19H319.01V13.79H315.61V10.39H312.33V7.12H308.8V10.27H305.53V13.67H308.93V17.07H312.33V20.47H322.53L322.41 17.19Z" fill="#FAB710"/>
<path d="M329.21 27.49V37.73H332.49V41.12H342.82V37.6H339.54V34.32H336.01V30.92L332.57 30.99V27.49H329.21Z" fill="#FAB710"/>
<path d="M325.94 27.49V37.73H322.66V41.12H312.33V37.6H315.61V34.32H319.13V30.92L322.58 30.99V27.49H325.94Z" fill="#FAB710"/>
<path d="M332.74 27.27H336.14V30.67H339.54V34.07H342.82V37.35H346.34V34.2H349.62V30.8H346.21V27.4H342.82V24H332.61L332.74 27.27Z" fill="#FAB710"/>
<path d="M322.41 27.52H319.01V30.92H315.61V34.33H312.33V37.6H308.8V34.45H305.53V31.05H308.93V27.65H312.33V24.25H322.53L322.41 27.52Z" fill="#FAB710"/>
<path d="M325.81 20.53V17.22H329.21V20.53H332.61V23.93H329.31V27.43H325.81V23.93H322.41V20.63L325.81 20.53Z" fill="#FAB710"/>
<path d="M369.98 0H247.77V3.53H369.98V0Z" fill="#22244B"/>
<path d="M369.97 41.06H248.14V44.84H369.97V41.06Z" fill="#22244B"/>
<path d="M298.66 20.53H295.14V24.05H298.66V20.53Z" fill="#22244B"/>
<path d="M360.16 20.53H356.64V24.05H360.16V20.53Z" fill="#22244B"/>
</g>
<g clip-path="url(#clip3_72_1745)">
<path d="M402.5 3.53003H372.18V40.75H402.5V3.53003Z" fill="#22244B"/>
<path d="M389.03 3.12H385.5V6.65H389.03V3.12Z" fill="#22244B"/>
<path d="M389.03 37.41H385.5V40.93H389.03V37.41Z" fill="#22244B"/>
<path d="M416.08 41.06H419.73V37.47H423.13V34.2H426.41V30.79H429.93V27.4H433.21V23.87H436.61V20.41H433.3V17.13H429.9V13.6H426.55V10.33H423.22V6.93003H419.83V3.53003H416.33V6.86003H412.8V10.27H409.4V13.48H406.13V17.19H402.6V20.47H399.2V23.93H402.69V27.33H406.09V30.61H409.5V34.01H412.9V37.41L416.06 37.44L416.08 41.06Z" fill="#22244B"/>
<path d="M406.09 24H402.69V20.47H405.97V17.19H409.62V13.79H413.02V10.27H416.42V6.86005H419.83V10.14H423.22L423.29 13.79H426.55V16.96L429.9 16.94V20.59H433.3V23.87H429.9V27.4H426.37V30.79H423.22V34.2H419.7V37.47H416.3V34.07H412.9V30.67H409.5V27.27H406.09V24Z" fill="#FAB710"/>
<path d="M416.43 13.67H412.9V17.2H416.43V13.67Z" fill="#22244B"/>
<path d="M416.33 27.17H412.8V30.7H416.33V27.17Z" fill="#22244B"/>
<path d="M409.72 33.98H406.19V37.51H409.72V33.98Z" fill="#FAB710"/>
<path d="M406.13 37.1901H402.6V40.7201H406.13V37.1901Z" fill="#FAB710"/>
<path d="M372.12 3.56006H368.59V7.09006H372.12V3.56006Z" fill="#FAB710"/>
<path d="M368.53 6.77008H365V10.3001H368.53V6.77008Z" fill="#FAB710"/>
<path d="M406.13 3.56006H402.6V7.09006H406.13V3.56006Z" fill="#FAB710"/>
<path d="M409.72 6.77008H406.19V10.3001H409.72V6.77008Z" fill="#FAB710"/>
<path d="M365 37.69L368.53 37.88V34.36H365V37.69Z" fill="#FAB710"/>
<path d="M372.12 37.3801H368.59V40.9101H372.12V37.3801Z" fill="#FAB710"/>
<path d="M423.13 27.2701H419.6V30.8001H423.13V27.2701Z" fill="#22244B"/>
<path d="M423.23 13.79H419.7V17.32H423.23V13.79Z" fill="#22244B"/>
<path d="M389 17.04V6.80002H392.27V3.40002H402.6V6.93002H399.33V10.2H395.8V13.6L392.35 13.54V17.04H389Z" fill="#FAB710"/>
<path d="M385.72 17.04V6.80002H382.45V3.40002H372.12V6.93002H375.39V10.2H378.92V13.6L382.37 13.54V17.04H385.72Z" fill="#FAB710"/>
<path d="M392.52 17.25H395.92V13.86H399.33V10.46H402.6V7.17999H406.13V10.33H409.4V13.73H406V17.13H402.6V20.53H392.4L392.52 17.25Z" fill="#FAB710"/>
<path d="M382.19 17H378.79V13.6H375.39V10.2H372.12V6.92999H368.59V10.08H365.31V13.48H368.72V16.88H372.12V20.28H382.32L382.19 17Z" fill="#FAB710"/>
<path d="M389 27.3V37.54H392.27V40.94H402.6V37.41H399.33V34.13H395.8V30.73L392.35 30.8V27.3H389Z" fill="#FAB710"/>
<path d="M385.72 27.3V37.54H382.45V40.94H372.12V37.41H375.39V34.13H378.92V30.73L382.37 30.8V27.3H385.72Z" fill="#FAB710"/>
<path d="M392.52 27.08H395.92V30.48H399.33V33.88H402.6V37.16H406.13V34.01H409.4V30.61H406V27.21H402.6V23.81H392.4L392.52 27.08Z" fill="#FAB710"/>
<path d="M382.19 27.33H378.79V30.73H375.39V34.14H372.12V37.41H368.59V34.26H365.31V30.86H368.72V27.46H372.12V24.06H382.32L382.19 27.33Z" fill="#FAB710"/>
<path d="M385.41 20.3V17H388.81V20.3H392.21V23.7H388.9V27.2H385.41V23.7H382V20.4L385.41 20.3Z" fill="#FAB710"/>
<path d="M463.72 3.71997H433.4V40.94H463.72V3.71997Z" fill="#22244B"/>
<path d="M450.25 3.31H446.72V6.84H450.25V3.31Z" fill="#22244B"/>
<path d="M450.25 37.6H446.72V41.13H450.25V37.6Z" fill="#22244B"/>
<path d="M477.29 41.25H480.95V37.66H484.35V34.39H487.62V30.98H491.15V27.58H494.42V24.06H497.82V20.59H494.52V17.32H491.12V13.79H487.76V10.52H484.44V7.11997H481.04V3.71997H477.54V7.04997H474.02V10.46H470.62V13.67H467.34V17.38H463.82V20.66H460.41V24.12H463.91V27.52H467.31V30.79H470.71V34.2H474.11V37.6L477.28 37.63L477.29 41.25Z" fill="#22244B"/>
<path d="M467.31 24.19H463.91V20.66H467.18V17.38H470.84V13.98H474.24V10.46H477.64V7.04999H481.04V10.33H484.44L484.5 13.98H487.76V17.15L491.12 17.13V20.78H494.52V24.06H491.12V27.58H487.59V30.98H484.44V34.39H480.91V37.66H477.51V34.26H474.11V30.86H470.71V27.46H467.31V24.19Z" fill="#FAB710"/>
<path d="M477.64 13.86H474.11V17.39H477.64V13.86Z" fill="#22244B"/>
<path d="M477.55 27.36H474.02V30.89H477.55V27.36Z" fill="#22244B"/>
<path d="M470.93 34.17H467.4V37.7H470.93V34.17Z" fill="#FAB710"/>
<path d="M467.35 37.38H463.82V40.91H467.35V37.38Z" fill="#FAB710"/>
<path d="M433.33 3.75H429.8V7.28H433.33V3.75Z" fill="#FAB710"/>
<path d="M429.75 6.96002H426.22V10.49H429.75V6.96002Z" fill="#FAB710"/>
<path d="M467.35 3.75H463.82V7.28H467.35V3.75Z" fill="#FAB710"/>
<path d="M470.93 6.96002H467.4V10.49H470.93V6.96002Z" fill="#FAB710"/>
<path d="M426.22 37.88L429.74 38.07V34.54H426.22V37.88Z" fill="#FAB710"/>
<path d="M433.33 37.57H429.8V41.1H433.33V37.57Z" fill="#FAB710"/>
<path d="M484.34 27.46H480.82V30.99H484.34V27.46Z" fill="#22244B"/>
<path d="M484.44 13.98H480.91V17.51H484.44V13.98Z" fill="#22244B"/>
<path d="M450.21 17.22V6.99003H453.49V3.59003H463.82V7.12003H460.54V10.39H457.01V13.79L453.57 13.73V17.22H450.21Z" fill="#FAB710"/>
<path d="M446.94 17.22V6.99003H443.66V3.59003H433.33V7.12003H436.61V10.39H440.13V13.79L443.58 13.73V17.22H446.94Z" fill="#FAB710"/>
<path d="M453.74 17.44H457.14V14.04H460.54V10.64H463.82V7.37H467.34V10.52H470.62V13.92H467.21V17.32H463.82V20.72H453.61L453.74 17.44Z" fill="#FAB710"/>
<path d="M443.41 17.19H440.01V13.79H436.61V10.39H433.33V7.12H429.8V10.27H426.53V13.67H429.93V17.07H433.33V20.47H443.53L443.41 17.19Z" fill="#FAB710"/>
<path d="M450.21 27.49V37.73H453.49V41.12H463.82V37.6H460.54V34.32H457.01V30.92L453.57 30.99V27.49H450.21Z" fill="#FAB710"/>
<path d="M446.94 27.49V37.73H443.66V41.12H433.33V37.6H436.61V34.32H440.13V30.92L443.58 30.99V27.49H446.94Z" fill="#FAB710"/>
<path d="M453.74 27.27H457.14V30.67H460.54V34.07H463.82V37.35H467.34V34.2H470.62V30.8H467.21V27.4H463.82V24H453.61L453.74 27.27Z" fill="#FAB710"/>
<path d="M443.41 27.52H440.01V30.92H436.61V34.33H433.33V37.6H429.8V34.45H426.53V31.05H429.93V27.65H433.33V24.25H443.53L443.41 27.52Z" fill="#FAB710"/>
<path d="M446.81 20.53V17.22H450.21V20.53H453.61V23.93H450.31V27.43H446.81V23.93H443.41V20.63L446.81 20.53Z" fill="#FAB710"/>
<path d="M490.98 0H368.77V3.53H490.98V0Z" fill="#22244B"/>
<path d="M490.97 41.06H369.14V44.84H490.97V41.06Z" fill="#22244B"/>
<path d="M419.66 20.53H416.14V24.05H419.66V20.53Z" fill="#22244B"/>
<path d="M481.16 20.53H477.64V24.05H481.16V20.53Z" fill="#22244B"/>
</g>
<defs>
<clipPath id="clip0_72_1745">
<rect width="132.82" height="44.84" fill="white"/>
</clipPath>
<clipPath id="clip1_72_1745">
<rect width="132.82" height="44.84" fill="white" transform="translate(122)"/>
</clipPath>
<clipPath id="clip2_72_1745">
<rect width="132.82" height="44.84" fill="white" transform="translate(244)"/>
</clipPath>
<clipPath id="clip3_72_1745">
<rect width="132.82" height="44.84" fill="white" transform="translate(365)"/>
</clipPath>
</defs>
</svg>
